<svg xmlns="http://www.w3.org/2000/svg" xmlns:xlink="http://www.w3.org/1999/xlink" width="149.377" height="196.006" viewBox="0 0 149.377 196.006">
  <defs>
    <clipPath id="clip-path">
      <path id="Path_3761" data-name="Path 3761" d="M0,0H55.192V-62.021H0Z" fill="none"/>
    </clipPath>
  </defs>
  <g id="Group_3515" data-name="Group 3515" transform="translate(-688.781 -3233.271)">
    <path id="Path_3578" data-name="Path 3578" d="M3.953,2.354A.852.852,0,0,0,4.2,1.74a.876.876,0,0,0-.257-.616L.767-2.041A.865.865,0,0,0,.152-2.3a.864.864,0,0,0-.614.253L-3.6,1.114a.869.869,0,0,0-.251.614.869.869,0,0,0,.259.616L-.419,5.509A.873.873,0,0,0,.2,5.764.857.857,0,0,0,.81,5.509Z" transform="translate(764.913 3425.073) rotate(90)" fill="#9a9b9f"/>
    <g id="Group_3023" data-name="Group 3023" transform="translate(-12.41 -1425.373)">
      <path id="Path_3577" data-name="Path 3577" d="M11.292,6.723a2.45,2.45,0,0,0,.717-1.756,2.486,2.486,0,0,0-.737-1.758L2.191-5.83a2.474,2.474,0,0,0-1.76-.729,2.447,2.447,0,0,0-1.754.723L-10.3,3.181a2.45,2.45,0,0,0-.717,1.756,2.482,2.482,0,0,0,.737,1.758l9.08,9.042a2.491,2.491,0,0,0,1.76.729,2.454,2.454,0,0,0,1.754-.725Z" transform="translate(780.83 4827.637) rotate(90)" fill="#fda730"/>
      <path id="Path_3580" data-name="Path 3580" d="M71.767,42.625a15.808,15.808,0,0,0-.049-22.338L14.195-36.984a15.683,15.683,0,0,0-11.178-4.6,15.68,15.68,0,0,0-11.16,4.647L-65.416,20.584a15.681,15.681,0,0,0-4.6,11.182,15.682,15.682,0,0,0,4.647,11.158L-7.844,100.2a15.689,15.689,0,0,0,11.18,4.6,15.683,15.683,0,0,0,11.16-4.647ZM3.15,83.18a11.105,11.105,0,0,1-7.922-3.256l-40.75-40.57a11.12,11.12,0,0,1-3.291-7.906,11.109,11.109,0,0,1,3.256-7.92L-4.985-17.22a11.113,11.113,0,0,1,7.908-3.295,11.106,11.106,0,0,1,7.914,3.258L51.591,23.316a11.2,11.2,0,0,1,.034,15.824L11.054,79.89a11.119,11.119,0,0,1-7.9,3.291" transform="translate(807.484 4730.156) rotate(90)" fill="none" stroke="#053972" stroke-width="3"/>
      <path id="Path_3581" data-name="Path 3581" d="M57.281,34.107A12.434,12.434,0,0,0,60.918,25.2a12.6,12.6,0,0,0-3.738-8.916L11.122-29.574a12.608,12.608,0,0,0-8.932-3.7A12.419,12.419,0,0,0-6.7-29.6L-52.242,16.141a12.441,12.441,0,0,0-3.639,8.91,12.6,12.6,0,0,0,3.74,8.916L-6.083,79.825a12.612,12.612,0,0,0,8.935,3.7,12.423,12.423,0,0,0,8.89-3.68Z" transform="translate(802.385 4730.673) rotate(90)" fill="#fff"/>
    </g>
    <g id="Group_3067" data-name="Group 3067" transform="translate(735.873 3336.536)">
      <g id="Group_3066" data-name="Group 3066" clip-path="url(#clip-path)">
        <g id="Group_3065" data-name="Group 3065" transform="translate(33.082 -34.599)">
          <path id="Path_3760" data-name="Path 3760" d="M0,0C-2.471-3.388-5.485.174-5.485.174S-8.5-3.388-10.97,0c-2.639,3.618,3.728,7.627,5.485,8.638C-3.728,7.627,2.638,3.618,0,0ZM7.917,3.588c0,16.506-6,29.886-13.4,29.886s-13.4-13.38-13.4-29.886,6-29.885,13.4-29.885S7.917-12.918,7.917,3.588ZM1.48-7.862C15.58.718,23.892,12.8,20.046,19.122s-18.4,4.494-32.5-4.083S-34.864-5.622-31.017-11.945-12.62-16.441,1.48-7.862Zm-13.932,0C-26.552.718-34.864,12.8-31.017,19.122s18.4,4.494,32.5-4.083S23.892-5.622,20.046-11.945,1.65-16.441-12.452-7.862Z" fill="none" stroke="#053972" stroke-linecap="round" stroke-width="2.25"/>
        </g>
      </g>
    </g>
  </g>
</svg>
