<svg xmlns="http://www.w3.org/2000/svg" xmlns:xlink="http://www.w3.org/1999/xlink" width="149.377" height="196.006" viewBox="0 0 149.377 196.006">
  <defs>
    <clipPath id="clip-path">
      <rect id="Rectangle_897" data-name="Rectangle 897" width="67.125" height="65.673" fill="none" stroke="#053972" stroke-width="1.5"/>
    </clipPath>
  </defs>
  <g id="Group_3511" data-name="Group 3511" transform="translate(-333.312 -3236.669)">
    <g id="Group_3028" data-name="Group 3028" transform="translate(-367.879 -1421.974)">
      <path id="Path_3578" data-name="Path 3578" d="M3.953,2.354A.852.852,0,0,0,4.2,1.74a.876.876,0,0,0-.257-.616L.767-2.041A.865.865,0,0,0,.152-2.3a.864.864,0,0,0-.614.253L-3.6,1.114a.869.869,0,0,0-.251.614.869.869,0,0,0,.259.616L-.419,5.509A.873.873,0,0,0,.2,5.764.857.857,0,0,0,.81,5.509Z" transform="translate(780.323 4850.445) rotate(90)" fill="#9a9b9f"/>
      <g id="Group_3023" data-name="Group 3023">
        <path id="Path_3577" data-name="Path 3577" d="M11.292,6.723a2.45,2.45,0,0,0,.717-1.756,2.486,2.486,0,0,0-.737-1.758L2.191-5.83a2.474,2.474,0,0,0-1.76-.729,2.447,2.447,0,0,0-1.754.723L-10.3,3.181a2.45,2.45,0,0,0-.717,1.756,2.482,2.482,0,0,0,.737,1.758l9.08,9.042a2.491,2.491,0,0,0,1.76.729,2.454,2.454,0,0,0,1.754-.725Z" transform="translate(782.83 4827.637) rotate(90)" fill="#fda730"/>
        <path id="Path_3580" data-name="Path 3580" d="M71.767,42.625a15.808,15.808,0,0,0-.049-22.338L14.195-36.984a15.683,15.683,0,0,0-11.178-4.6,15.68,15.68,0,0,0-11.16,4.647L-65.416,20.584a15.681,15.681,0,0,0-4.6,11.182,15.682,15.682,0,0,0,4.647,11.158L-7.844,100.2a15.689,15.689,0,0,0,11.18,4.6,15.683,15.683,0,0,0,11.16-4.647ZM3.15,83.18a11.105,11.105,0,0,1-7.922-3.256l-40.75-40.57a11.12,11.12,0,0,1-3.291-7.906,11.109,11.109,0,0,1,3.256-7.92L-4.985-17.22a11.113,11.113,0,0,1,7.908-3.295,11.106,11.106,0,0,1,7.914,3.258L51.591,23.316a11.2,11.2,0,0,1,.034,15.824L11.054,79.89a11.119,11.119,0,0,1-7.9,3.291" transform="translate(807.484 4730.156) rotate(90)" fill="none" stroke="#053972" stroke-width="3"/>
        <path id="Path_3581" data-name="Path 3581" d="M57.281,34.107A12.434,12.434,0,0,0,60.918,25.2a12.6,12.6,0,0,0-3.738-8.916L11.122-29.574a12.608,12.608,0,0,0-8.932-3.7A12.419,12.419,0,0,0-6.7-29.6L-52.242,16.141a12.441,12.441,0,0,0-3.639,8.91,12.6,12.6,0,0,0,3.74,8.916L-6.083,79.825a12.612,12.612,0,0,0,8.935,3.7,12.423,12.423,0,0,0,8.89-3.68Z" transform="translate(802.385 4730.673) rotate(90)" fill="#fff"/>
      </g>
    </g>
    <g id="Group_3064" data-name="Group 3064" transform="translate(374.438 3284.931)">
      <line id="Line_84" data-name="Line 84" x1="1.162" y1="8.332" transform="translate(33.024 27.501)" fill="none" stroke="#e06043" stroke-linecap="round" stroke-linejoin="round" stroke-width="1.5"/>
      <line id="Line_85" data-name="Line 85" x1="11.592" y1="5.289" transform="translate(21.404 33.24)" fill="none" stroke="#e06043" stroke-linecap="round" stroke-linejoin="round" stroke-width="1.5"/>
      <line id="Line_86" data-name="Line 86" x1="11.431" y1="4.59" transform="translate(34.227 25.303)" fill="none" stroke="#e06043" stroke-linecap="round" stroke-linejoin="round" stroke-width="1.5"/>
      <g id="Group_3063" data-name="Group 3063" transform="translate(0 0)">
        <g id="Group_3062" data-name="Group 3062" clip-path="url(#clip-path)">
          <path id="Path_3753" data-name="Path 3753" d="M30.395,48.461a3.6,3.6,0,0,1,0-7.165,3.6,3.6,0,0,1,0,7.165Z" transform="translate(-10.52 -13.779)" fill="none" stroke="#053972" stroke-linecap="round" stroke-linejoin="round" stroke-width="1.5"/>
          <path id="Path_3754" data-name="Path 3754" d="M57.408,56.957a3.3,3.3,0,1,1-3.29-3.584A3.449,3.449,0,0,1,57.408,56.957Z" transform="translate(-19.728 -17.809)" fill="none" stroke="#053972" stroke-linecap="round" stroke-linejoin="round" stroke-width="1.5"/>
          <path id="Path_3755" data-name="Path 3755" d="M51.042,38.377a3.6,3.6,0,1,1,3.29-3.582A3.45,3.45,0,0,1,51.042,38.377Z" transform="translate(-18.534 -10.415)" fill="none" stroke="#053972" stroke-linecap="round" stroke-linejoin="round" stroke-width="1.5"/>
          <path id="Path_3756" data-name="Path 3756" d="M75.178,49.128a3.6,3.6,0,1,1,3.291-3.582A3.449,3.449,0,0,1,75.178,49.128Z" transform="translate(-27.903 -14.001)" fill="none" stroke="#053972" stroke-linecap="round" stroke-linejoin="round" stroke-width="1.5"/>
          <path id="Path_3757" data-name="Path 3757" d="M23.713,56.851a80.714,80.714,0,0,1-9.472-8.225A52.575,52.575,0,0,1,5.609,37.57,27.157,27.157,0,0,1,4.036,13.763C7.072,6.727,13.8,2,20.783,2l.306,0c5.375.107,9.662,2.611,13.249,5.431C37.926,4.613,42.212,2.109,47.587,2l.306,0C54.875,2,61.6,6.727,64.641,13.763A27.155,27.155,0,0,1,63.067,37.57a52.564,52.564,0,0,1-8.63,11.056C51.527,51.475,41.316,60.142,37.9,62.561L34.44,65.007Z" transform="translate(-0.776 -0.667)" fill="none" stroke="#053972" stroke-linecap="round" stroke-linejoin="round" stroke-width="1.5"/>
          <path id="Path_3758" data-name="Path 3758" d="M31.017,54.663a75.034,75.034,0,0,1-8.8-7.655,45.734,45.734,0,0,1-7.531-9.63,20.018,20.018,0,0,1-1.226-17.445c1.978-4.586,6.6-8.027,11.4-7.931,5.3.1,9.45,3.753,13.361,7.223,3.912-3.47,8.063-7.118,13.361-7.223,4.8-.1,9.426,3.346,11.4,7.931A20.016,20.016,0,0,1,61.76,37.378a45.757,45.757,0,0,1-7.531,9.63c-2.746,2.687-12.683,11.11-15.782,13.3Z" transform="translate(-4.658 -4.004)" fill="none" stroke="#053972" stroke-linecap="round" stroke-linejoin="round" stroke-width="1.5"/>
          <path id="Path_3759" data-name="Path 3759" d="M31.017,54.663a75.034,75.034,0,0,1-8.8-7.655,45.734,45.734,0,0,1-7.531-9.63,20.018,20.018,0,0,1-1.226-17.445c1.978-4.586,6.6-8.027,11.4-7.931,5.3.1,9.45,3.753,13.361,7.223,3.912-3.47,8.063-7.118,13.361-7.223,4.8-.1,9.426,3.346,11.4,7.931A20.016,20.016,0,0,1,61.76,37.378a45.757,45.757,0,0,1-7.531,9.63c-2.746,2.687-12.683,11.11-15.782,13.3Z" transform="translate(-4.658 -4.004)" fill="none" stroke="#053972" stroke-linecap="round" stroke-linejoin="round" stroke-width="1.5"/>
        </g>
      </g>
    </g>
  </g>
</svg>
