<svg xmlns="http://www.w3.org/2000/svg" xmlns:xlink="http://www.w3.org/1999/xlink" width="149.377" height="196.006" viewBox="0 0 149.377 196.006">
  <defs>
    <clipPath id="clip-path">
      <path id="Path_3726" data-name="Path 3726" d="M0,21.925H72.21V-49.346H0Z" transform="translate(0 49.346)" fill="none"/>
    </clipPath>
  </defs>
  <g id="Group_3514" data-name="Group 3514" transform="translate(-1373.814 -3241.618)">
    <g id="Group_3024" data-name="Group 3024" transform="translate(672.623 -1417.025)">
      <path id="Path_3578" data-name="Path 3578" d="M3.953,2.354A.852.852,0,0,0,4.2,1.74a.876.876,0,0,0-.257-.616L.767-2.041A.865.865,0,0,0,.152-2.3a.864.864,0,0,0-.614.253L-3.6,1.114a.869.869,0,0,0-.251.614.869.869,0,0,0,.259.616L-.419,5.509A.873.873,0,0,0,.2,5.764.857.857,0,0,0,.81,5.509Z" transform="translate(780.323 4850.445) rotate(90)" fill="#9a9b9f"/>
      <g id="Group_3023" data-name="Group 3023">
        <path id="Path_3577" data-name="Path 3577" d="M11.292,6.723a2.45,2.45,0,0,0,.717-1.756,2.486,2.486,0,0,0-.737-1.758L2.191-5.83a2.474,2.474,0,0,0-1.76-.729,2.447,2.447,0,0,0-1.754.723L-10.3,3.181a2.45,2.45,0,0,0-.717,1.756,2.482,2.482,0,0,0,.737,1.758l9.08,9.042a2.491,2.491,0,0,0,1.76.729,2.454,2.454,0,0,0,1.754-.725Z" transform="translate(782.83 4827.637) rotate(90)" fill="#fda730"/>
        <path id="Path_3580" data-name="Path 3580" d="M71.767,42.625a15.808,15.808,0,0,0-.049-22.338L14.195-36.984a15.683,15.683,0,0,0-11.178-4.6,15.68,15.68,0,0,0-11.16,4.647L-65.416,20.584a15.681,15.681,0,0,0-4.6,11.182,15.682,15.682,0,0,0,4.647,11.158L-7.844,100.2a15.689,15.689,0,0,0,11.18,4.6,15.683,15.683,0,0,0,11.16-4.647ZM3.15,83.18a11.105,11.105,0,0,1-7.922-3.256l-40.75-40.57a11.12,11.12,0,0,1-3.291-7.906,11.109,11.109,0,0,1,3.256-7.92L-4.985-17.22a11.113,11.113,0,0,1,7.908-3.295,11.106,11.106,0,0,1,7.914,3.258L51.591,23.316a11.2,11.2,0,0,1,.034,15.824L11.054,79.89a11.119,11.119,0,0,1-7.9,3.291" transform="translate(807.484 4730.156) rotate(90)" fill="none" stroke="#053972" stroke-width="3"/>
        <path id="Path_3581" data-name="Path 3581" d="M57.281,34.107A12.434,12.434,0,0,0,60.918,25.2a12.6,12.6,0,0,0-3.738-8.916L11.122-29.574a12.608,12.608,0,0,0-8.932-3.7A12.419,12.419,0,0,0-6.7-29.6L-52.242,16.141a12.441,12.441,0,0,0-3.639,8.91,12.6,12.6,0,0,0,3.74,8.916L-6.083,79.825a12.612,12.612,0,0,0,8.935,3.7,12.423,12.423,0,0,0,8.89-3.68Z" transform="translate(802.385 4730.673) rotate(90)" fill="#fff"/>
      </g>
    </g>
    <g id="Group_3056" data-name="Group 3056" transform="translate(1412.397 3328.81)">
      <g id="Group_3031" data-name="Group 3031" transform="translate(0 -49.346)" clip-path="url(#clip-path)">
        <g id="Group_3030" data-name="Group 3030" transform="translate(17.397 17.551)">
          <path id="Path_3725" data-name="Path 3725" d="M5.575,11.15A18.122,18.122,0,0,0,23.7-6.972,18.123,18.123,0,0,0,5.575-25.094,18.123,18.123,0,0,0-12.547-6.972,18.122,18.122,0,0,0,5.575,11.15Z" transform="translate(12.547 25.094)" fill="none" stroke="#053972" stroke-width="1.125"/>
        </g>
      </g>
      <text id="_" data-name="£" transform="translate(28.098 -4.546)" fill="#053972" font-size="27" font-family="SegoeUI, Segoe UI"><tspan x="0" y="0">£</tspan></text>
      <g id="Group_3033" data-name="Group 3033" transform="translate(0 -49.346)" clip-path="url(#clip-path)">
        <g id="Group_3032" data-name="Group 3032" transform="translate(33.432 0.587)">
          <path id="Path_3727" data-name="Path 3727" d="M.718,1.436A2.332,2.332,0,0,0,3.05-.9,2.333,2.333,0,0,0,.718-3.231,2.333,2.333,0,0,0-1.615-.9,2.332,2.332,0,0,0,.718,1.436Z" transform="translate(1.615 3.231)" fill="none" stroke="#053972" stroke-width="0.814"/>
        </g>
      </g>
      <g id="Group_3034" data-name="Group 3034" transform="translate(35.598 -44.425)">
        <path id="Path_3729" data-name="Path 3729" d="M0,2.256V-5.077" transform="translate(0 5.077)" fill="none" stroke="#053972" stroke-width="0.814"/>
      </g>
      <g id="Group_3036" data-name="Group 3036" transform="translate(0 -49.346)" clip-path="url(#clip-path)">
        <g id="Group_3035" data-name="Group 3035" transform="translate(65.796 33.586)">
          <path id="Path_3730" data-name="Path 3730" d="M0,.718A2.333,2.333,0,1,0,2.333-1.615,2.332,2.332,0,0,0,0,.718Z" transform="translate(0 1.615)" fill="none" stroke="#053972" stroke-width="0.814"/>
        </g>
      </g>
      <g id="Group_3037" data-name="Group 3037" transform="translate(58.797 -13.594)">
        <path id="Path_3732" data-name="Path 3732" d="M0,0H7.333" fill="none" stroke="#053972" stroke-width="0.814"/>
      </g>
      <g id="Group_3039" data-name="Group 3039" transform="translate(0 -49.346)" clip-path="url(#clip-path)">
        <g id="Group_3038" data-name="Group 3038" transform="translate(0.588 33.586)">
          <path id="Path_3733" data-name="Path 3733" d="M1.436.718A2.332,2.332,0,0,0-.9-1.615,2.333,2.333,0,0,0-3.231.718,2.333,2.333,0,0,0-.9,3.05,2.332,2.332,0,0,0,1.436.718Z" transform="translate(3.231 1.615)" fill="none" stroke="#053972" stroke-width="0.814"/>
        </g>
      </g>
      <g id="Group_3040" data-name="Group 3040" transform="translate(4.921 -13.261)">
        <path id="Path_3735" data-name="Path 3735" d="M2.256,0H-5.077" transform="translate(5.077)" fill="none" stroke="#053972" stroke-width="0.814"/>
      </g>
      <g id="Group_3042" data-name="Group 3042" transform="translate(0 -49.346)" clip-path="url(#clip-path)">
        <g id="Group_3041" data-name="Group 3041" transform="translate(33.265 66.017)">
          <path id="Path_3736" data-name="Path 3736" d="M.718,0A2.333,2.333,0,1,0,3.05,2.333,2.332,2.332,0,0,0,.718,0Z" transform="translate(1.615)" fill="none" stroke="#053972" stroke-width="0.814"/>
        </g>
      </g>
      <g id="Group_3043" data-name="Group 3043" transform="translate(35.764 9.672)">
        <path id="Path_3738" data-name="Path 3738" d="M0,0V7.333" fill="none" stroke="#053972" stroke-width="0.814"/>
      </g>
      <g id="Group_3045" data-name="Group 3045" transform="translate(0 -49.346)" clip-path="url(#clip-path)">
        <g id="Group_3044" data-name="Group 3044" transform="translate(56.238 11.042)">
          <path id="Path_3739" data-name="Path 3739" d="M.184,1.2a2.332,2.332,0,0,0,3.294.173,2.334,2.334,0,0,0,.173-3.3A2.332,2.332,0,0,0,.358-2.1,2.332,2.332,0,0,0,.184,1.2Z" transform="translate(0.415 2.696)" fill="none" stroke="#053972" stroke-width="0.814"/>
        </g>
      </g>
      <g id="Group_3046" data-name="Group 3046" transform="translate(51.524 -34.757)">
        <path id="Path_3741" data-name="Path 3741" d="M0,1.509,5.449-3.4" transform="translate(0 3.397)" fill="none" stroke="#053972" stroke-width="0.814"/>
      </g>
      <g id="Group_3048" data-name="Group 3048" transform="translate(0 -49.346)" clip-path="url(#clip-path)">
        <g id="Group_3047" data-name="Group 3047" transform="translate(10.488 56.329)">
          <path id="Path_3742" data-name="Path 3742" d="M1.216.2a2.332,2.332,0,0,0-3.3.058,2.332,2.332,0,0,0,.058,3.3,2.332,2.332,0,0,0,3.3-.058A2.332,2.332,0,0,0,1.216.2Z" transform="translate(2.737 0.454)" fill="none" stroke="#053972" stroke-width="0.814"/>
        </g>
      </g>
      <g id="Group_3049" data-name="Group 3049" transform="translate(14.329 2.719)">
        <path id="Path_3744" data-name="Path 3744" d="M1.567,0-3.527,5.275" transform="translate(3.527)" fill="none" stroke="#053972" stroke-width="0.814"/>
      </g>
      <g id="Group_3051" data-name="Group 3051" transform="translate(0 -49.346)" clip-path="url(#clip-path)">
        <g id="Group_3050" data-name="Group 3050" transform="translate(10.92 10.908)">
          <path id="Path_3745" data-name="Path 3745" d="M1.226,1.225a2.334,2.334,0,0,0,0-3.3,2.335,2.335,0,0,0-3.3,0,2.334,2.334,0,0,0,0,3.3A2.334,2.334,0,0,0,1.226,1.225Z" transform="translate(2.758 2.758)" fill="none" stroke="#053972" stroke-width="0.814"/>
        </g>
      </g>
      <g id="Group_3052" data-name="Group 3052" transform="translate(14.55 -34.572)">
        <path id="Path_3747" data-name="Path 3747" d="M1.6,1.6-3.59-3.59" transform="translate(3.59 3.59)" fill="none" stroke="#053972" stroke-width="0.814"/>
      </g>
      <g id="Group_3054" data-name="Group 3054" transform="translate(0 -49.346)" clip-path="url(#clip-path)">
        <g id="Group_3053" data-name="Group 3053" transform="translate(55.494 56.184)">
          <path id="Path_3748" data-name="Path 3748" d="M.21.21a2.334,2.334,0,1,0,3.3,0A2.334,2.334,0,0,0,.21.21Z" transform="translate(0.473 0.473)" fill="none" stroke="#053972" stroke-width="0.814"/>
        </g>
      </g>
      <g id="Group_3055" data-name="Group 3055" transform="translate(51.346 2.454)">
        <path id="Path_3750" data-name="Path 3750" d="M0,0,5.185,5.185" fill="none" stroke="#053972" stroke-width="0.814"/>
      </g>
    </g>
  </g>
</svg>
