<svg xmlns="http://www.w3.org/2000/svg" xmlns:xlink="http://www.w3.org/1999/xlink" width="149.377" height="196.006" viewBox="0 0 149.377 196.006">
  <defs>
    <clipPath id="clip-path">
      <path id="Path_3752" data-name="Path 3752" d="M0,19.452H68.349V-40.989H0Z" transform="translate(0 40.989)" fill="none"/>
    </clipPath>
  </defs>
  <g id="Group_3513" data-name="Group 3513" transform="translate(-1022.796 -3236.669)">
    <g id="Group_3438" data-name="Group 3438" transform="translate(321.605 -1421.974)">
      <path id="Path_3578" data-name="Path 3578" d="M3.953,2.354A.852.852,0,0,0,4.2,1.74a.876.876,0,0,0-.257-.616L.767-2.041A.865.865,0,0,0,.152-2.3a.864.864,0,0,0-.614.253L-3.6,1.114a.869.869,0,0,0-.251.614.869.869,0,0,0,.259.616L-.419,5.509A.873.873,0,0,0,.2,5.764.857.857,0,0,0,.81,5.509Z" transform="translate(780.323 4850.445) rotate(90)" fill="#9a9b9f"/>
      <g id="Group_3023" data-name="Group 3023">
        <path id="Path_3577" data-name="Path 3577" d="M11.292,6.723a2.45,2.45,0,0,0,.717-1.756,2.486,2.486,0,0,0-.737-1.758L2.191-5.83a2.474,2.474,0,0,0-1.76-.729,2.447,2.447,0,0,0-1.754.723L-10.3,3.181a2.45,2.45,0,0,0-.717,1.756,2.482,2.482,0,0,0,.737,1.758l9.08,9.042a2.491,2.491,0,0,0,1.76.729,2.454,2.454,0,0,0,1.754-.725Z" transform="translate(782.83 4827.637) rotate(90)" fill="#fda730"/>
        <path id="Path_3580" data-name="Path 3580" d="M71.767,42.625a15.808,15.808,0,0,0-.049-22.338L14.195-36.984a15.683,15.683,0,0,0-11.178-4.6,15.68,15.68,0,0,0-11.16,4.647L-65.416,20.584a15.681,15.681,0,0,0-4.6,11.182,15.682,15.682,0,0,0,4.647,11.158L-7.844,100.2a15.689,15.689,0,0,0,11.18,4.6,15.683,15.683,0,0,0,11.16-4.647ZM3.15,83.18a11.105,11.105,0,0,1-7.922-3.256l-40.75-40.57a11.12,11.12,0,0,1-3.291-7.906,11.109,11.109,0,0,1,3.256-7.92L-4.985-17.22a11.113,11.113,0,0,1,7.908-3.295,11.106,11.106,0,0,1,7.914,3.258L51.591,23.316a11.2,11.2,0,0,1,.034,15.824L11.054,79.89a11.119,11.119,0,0,1-7.9,3.291" transform="translate(807.484 4730.156) rotate(90)" fill="none" stroke="#053972" stroke-width="3"/>
        <path id="Path_3581" data-name="Path 3581" d="M57.281,34.107A12.434,12.434,0,0,0,60.918,25.2a12.6,12.6,0,0,0-3.738-8.916L11.122-29.574a12.608,12.608,0,0,0-8.932-3.7A12.419,12.419,0,0,0-6.7-29.6L-52.242,16.141a12.441,12.441,0,0,0-3.639,8.91,12.6,12.6,0,0,0,3.74,8.916L-6.083,79.825a12.612,12.612,0,0,0,8.935,3.7,12.423,12.423,0,0,0,8.89-3.68Z" transform="translate(802.385 4730.673) rotate(90)" fill="#fff"/>
      </g>
    </g>
    <g id="Group_3060" data-name="Group 3060" transform="translate(1064.31 3320.919)">
      <g id="Group_3059" data-name="Group 3059" transform="translate(0 -40.989)" clip-path="url(#clip-path)">
        <g id="Group_3058" data-name="Group 3058" transform="translate(2.149 1.106)">
          <path id="Path_3751" data-name="Path 3751" d="M9.388,18.691c-.917-.093-1.823-.23-2.713-.406m-3.2-.826A28.565,28.565,0,0,1,.691,16.406m-3-1.528A29.407,29.407,0,0,1-5.225,12.93m17.59,5.912A29.012,29.012,0,0,0,41.358-10.273v-1.455H44.27L36.991-21.918,31.168-11.729h2.911v1.455A21.622,21.622,0,0,1,12.5,11.563,21.825,21.825,0,0,1-5.979,1.371m21.2-40.608q1.376.142,2.713.406m3.2.826a28.189,28.189,0,0,1,2.785,1.054m3,1.526a29.229,29.229,0,0,1,2.914,1.949M12.244-39.387A29.113,29.113,0,0,0-16.87-10.273v1.457h-2.912L-12.5,1.373-6.681-8.816H-9.591v-1.457A21.836,21.836,0,0,1,12.244-32.109,21.813,21.813,0,0,1,30.719-21.916M23.89,1.373V-1.6c0-4.014-7.78-5.823-11.646-5.823S.6-5.614.6-1.6V1.373M12.244-7.361A5.966,5.966,0,0,0,18.067-13.6v-2.082a5.966,5.966,0,0,0-5.823-6.237,5.966,5.966,0,0,0-5.823,6.237V-13.6A5.966,5.966,0,0,0,12.244-7.361Z" transform="translate(19.782 39.387)" fill="none" stroke="#053972" stroke-width="1.5"/>
        </g>
      </g>
    </g>
  </g>
</svg>
