<svg xmlns="http://www.w3.org/2000/svg" xmlns:xlink="http://www.w3.org/1999/xlink" width="221.725" height="149.377" viewBox="0 0 221.725 149.377">
  <defs>
    <clipPath id="clip-path">
      <rect id="Rectangle_1288" data-name="Rectangle 1288" width="86.807" height="86.756" fill="none" stroke="#053972" stroke-width="2"/>
    </clipPath>
  </defs>
  <g id="Group_3527" data-name="Group 3527" transform="translate(-252.123 -2167.5)">
    <path id="Path_3580" data-name="Path 3580" d="M71.767,42.625a15.808,15.808,0,0,0-.049-22.338L14.195-36.984a15.683,15.683,0,0,0-11.178-4.6,15.68,15.68,0,0,0-11.16,4.647L-65.416,20.584a15.681,15.681,0,0,0-4.6,11.182,15.682,15.682,0,0,0,4.647,11.158L-7.844,100.2a15.689,15.689,0,0,0,11.18,4.6,15.683,15.683,0,0,0,11.16-4.647Z" transform="translate(358.417 2239.013) rotate(90)" fill="none" stroke="#053972" stroke-width="3"/>
    <g id="Group_3499" data-name="Group 3499" transform="matrix(0.695, -0.719, 0.719, 0.695, 264.621, 2240.511)">
      <g id="Group_3498" data-name="Group 3498" clip-path="url(#clip-path)">
        <path id="Path_4754" data-name="Path 4754" d="M45.224,58.073a9.1,9.1,0,0,1,.083,1.224,8.975,8.975,0,1,1-7.548-8.87m16.395-.662a20.2,20.2,0,1,1-8.2-8.243M63.817,46.5a30.3,30.3,0,1,1-14.64-14.669m31.241,1-17.615.04.04-17.615m9.171,8.4.04-17.615L72.014,6,54.359,23.655l.04.041-.04,17.615,17.615-.04.041.04L89.67,23.655l-.04-.04ZM36.7,58.966,54.359,41.311" transform="translate(-4.431 -4.431)" fill="none" stroke="#053972" stroke-linecap="round" stroke-linejoin="round" stroke-width="2"/>
      </g>
    </g>
    <g id="Group_3502" data-name="Group 3502" transform="translate(420.816 2225.083)">
      <path id="Path_3577" data-name="Path 3577" d="M11.292,6.723a2.45,2.45,0,0,0,.717-1.756,2.486,2.486,0,0,0-.737-1.758L2.191-5.83a2.474,2.474,0,0,0-1.76-.729,2.447,2.447,0,0,0-1.754.723L-10.3,3.181a2.45,2.45,0,0,0-.717,1.756,2.482,2.482,0,0,0,.737,1.758l9.08,9.042a2.491,2.491,0,0,0,1.76.729,2.454,2.454,0,0,0,1.754-.725Z" transform="translate(11.016 6.559)" fill="#fda730"/>
    </g>
    <g id="Group_3503" data-name="Group 3503" transform="translate(450.785 2231.853)">
      <path id="Path_3578" data-name="Path 3578" d="M3.953,2.354A.852.852,0,0,0,4.2,1.74a.876.876,0,0,0-.257-.616L.767-2.041A.865.865,0,0,0,.152-2.3a.864.864,0,0,0-.614.253L-3.6,1.114a.869.869,0,0,0-.251.614.869.869,0,0,0,.259.616L-.419,5.509A.873.873,0,0,0,.2,5.764.857.857,0,0,0,.81,5.509Z" transform="translate(3.856 2.296)" fill="#9a9b9f"/>
    </g>
    <g id="Group_3504" data-name="Group 3504" transform="translate(465.789 2231.853)">
      <path id="Path_3579" data-name="Path 3579" d="M3.953,2.354A.852.852,0,0,0,4.2,1.74a.876.876,0,0,0-.257-.616L.767-2.041A.865.865,0,0,0,.152-2.3a.864.864,0,0,0-.614.253L-3.6,1.114a.869.869,0,0,0-.251.614.869.869,0,0,0,.259.616L-.419,5.509A.873.873,0,0,0,.2,5.764.857.857,0,0,0,.81,5.509Z" transform="translate(3.856 2.296)" fill="#9a9b9f"/>
    </g>
  </g>
</svg>
