<svg xmlns="http://www.w3.org/2000/svg" xmlns:xlink="http://www.w3.org/1999/xlink" width="220.909" height="149.377" viewBox="0 0 220.909 149.377">
  <defs>
    <clipPath id="clip-path">
      <rect id="Rectangle_1289" data-name="Rectangle 1289" width="78.415" height="86.344" fill="#053972" stroke="#fff" stroke-width="4"/>
    </clipPath>
  </defs>
  <g id="Group_3526" data-name="Group 3526" transform="translate(-252.123 -2368.114)">
    <g id="Group_3524" data-name="Group 3524">
      <path id="Path_3580" data-name="Path 3580" d="M71.767,42.625a15.808,15.808,0,0,0-.049-22.338L14.195-36.984a15.683,15.683,0,0,0-11.178-4.6,15.68,15.68,0,0,0-11.16,4.647L-65.416,20.584a15.681,15.681,0,0,0-4.6,11.182,15.682,15.682,0,0,0,4.647,11.158L-7.844,100.2a15.689,15.689,0,0,0,11.18,4.6,15.683,15.683,0,0,0,11.16-4.647ZM3.15,83.18a11.105,11.105,0,0,1-7.922-3.256l-40.75-40.57a11.12,11.12,0,0,1-3.291-7.906,11.109,11.109,0,0,1,3.256-7.92L-4.985-17.22a11.113,11.113,0,0,1,7.908-3.295,11.106,11.106,0,0,1,7.914,3.258L51.591,23.316a11.2,11.2,0,0,1,.034,15.824L11.054,79.89a11.119,11.119,0,0,1-7.9,3.291" transform="translate(358.417 2439.627) rotate(90)" fill="none" stroke="#053972" stroke-width="3"/>
      <path id="Path_3581" data-name="Path 3581" d="M57.281,34.107A12.434,12.434,0,0,0,60.918,25.2a12.6,12.6,0,0,0-3.738-8.916L11.122-29.574a12.608,12.608,0,0,0-8.932-3.7A12.419,12.419,0,0,0-6.7-29.6L-52.242,16.141a12.441,12.441,0,0,0-3.639,8.91,12.6,12.6,0,0,0,3.74,8.916L-6.083,79.825a12.612,12.612,0,0,0,8.935,3.7,12.423,12.423,0,0,0,8.89-3.68Z" transform="translate(350.317 2440.144) rotate(90)" fill="#fff"/>
    </g>
    <g id="Group_3501" data-name="Group 3501" transform="translate(287.416 2394.703)">
      <g id="Group_3500" data-name="Group 3500" clip-path="url(#clip-path)">
        <path id="Path_4755" data-name="Path 4755" d="M55.476,112.175l5.09-5.09A3.6,3.6,0,1,0,55.476,102l-5.09,5.09L45.3,102a3.6,3.6,0,1,0-5.089,5.089l5.09,5.09-5.09,5.09a3.6,3.6,0,1,0,5.089,5.089l5.09-5.09,5.09,5.09a3.6,3.6,0,1,0,5.089-5.089Zm-42.279,3.6a6,6,0,1,1,6-6,6,6,0,0,1-6,6M44.122,83.337a13.109,13.109,0,0,0,3.866-9.33V57.762h-7.2V74.007a6.046,6.046,0,0,1-1.757,4.241l-19.8,19.8a13.265,13.265,0,1,0,5.256,4.923Zm-39.9-1.771a3.6,3.6,0,0,0,5.089,0l5.09-5.09,5.09,5.09a3.6,3.6,0,0,0,5.089-5.089l-5.09-5.09,5.09-5.091a3.6,3.6,0,0,0-5.089-5.089L14.4,66.3l-5.09-5.09A3.6,3.6,0,0,0,4.217,66.3l5.09,5.091-5.09,5.09a3.6,3.6,0,0,0,0,5.089" transform="translate(0 -37.065)" fill="#053972" stroke="#fff" stroke-width="4"/>
        <path id="Path_4756" data-name="Path 4756" d="M132.429,39.119l5.09-5.09a3.6,3.6,0,0,0-5.089-5.089l-5.09,5.09-5.09-5.09a3.6,3.6,0,0,0-5.089,5.089l5.09,5.09-5.09,5.091A3.6,3.6,0,1,0,122.25,49.3l5.09-5.09,5.09,5.09a3.6,3.6,0,0,0,5.089-5.089ZM106.622.916a2.682,2.682,0,0,0-4.036,0l-8.168,9.335A2.682,2.682,0,0,0,96.436,14.7h16.337a2.681,2.681,0,0,0,2.018-4.447Z" transform="translate(-60.158)" fill="#053972" stroke="#fff" stroke-width="4"/>
      </g>
    </g>
    <g id="Group_3505" data-name="Group 3505" transform="translate(420 2423.319)">
      <path id="Path_3577" data-name="Path 3577" d="M11.292,6.723a2.45,2.45,0,0,0,.717-1.756,2.486,2.486,0,0,0-.737-1.758L2.191-5.83a2.474,2.474,0,0,0-1.76-.729,2.447,2.447,0,0,0-1.754.723L-10.3,3.181a2.45,2.45,0,0,0-.717,1.756,2.482,2.482,0,0,0,.737,1.758l9.08,9.042a2.491,2.491,0,0,0,1.76.729,2.454,2.454,0,0,0,1.754-.725Z" transform="translate(11.016 6.559)" fill="#fda730"/>
    </g>
    <g id="Group_3506" data-name="Group 3506" transform="translate(449.969 2430.088)">
      <path id="Path_3578" data-name="Path 3578" d="M3.953,2.354A.852.852,0,0,0,4.2,1.74a.876.876,0,0,0-.257-.616L.767-2.041A.865.865,0,0,0,.152-2.3a.864.864,0,0,0-.614.253L-3.6,1.114a.869.869,0,0,0-.251.614.869.869,0,0,0,.259.616L-.419,5.509A.873.873,0,0,0,.2,5.764.857.857,0,0,0,.81,5.509Z" transform="translate(3.856 2.296)" fill="#9a9b9f"/>
    </g>
    <g id="Group_3507" data-name="Group 3507" transform="translate(464.973 2430.088)">
      <path id="Path_3579" data-name="Path 3579" d="M3.953,2.354A.852.852,0,0,0,4.2,1.74a.876.876,0,0,0-.257-.616L.767-2.041A.865.865,0,0,0,.152-2.3a.864.864,0,0,0-.614.253L-3.6,1.114a.869.869,0,0,0-.251.614.869.869,0,0,0,.259.616L-.419,5.509A.873.873,0,0,0,.2,5.764.857.857,0,0,0,.81,5.509Z" transform="translate(3.856 2.296)" fill="#9a9b9f"/>
    </g>
  </g>
</svg>
