<svg xmlns="http://www.w3.org/2000/svg" xmlns:xlink="http://www.w3.org/1999/xlink" width="221.725" height="149.377" viewBox="0 0 221.725 149.377">
  <defs>
    <clipPath id="clip-path">
      <rect id="Rectangle_1287" data-name="Rectangle 1287" width="76" height="76" transform="translate(0.313 0.313)" fill="#053972"/>
    </clipPath>
  </defs>
  <g id="Group_3525" data-name="Group 3525" transform="translate(-252.123 -2548.713)">
    <g id="Group_3023" data-name="Group 3023" transform="translate(-452.067 -2109.931)">
      <path id="Path_3580" data-name="Path 3580" d="M71.767,42.625a15.808,15.808,0,0,0-.049-22.338L14.195-36.984a15.683,15.683,0,0,0-11.178-4.6,15.68,15.68,0,0,0-11.16,4.647L-65.416,20.584a15.681,15.681,0,0,0-4.6,11.182,15.682,15.682,0,0,0,4.647,11.158L-7.844,100.2a15.689,15.689,0,0,0,11.18,4.6,15.683,15.683,0,0,0,11.16-4.647ZM3.15,83.18a11.105,11.105,0,0,1-7.922-3.256l-40.75-40.57a11.12,11.12,0,0,1-3.291-7.906,11.109,11.109,0,0,1,3.256-7.92L-4.985-17.22a11.113,11.113,0,0,1,7.908-3.295,11.106,11.106,0,0,1,7.914,3.258L51.591,23.316a11.2,11.2,0,0,1,.034,15.824L11.054,79.89a11.119,11.119,0,0,1-7.9,3.291" transform="translate(810.484 4730.156) rotate(90)" fill="none" stroke="#053972" stroke-width="3"/>
      <path id="Path_3581" data-name="Path 3581" d="M57.281,34.107A12.434,12.434,0,0,0,60.918,25.2a12.6,12.6,0,0,0-3.738-8.916L11.122-29.574a12.608,12.608,0,0,0-8.932-3.7A12.419,12.419,0,0,0-6.7-29.6L-52.242,16.141a12.441,12.441,0,0,0-3.639,8.91,12.6,12.6,0,0,0,3.74,8.916L-6.083,79.825a12.612,12.612,0,0,0,8.935,3.7,12.423,12.423,0,0,0,8.89-3.68Z" transform="translate(802.385 4730.673) rotate(90)" fill="#fff"/>
    </g>
    <g id="Group_3497" data-name="Group 3497" transform="matrix(0.719, 0.695, -0.695, 0.719, 323.671, 2565.793)">
      <g id="Group_3496" data-name="Group 3496" transform="translate(0.273 0.273)" clip-path="url(#clip-path)">
        <path id="Path_4751" data-name="Path 4751" d="M38.858,16A22.858,22.858,0,1,0,61.717,38.858,22.858,22.858,0,0,0,38.858,16m0,43.31A20.452,20.452,0,1,1,59.31,38.858,20.475,20.475,0,0,1,38.858,59.31" transform="translate(-11.373 -11.373)" fill="#053972"/>
        <path id="Path_4752" data-name="Path 4752" d="M50.046,32A18.066,18.066,0,0,0,32,50.046a1.2,1.2,0,1,0,2.406,0,15.658,15.658,0,0,1,15.64-15.64,1.2,1.2,0,1,0,0-2.406" transform="translate(-22.561 -22.561)" fill="#053972"/>
        <path id="Path_4753" data-name="Path 4753" d="M75.234,66.727,62,53.494a6,6,0,0,0-4.253-1.762,6.073,6.073,0,0,0-.845.066l-7.281-7.281a27.672,27.672,0,1,0-5.1,5.1L51.8,56.9a6,6,0,0,0,1.7,5.1L66.727,75.234a6.015,6.015,0,0,0,8.507-8.507M27.671,52.935A25.264,25.264,0,1,1,52.935,27.671,25.293,25.293,0,0,1,27.671,52.935M52.728,54.43l-6.362-6.362q.887-.813,1.7-1.7l6.362,6.362a6.062,6.062,0,0,0-1.7,1.7m20.8,19.1a3.609,3.609,0,0,1-5.1,0L55.2,60.3a3.609,3.609,0,1,1,5.1-5.1L73.533,68.429a3.613,3.613,0,0,1,0,5.1" transform="translate(-0.186 -0.186)" fill="#053972"/>
      </g>
    </g>
    <g id="Group_3508" data-name="Group 3508" transform="translate(420.816 2608.841)">
      <path id="Path_3577" data-name="Path 3577" d="M11.292,6.723a2.45,2.45,0,0,0,.717-1.756,2.486,2.486,0,0,0-.737-1.758L2.191-5.83a2.474,2.474,0,0,0-1.76-.729,2.447,2.447,0,0,0-1.754.723L-10.3,3.181a2.45,2.45,0,0,0-.717,1.756,2.482,2.482,0,0,0,.737,1.758l9.08,9.042a2.491,2.491,0,0,0,1.76.729,2.454,2.454,0,0,0,1.754-.725Z" transform="translate(11.016 6.559)" fill="#fda730"/>
    </g>
    <g id="Group_3509" data-name="Group 3509" transform="translate(450.785 2615.611)">
      <path id="Path_3578" data-name="Path 3578" d="M3.953,2.354A.852.852,0,0,0,4.2,1.74a.876.876,0,0,0-.257-.616L.767-2.041A.865.865,0,0,0,.152-2.3a.864.864,0,0,0-.614.253L-3.6,1.114a.869.869,0,0,0-.251.614.869.869,0,0,0,.259.616L-.419,5.509A.873.873,0,0,0,.2,5.764.857.857,0,0,0,.81,5.509Z" transform="translate(3.856 2.296)" fill="#9a9b9f"/>
    </g>
    <g id="Group_3510" data-name="Group 3510" transform="translate(465.789 2615.611)">
      <path id="Path_3579" data-name="Path 3579" d="M3.953,2.354A.852.852,0,0,0,4.2,1.74a.876.876,0,0,0-.257-.616L.767-2.041A.865.865,0,0,0,.152-2.3a.864.864,0,0,0-.614.253L-3.6,1.114a.869.869,0,0,0-.251.614.869.869,0,0,0,.259.616L-.419,5.509A.873.873,0,0,0,.2,5.764.857.857,0,0,0,.81,5.509Z" transform="translate(3.856 2.296)" fill="#9a9b9f"/>
    </g>
  </g>
</svg>
