<svg xmlns="http://www.w3.org/2000/svg" xmlns:xlink="http://www.w3.org/1999/xlink" width="454.392" height="97.665" viewBox="0 0 454.392 97.665">
  <defs>
    <clipPath id="clip-path">
      <path id="Path_2576" data-name="Path 2576" d="M.186,43.146H454.241V-53.991H.186Z" transform="translate(-0.186 53.991)" fill="none"/>
    </clipPath>
    <clipPath id="clip-path-2">
      <path id="Path_2582" data-name="Path 2582" d="M0,43.673H454.391V-53.99H0Z" transform="translate(0 53.99)" fill="none"/>
    </clipPath>
    <clipPath id="clip-path-3">
      <path id="Path_2585" data-name="Path 2585" d="M0,43.438H454.055V-53.7H0Z" transform="translate(0 53.699)" fill="none"/>
    </clipPath>
  </defs>
  <g id="Group_3429" data-name="Group 3429" transform="translate(0 53.991)">
    <g id="Group_2121" data-name="Group 2121" transform="translate(0.336 -53.991)" clip-path="url(#clip-path)">
      <g id="Group_2120" data-name="Group 2120" transform="translate(0.001 27.591)">
        <path id="Path_2575" data-name="Path 2575" d="M15.758,0C34.921,0,51,14.527,51,34.722S34.921,69.444,15.758,69.444-19.48,54.917-19.48,34.722-3.408,0,15.758,0m0,60.172c14.424,0,25.14-9.994,25.14-25.45S30.182,9.376,15.758,9.376-9.488,19.267-9.488,34.722s10.819,25.45,25.245,25.45" transform="translate(19.48)" fill="#fda730"/>
      </g>
    </g>
    <g id="Group_2127" data-name="Group 2127" transform="translate(0 -53.989)" clip-path="url(#clip-path-2)">
      <g id="Group_2122" data-name="Group 2122" transform="translate(78.554 28.723)">
        <path id="Path_2577" data-name="Path 2577" d="M15.02,16.632C5.335,21.27-3.422,19.573-6.1,20.709c-1.131.514-1.852,1.029-1.852,2.267,0,6.489.411,19.724.411,21.475a2.2,2.2,0,0,1-2.473,2.371H-16.1a2.2,2.2,0,0,1-2.473-2.371c0-1.751.825-12.673.825-30.189,0-18.65-.825-27.4-.825-32.455A2.2,2.2,0,0,1-16.1-20.561h23.9c14.529,0,23.8,3.706,23.8,16.588,0,9.169-7.625,16.278-16.59,20.605M-6.237,11.345S5.2,12.985,11.686,9.275s9.723-7.994,9.723-13.456c0-4.946-5.049-8.241-11.85-8.241H-6.1a1.639,1.639,0,0,0-1.852,1.854V9.054c0,1.132.476,2.162,1.718,2.29" transform="translate(18.568 20.561)" fill="#053972"/>
      </g>
      <g id="Group_2123" data-name="Group 2123" transform="translate(134.915 27.589)">
        <path id="Path_2578" data-name="Path 2578" d="M10.873,3.87c-7.52,0-12.879,3.4-12.879,8.963,0,14.632,39.358,7.214,39.358,29.469,0,14.526-10.716,22.459-26.066,22.459-11.438,0-18.341-3.81-22.051-5.047-1.235-.412-2.677-1.031-2.677-2.576,0-2.062.928-6.6.928-10.922,0-1.648.72-2.473,1.749-2.473s1.959,1.444,3.3,3.4a23.968,23.968,0,0,0,18.65,9.376c9.171,0,15.765-4.329,15.868-11.539C27.154,28.8-12.1,36.532-12.1,13.142c0-9.992,9.376-17.926,23.387-17.926A120.708,120.708,0,0,1,30.14-3.65,2.1,2.1,0,0,1,32.1-1.385c0,3.4,1.031,7.008,1.031,10.1,0,.825-.412,1.444-1.235,1.444-2.782,0-4.946-6.286-21.02-6.286" transform="translate(13.442 4.784)" fill="#053972"/>
      </g>
      <g id="Group_2124" data-name="Group 2124" transform="translate(192.307 59.46)">
        <path id="Path_2579" data-name="Path 2579" d="M1.06,3.271A2.2,2.2,0,0,1-1.31.8V-1.573A2.2,2.2,0,0,1,1.06-4.044H23.418a2.2,2.2,0,0,1,2.37,2.471V.8a2.2,2.2,0,0,1-2.37,2.473Z" transform="translate(1.31 4.044)" fill="#053972"/>
      </g>
      <g id="Group_2125" data-name="Group 2125" transform="translate(228.679 28.721)">
        <path id="Path_2580" data-name="Path 2580" d="M.369,15.573c0-18.648-.825-27.407-.825-32.455a2.2,2.2,0,0,1,2.471-2.37H25.922c14.527,0,21.121,4.638,21.121,13.807A15.574,15.574,0,0,1,41.171,7.021a1.064,1.064,0,0,0-.516.724c0,.206.1.309.722.617,4.43,1.957,13.393,6.9,13.393,17.413,0,12.158-8.449,22.358-24.212,22.358H2.015a2.2,2.2,0,0,1-2.471-2.37c0-3.813.825-12.671.825-30.189M12.234,6.99s10.94,1.3,18.049-2.312c6.7-3.4,7.178-6,7.178-9.506,0-4.121-3.3-6.284-10.407-6.284H12.011a1.64,1.64,0,0,0-1.854,1.856V5.212c0,1.134.874,1.465,2.077,1.778m-.532,33H28.393c8.656,0,16.693-3.4,16.693-13.187,0-8.346-5.77-13.612-12.983-13.612-4.123,0-15.146.058-20.092,2.221-1.134.514-1.854.926-1.854,2.162V38.344A1.441,1.441,0,0,0,11.7,39.992" transform="translate(0.456 19.252)" fill="#053972"/>
      </g>
      <g id="Group_2126" data-name="Group 2126" transform="translate(362.742 28.722)">
        <path id="Path_2581" data-name="Path 2581" d="M10.782,15.158A2.308,2.308,0,0,0,11.4,13.82a2.04,2.04,0,0,0-.619-1.237C1.819.115-4.57-8.126-10.65-15.957a3.947,3.947,0,0,1-.619-1.65c0-.72.516-1.132,1.444-1.132H-.759c1.751,0,2.06.72,2.784,1.854,3.5,5.874,7.932,12.467,14.218,21.533.309.412.514.722.928.722s.617-.309.924-.722c6.279-9.209,10.584-15.441,14.22-21.533.722-1.134,1.031-1.854,2.782-1.854h9.068c.926,0,1.442.412,1.442,1.132a3.947,3.947,0,0,1-.619,1.65C38.911-8.126,32.521.012,23.558,12.479a2.3,2.3,0,0,0-.62,1.34,1.9,1.9,0,0,0,.517,1.235c9.462,13.52,17.04,22.984,23.594,30.808a3.92,3.92,0,0,1,.619,1.648c0,.722-.516,1.134-1.442,1.134H37.158c-1.753,0-2.163-.825-2.782-1.854-4.5-7.3-9.475-14.312-16.381-24.113-.309-.411-.516-.512-.823-.512a.916.916,0,0,0-.825.512C8.617,33.5,3.673,40.608-.037,46.791c-.619,1.029-1.029,1.854-2.782,1.854h-9.066c-.928,0-1.444-.412-1.444-1.134a3.92,3.92,0,0,1,.619-1.648C-6.323,38.238,1.3,28.45,10.782,15.158" transform="translate(13.329 18.739)" fill="#053972"/>
      </g>
    </g>
    <g id="Group_2130" data-name="Group 2130" transform="translate(0 -53.463)" clip-path="url(#clip-path-3)">
      <g id="Group_2128" data-name="Group 2128" transform="translate(290.899 29.031)">
        <path id="Path_2583" data-name="Path 2583" d="M29.811,4.167a9.344,9.344,0,0,0-9.357-9.318l-47.989.107a9.272,9.272,0,0,0-6.6,2.75,9.277,9.277,0,0,0-2.722,6.608l.1,47.987A9.264,9.264,0,0,0-34,58.9a9.266,9.266,0,0,0,6.608,2.722l47.987-.1a9.344,9.344,0,0,0,9.318-9.359ZM18.08,49.806a6.568,6.568,0,0,1-4.672,1.948l-33.995.076a6.578,6.578,0,0,1-4.68-1.928,6.573,6.573,0,0,1-1.95-4.672l-.074-33.995a6.579,6.579,0,0,1,1.928-4.683A6.579,6.579,0,0,1-20.692,4.6l34-.076a6.621,6.621,0,0,1,6.63,6.6l.074,33.995a6.572,6.572,0,0,1-1.928,4.681" transform="translate(36.853 5.151)" fill="#fda730"/>
      </g>
      <g id="Group_2129" data-name="Group 2129" transform="translate(427.333 0.002)">
        <path id="Path_2584" data-name="Path 2584" d="M11.95,10.255,11.908-8.95a3.723,3.723,0,0,0-1.1-2.639,3.7,3.7,0,0,0-2.645-1.089l-19.205.042a3.708,3.708,0,0,0-2.639,1.1A3.71,3.71,0,0,0-14.773-8.89l.043,19.2a3.709,3.709,0,0,0,1.1,2.641,3.716,3.716,0,0,0,2.645,1.089L8.222,14a3.74,3.74,0,0,0,3.728-3.746" transform="translate(14.773 12.678)" fill="#fda730"/>
      </g>
    </g>
  </g>
</svg>
