<?xml version="1.0" encoding="UTF-8"?>
<!DOCTYPE svg PUBLIC "-//W3C//DTD SVG 1.1//EN" "http://www.w3.org/Graphics/SVG/1.1/DTD/svg11.dtd">
<svg xmlns="http://www.w3.org/2000/svg" version="1.1" width="66px" height="66px" style="shape-rendering:geometricPrecision; text-rendering:geometricPrecision; image-rendering:optimizeQuality; fill-rule:evenodd; clip-rule:evenodd" xmlns:xlink="http://www.w3.org/1999/xlink">
<g><path style="opacity:1" fill="#2f4774" d="M -0.5,-0.5 C 21.5,-0.5 43.5,-0.5 65.5,-0.5C 65.5,21.5 65.5,43.5 65.5,65.5C 43.5,65.5 21.5,65.5 -0.5,65.5C -0.5,43.5 -0.5,21.5 -0.5,-0.5 Z"/></g>
<g><path style="opacity:1" fill="#e9aa11" d="M 8.5,1.5 C 24.5035,1.33341 40.5035,1.50007 56.5,2C 58.0806,2.70653 59.5806,3.53986 61,4.5C 62.6387,22.0757 62.972,39.7424 62,57.5C 61.5348,58.9308 60.7014,60.0975 59.5,61C 42.2579,62.6381 24.9245,62.9715 7.5,62C 6.06919,61.5348 4.90252,60.7014 4,59.5C 2.36131,41.9243 2.02797,24.2576 3,6.5C 4.40552,4.25633 6.23885,2.58966 8.5,1.5 Z"/></g>
<g><path style="opacity:1" fill="#0b396f" d="M 14.5,10.5 C 26.5046,10.3335 38.5046,10.5001 50.5,11C 51.3333,11.8333 52.1667,12.6667 53,13.5C 53.6667,25.8333 53.6667,38.1667 53,50.5C 52.1667,51.3333 51.3333,52.1667 50.5,53C 38.5,53.6667 26.5,53.6667 14.5,53C 13,52.1667 11.8333,51 11,49.5C 10.3333,37.8333 10.3333,26.1667 11,14.5C 12.3756,13.2949 13.5423,11.9616 14.5,10.5 Z"/></g>
</svg>
