<svg xmlns="http://www.w3.org/2000/svg" width="362.296" height="362.296" viewBox="0 0 362.296 362.296">
  <g id="Group_3525" data-name="Group 3525" transform="translate(-1178.141 -334.479)" opacity="0.15">
    <g id="Group_2753" data-name="Group 2753" transform="translate(1178.141 334.479)">
      <path id="Path_3509" data-name="Path 3509" d="M674.757,616.633a27.5,27.5,0,0,1-19.6-8.061L554.29,508.156a27.725,27.725,0,0,1-.086-39.166L654.625,368.132a27.695,27.695,0,0,1,39.161-.091L794.654,468.462a27.713,27.713,0,0,1,.086,39.166L694.319,608.486a27.526,27.526,0,0,1-19.562,8.147M844.591,516.252a39.129,39.129,0,0,0-.119-55.288L702.093,319.212a39.114,39.114,0,0,0-55.288.122L505.053,461.7a39.117,39.117,0,0,0,.124,55.293L647.548,658.747a39.12,39.12,0,0,0,55.293-.127Z" transform="translate(-493.671 -307.83)" fill="#bebcd0"/>
    </g>
    <path id="Path_3510" data-name="Path 3510" d="M788.061,487.7a30.779,30.779,0,0,0,9-22.048,31.212,31.212,0,0,0-9.25-22.069l-114-113.5a31.177,31.177,0,0,0-22.107-9.156,30.762,30.762,0,0,0-22.01,9.1L516.982,443.23a30.779,30.779,0,0,0-9,22.051,31.194,31.194,0,0,0,9.257,22.069l113.993,113.5a31.227,31.227,0,0,0,22.114,9.159,30.76,30.76,0,0,0,22.005-9.105Z" transform="translate(706.429 46.746)" fill="#fff"/>
    <g id="Group_2563" data-name="Group 2563" transform="translate(1269.941 420.936)">
      <g id="Group_2538" data-name="Group 2538" transform="translate(42.178 42.565)">
        <g id="Group_2537" data-name="Group 2537">
          <path id="Path_3175" data-name="Path 3175" d="M592,449.67a45.47,45.47,0,0,0,45.47-45.47h0A45.47,45.47,0,1,0,592,449.67Z" transform="translate(-546.525 -358.729)" fill="none" stroke="#8585a9" stroke-miterlimit="10" stroke-width="2"/>
        </g>
      </g>
      <g id="_" data-name=" " transform="translate(72.764 51.036)" style="isolation: isolate">
        <text id="_2" data-name="£" transform="translate(0 60)" fill="#8585a9" font-size="64" font-family="ArialNarrow, Arial" style="isolation: isolate"><tspan x="0" y="0">£</tspan></text>
      </g>
      <g id="Group_2540" data-name="Group 2540" transform="translate(82.411)">
        <g id="Group_2539" data-name="Group 2539">
          <path id="Path_3177" data-name="Path 3177" d="M568.25,353.646a5.854,5.854,0,1,0-5.853-5.856v0a5.852,5.852,0,0,0,5.853,5.853Z" transform="translate(-562.397 -341.937)" fill="none" stroke="#8585a9" stroke-miterlimit="10" stroke-width="2"/>
        </g>
      </g>
      <g id="Group_2541" data-name="Group 2541" transform="translate(87.846 10.875)">
        <path id="Path_3179" data-name="Path 3179" d="M564.541,364.625v-18.4" transform="translate(-564.541 -346.227)" fill="#8585a9" stroke="#8585a9" stroke-miterlimit="10" stroke-width="2"/>
      </g>
      <g id="Group_2543" data-name="Group 2543" transform="translate(163.616 82.799)">
        <g id="Group_2542" data-name="Group 2542">
          <path id="Path_3180" data-name="Path 3180" d="M594.432,380.454a5.855,5.855,0,1,0,5.858-5.853h0a5.854,5.854,0,0,0-5.853,5.853Z" transform="translate(-594.432 -374.601)" fill="none" stroke="#8585a9" stroke-miterlimit="10" stroke-width="2"/>
        </g>
      </g>
      <g id="Group_2544" data-name="Group 2544" transform="translate(146.054 88.234)">
        <path id="Path_3182" data-name="Path 3182" d="M587.5,376.745h18.4" transform="translate(-587.504 -376.745)" fill="#8585a9" stroke="#8585a9" stroke-miterlimit="10" stroke-width="2"/>
      </g>
      <g id="Group_2546" data-name="Group 2546" transform="translate(0 82.799)">
        <g id="Group_2545" data-name="Group 2545">
          <path id="Path_3183" data-name="Path 3183" d="M541.595,380.454a5.854,5.854,0,0,0-5.853-5.853h0a5.854,5.854,0,0,0-5.856,5.85v0a5.854,5.854,0,0,0,11.709,0Z" transform="translate(-529.886 -374.601)" fill="none" stroke="#8585a9" stroke-miterlimit="10" stroke-width="2"/>
        </g>
      </g>
      <g id="Group_2547" data-name="Group 2547" transform="translate(10.872 89.07)">
        <path id="Path_3185" data-name="Path 3185" d="M552.573,377.075h-18.4" transform="translate(-534.175 -377.075)" fill="#8585a9" stroke="#8585a9" stroke-miterlimit="10" stroke-width="2"/>
      </g>
      <g id="Group_2549" data-name="Group 2549" transform="translate(81.98 164.173)">
        <g id="Group_2548" data-name="Group 2548">
          <path id="Path_3186" data-name="Path 3186" d="M568.093,406.7a5.856,5.856,0,1,0,5.845,5.866v-.013A5.854,5.854,0,0,0,568.093,406.7Z" transform="translate(-562.227 -406.703)" fill="none" stroke="#8585a9" stroke-miterlimit="10" stroke-width="2"/>
        </g>
      </g>
      <g id="Group_2550" data-name="Group 2550" transform="translate(88.264 146.612)">
        <path id="Path_3188" data-name="Path 3188" d="M564.706,399.775v18.4" transform="translate(-564.706 -399.775)" fill="none" stroke="#8585a9" stroke-miterlimit="10" stroke-width="2"/>
      </g>
      <g id="Group_2552" data-name="Group 2552" transform="translate(139.638 26.238)">
        <g id="Group_2551" data-name="Group 2551">
          <path id="Path_3189" data-name="Path 3189" d="M586.471,362.053a5.853,5.853,0,0,0,8.266.438v0a5.85,5.85,0,1,0-8.266-.436Z" transform="translate(-584.973 -352.288)" fill="none" stroke="#8585a9" stroke-miterlimit="10" stroke-width="2"/>
        </g>
      </g>
      <g id="Group_2553" data-name="Group 2553" transform="translate(127.806 35.126)">
        <path id="Path_3191" data-name="Path 3191" d="M580.3,368.113l13.673-12.319" transform="translate(-580.305 -355.794)" fill="#8585a9" stroke="#8585a9" stroke-miterlimit="10" stroke-width="2"/>
      </g>
      <g id="Group_2555" data-name="Group 2555" transform="translate(24.838 139.867)">
        <g id="Group_2554" data-name="Group 2554">
          <path id="Path_3192" data-name="Path 3192" d="M549.6,398.756a5.856,5.856,0,0,0-8.276.145h0a5.851,5.851,0,0,0,.145,8.276h0a5.854,5.854,0,0,0,8.276-.142v0a5.851,5.851,0,0,0-.145-8.274Z" transform="translate(-539.685 -397.114)" fill="none" stroke="#8585a9" stroke-miterlimit="10" stroke-width="2"/>
        </g>
      </g>
      <g id="Group_2556" data-name="Group 2556" transform="translate(34.479 129.167)">
        <path id="Path_3194" data-name="Path 3194" d="M556.269,392.893l-12.781,13.235" transform="translate(-543.488 -392.893)" fill="#8585a9" stroke="#8585a9" stroke-miterlimit="10" stroke-width="2"/>
      </g>
      <g id="Group_2558" data-name="Group 2558" transform="translate(25.923 25.897)">
        <g id="Group_2557" data-name="Group 2557">
          <path id="Path_3195" data-name="Path 3195" d="M550.109,362.148a5.854,5.854,0,0,0,0-8.279v0a5.856,5.856,0,0,0-8.282,8.281h0a5.855,5.855,0,0,0,8.282,0Z" transform="translate(-540.113 -352.153)" fill="none" stroke="#8585a9" stroke-miterlimit="10" stroke-width="2"/>
        </g>
      </g>
      <g id="Group_2559" data-name="Group 2559" transform="translate(35.032 35.595)">
        <path id="Path_3197" data-name="Path 3197" d="M556.715,368.988l-13.009-13.009" transform="translate(-543.706 -355.979)" fill="#8585a9" stroke="#8585a9" stroke-miterlimit="10" stroke-width="2"/>
      </g>
      <g id="Group_2561" data-name="Group 2561" transform="translate(137.763 139.49)">
        <g id="Group_2560" data-name="Group 2560">
          <path id="Path_3198" data-name="Path 3198" d="M585.944,398.683a5.832,5.832,0,1,0,.008-.008Z" transform="translate(-584.233 -396.965)" fill="none" stroke="#8585a9" stroke-miterlimit="10" stroke-width="2"/>
        </g>
      </g>
      <g id="Group_2562" data-name="Group 2562" transform="translate(127.359 128.503)">
        <path id="Path_3200" data-name="Path 3200" d="M580.129,392.631l13.009,13.009" transform="translate(-580.129 -392.631)" fill="#8585a9" stroke="#8585a9" stroke-miterlimit="10" stroke-width="2"/>
      </g>
    </g>
  </g>
</svg>
