<svg id="Group_3007" data-name="Group 3007" xmlns="http://www.w3.org/2000/svg" width="20.909" height="20.908" viewBox="0 0 20.909 20.908">
  <path id="Path_3577" data-name="Path 3577" d="M9.241,5.5a2.225,2.225,0,0,0,.651-1.594,2.257,2.257,0,0,0-.669-1.6L.977-5.9a2.247,2.247,0,0,0-1.6-.662A2.222,2.222,0,0,0-2.213-5.9l-8.152,8.189a2.225,2.225,0,0,0-.651,1.594,2.254,2.254,0,0,0,.669,1.6L-2.1,13.687a2.262,2.262,0,0,0,1.6.662,2.229,2.229,0,0,0,1.592-.658Z" transform="translate(11.016 6.559)" fill="#fda730"/>
</svg>
