<svg xmlns="http://www.w3.org/2000/svg" width="24.614" height="20" viewBox="0 0 24.614 20">
  <path id="Path_403" data-name="Path 403" d="M82.74,118.45a14.271,14.271,0,0,0,14.368-14.368c0-.219,0-.436-.015-.653a10.275,10.275,0,0,0,2.519-2.614,10.08,10.08,0,0,1-2.9.795,5.067,5.067,0,0,0,2.22-2.793,10.12,10.12,0,0,1-3.207,1.226,5.055,5.055,0,0,0-8.606,4.606,14.337,14.337,0,0,1-10.408-5.276,5.054,5.054,0,0,0,1.563,6.741,5.012,5.012,0,0,1-2.292-.632v.064a5.052,5.052,0,0,0,4.051,4.95,5.042,5.042,0,0,1-2.28.087,5.056,5.056,0,0,0,4.718,3.507,10.133,10.133,0,0,1-6.272,2.166,10.279,10.279,0,0,1-1.2-.073,14.3,14.3,0,0,0,7.74,2.264" transform="translate(-75 -98.45)" fill="#053972"/>
</svg>
