<svg xmlns="http://www.w3.org/2000/svg" width="362.296" height="362.296" viewBox="0 0 362.296 362.296">
  <g id="Group_3527" data-name="Group 3527" transform="translate(-1552.292 -334.854)" opacity="0.15">
    <g id="Group_2754" data-name="Group 2754" transform="translate(1552.292 334.854)">
      <path id="Path_3511" data-name="Path 3511" d="M822.359,616.781a27.5,27.5,0,0,1-19.6-8.061L701.892,508.3a27.725,27.725,0,0,1-.086-39.166L802.227,368.28a27.695,27.695,0,0,1,39.161-.091L942.256,468.61a27.713,27.713,0,0,1,.086,39.166L841.921,608.634a27.526,27.526,0,0,1-19.562,8.147M992.193,516.4a39.13,39.13,0,0,0-.119-55.288L849.7,319.36a39.114,39.114,0,0,0-55.288.122L652.655,461.85a39.117,39.117,0,0,0,.124,55.293L795.15,658.9a39.12,39.12,0,0,0,55.293-.127Z" transform="translate(-641.273 -307.978)" fill="#bebcd0"/>
    </g>
    <path id="Path_3512" data-name="Path 3512" d="M935.662,487.845a30.78,30.78,0,0,0,9-22.048,31.213,31.213,0,0,0-9.25-22.069l-114-113.5a31.178,31.178,0,0,0-22.107-9.156,30.762,30.762,0,0,0-22.01,9.1L664.583,443.378a30.78,30.78,0,0,0-9,22.051,31.2,31.2,0,0,0,9.257,22.069L778.83,601a31.227,31.227,0,0,0,22.114,9.159,30.76,30.76,0,0,0,22.005-9.105Z" transform="translate(932.978 46.973)" fill="#fff"/>
    <g id="Group_2525" data-name="Group 2525" transform="translate(1651.332 444.698)">
      <g id="Group_2524" data-name="Group 2524">
        <path id="Path_3169" data-name="Path 3169" d="M751.406,492.795c-2.233-.226-4.441-.56-6.608-.989m-7.792-2.01a68.8,68.8,0,0,1-6.786-2.57m-7.311-3.721a71.167,71.167,0,0,1-7.1-4.745m42.839,14.4a70.674,70.674,0,0,0,70.629-70.72v-3.754h7.1l-17.726-24.822-14.2,24.822h7.1v3.549a52.672,52.672,0,0,1-52.145,53.194c-.142,0-.284,0-.426,0A53.161,53.161,0,0,1,713.972,450.6m51.646-98.923q3.35.346,6.608.989m7.787,2.013a69.712,69.712,0,0,1,6.786,2.568m7.318,3.716a71.619,71.619,0,0,1,7.1,4.748m-42.839-14.4a70.923,70.923,0,0,0-70.933,70.913v3.559h-7.1L698.075,450.6l14.2-24.821h-7.1v-3.549a53.2,53.2,0,0,1,53.2-53.192h.005a53.142,53.142,0,0,1,44.994,24.821M786.735,450.6v-7.242c0-9.777-18.953-14.2-28.37-14.2s-28.38,4.418-28.38,14.2V450.6m28.391-21.275A14.531,14.531,0,0,0,772.58,414.48c0-.114-.005-.231-.01-.345v-5.07a14.534,14.534,0,0,0-13.846-15.189c-.117-.005-.233-.01-.35-.013a14.533,14.533,0,0,0-14.208,14.852c0,.119.005.238.013.357v5.07a14.531,14.531,0,0,0,13.858,15.176C758.149,429.324,758.261,429.327,758.375,429.329Z" transform="translate(-680.344 -351.311)" fill="none" stroke="#8585a9" stroke-miterlimit="10" stroke-width="2"/>
      </g>
    </g>
  </g>
</svg>
