<svg xmlns="http://www.w3.org/2000/svg" xmlns:xlink="http://www.w3.org/1999/xlink" width="362.296" height="362.299" viewBox="0 0 362.296 362.299">
  <defs>
    <clipPath id="clip-path">
      <path id="Path_3088" data-name="Path 3088" d="M0,31.492H40.082V-8.59H0Z" transform="translate(0 8.59)" fill="none"/>
    </clipPath>
  </defs>
  <g id="Group_3529" data-name="Group 3529" transform="translate(-802.92 -334.292)">
    <g id="Group_2386" data-name="Group 2386" transform="translate(964.027 665.099)">
      <g id="Group_2385" data-name="Group 2385" transform="translate(0 -8.59)" clip-path="url(#clip-path)">
        <g id="Group_2384" data-name="Group 2384" transform="translate(-0.002 0.002)">
          <path id="Path_3087" data-name="Path 3087" d="M18.169,30.509a4.251,4.251,0,0,1-3.056,1.246,4.331,4.331,0,0,1-3.061-1.279L-3.682,14.668A4.337,4.337,0,0,1-4.956,11.6,4.277,4.277,0,0,1-3.691,8.551l15.7-15.627a4.243,4.243,0,0,1,3.056-1.246,4.316,4.316,0,0,1,3.061,1.283l15.734,15.8a4.322,4.322,0,0,1,1.269,3.066,4.245,4.245,0,0,1-1.26,3.052Z" transform="translate(4.956 8.322)" fill="#053972"/>
        </g>
      </g>
    </g>
    <g id="Group_2752" data-name="Group 2752" transform="translate(802.92 334.292)" opacity="0.15">
      <g id="Group_2751" data-name="Group 2751">
        <g id="Group_2750" data-name="Group 2750">
          <path id="Path_3507" data-name="Path 3507" d="M526.733,616.559a27.484,27.484,0,0,1-19.6-8.061L406.266,508.084a27.725,27.725,0,0,1-.086-39.166L506.6,368.061a27.695,27.695,0,0,1,39.161-.091L646.63,468.391a27.713,27.713,0,0,1,.086,39.166L546.295,608.414a27.513,27.513,0,0,1-19.562,8.145M696.567,516.178a39.127,39.127,0,0,0-.119-55.285L554.069,319.14a39.108,39.108,0,0,0-55.288.122L357.029,461.63a39.117,39.117,0,0,0,.124,55.293L499.524,658.675a39.12,39.12,0,0,0,55.293-.127Z" transform="translate(-345.647 -307.756)" fill="#bebcd0"/>
        </g>
        <path id="Path_3508" data-name="Path 3508" d="M640.037,487.624a30.78,30.78,0,0,0,9-22.048,31.213,31.213,0,0,0-9.25-22.069l-114-113.5a31.177,31.177,0,0,0-22.107-9.156,30.762,30.762,0,0,0-22.01,9.1L368.958,443.157a30.779,30.779,0,0,0-9,22.051,31.2,31.2,0,0,0,9.257,22.069L483.2,600.778a31.228,31.228,0,0,0,22.114,9.159,30.759,30.759,0,0,0,22.005-9.105Z" transform="translate(-323.688 -287.658)" fill="#fff"/>
        <g id="Group_2505" data-name="Group 2505" transform="translate(108.627 106.921)">
          <g id="Group_2504" data-name="Group 2504">
            <path id="Path_3150" data-name="Path 3150" d="M388.906,425.706l-.406-5c.727-.058,73.2-6.695,102.115-70.766L495.193,352c-15.772,34.946-43.828,53.131-64.591,62.228a142.648,142.648,0,0,1-41.7,11.475" transform="translate(-388.5 -349.936)" fill="#8585a9"/>
          </g>
        </g>
        <g id="Group_2506" data-name="Group 2506" transform="translate(192.189 104.842)" opacity="0.13">
          <path id="Path_3152" data-name="Path 3152" d="M446.479,373.316l-5.6-17.909-17.909,5.6-1.5-4.8,22.7-7.1,7.1,22.7Z" transform="translate(-421.465 -349.116)" fill="#091c59"/>
        </g>
        <g id="Group_2507" data-name="Group 2507" transform="translate(192.189 104.842)">
          <path id="Path_3153" data-name="Path 3153" d="M446.479,373.316l-5.6-17.909-17.909,5.6-1.5-4.8,22.7-7.1,7.1,22.7Z" transform="translate(-421.465 -349.116)" fill="#8585a9"/>
        </g>
        <path id="Path_3154" data-name="Path 3154" d="M403.243,386.917h5.024v34.489h-5.024Z" transform="translate(-257.245 -186.254)" fill="#8585a9"/>
        <path id="Path_3155" data-name="Path 3155" d="M415.634,375.745h5.019v62.811h-5.019Z" transform="translate(-238.226 -203.402)" fill="#8585a9"/>
        <path id="Path_3156" data-name="Path 3156" d="M428.024,364.592h5.027V455.67h-5.027Z" transform="translate(-219.209 -220.52)" fill="#8585a9"/>
        <path id="Path_3157" data-name="Path 3157" d="M440.416,357.158h5.024V467.083h-5.024Z" transform="translate(-200.189 -231.93)" fill="#8585a9"/>
        <path id="Path_3158" data-name="Path 3158" d="M390.851,394.327h5.027V410.02h-5.027Z" transform="translate(-276.265 -174.881)" fill="#8585a9"/>
      </g>
    </g>
  </g>
</svg>
