<svg id="Group_2757" data-name="Group 2757" xmlns="http://www.w3.org/2000/svg" width="362.296" height="362.296" viewBox="0 0 362.296 362.296">
  <g id="Group_2755" data-name="Group 2755">
    <path id="Path_3513" data-name="Path 3513" d="M228.81,616.781a27.5,27.5,0,0,1-19.6-8.061L108.343,508.3a27.726,27.726,0,0,1-.086-39.166L208.678,368.28a27.695,27.695,0,0,1,39.161-.091L348.707,468.61a27.713,27.713,0,0,1,.086,39.166L248.372,608.634a27.526,27.526,0,0,1-19.562,8.147M398.644,516.4a39.13,39.13,0,0,0-.119-55.288L256.146,319.36a39.114,39.114,0,0,0-55.288.122L59.106,461.85a39.117,39.117,0,0,0,.124,55.293L201.6,658.9a39.12,39.12,0,0,0,55.293-.127Z" transform="translate(-47.724 -307.978)" fill="#bebcd0"/>
  </g>
  <path id="Path_3514" data-name="Path 3514" d="M342.113,487.845a30.779,30.779,0,0,0,9-22.048,31.212,31.212,0,0,0-9.25-22.069l-114-113.5a31.177,31.177,0,0,0-22.107-9.156,30.762,30.762,0,0,0-22.01,9.1L71.034,443.378a30.779,30.779,0,0,0-9,22.051A31.2,31.2,0,0,0,71.288,487.5L185.281,601a31.227,31.227,0,0,0,22.114,9.159,30.76,30.76,0,0,0,22.005-9.105Z" transform="translate(-25.766 -287.882)" fill="#fff"/>
  <path id="Path_3515" data-name="Path 3515" d="M171.356,406.966a62.687,62.687,0,0,1-42.647,17.513v5.987l-15.1-8.715,15.1-8.717v6.411a57.938,57.938,0,0,0,51.534-33.354l4.558,2.134a62.8,62.8,0,0,1-13.445,18.74" transform="translate(53.406 -188.085)" fill="#8585a9"/>
  <path id="Path_3516" data-name="Path 3516" d="M137.642,443.361a63.39,63.39,0,0,1-22.205-15.136A62.677,62.677,0,0,1,98.23,385.939H91.9l8.715-15.1,8.717,15.1h-6.068a57.63,57.63,0,0,0,15.828,38.827,58.359,58.359,0,0,0,20.431,13.929l-1.881,4.667" transform="translate(20.08 -211.491)" fill="#8585a9"/>
  <path id="Path_3517" data-name="Path 3517" d="M168.241,357.776l-15.1,8.717v-5.942a57.937,57.937,0,0,0-51.9,33.617l-4.568-2.111a62.838,62.838,0,0,1,56.472-36.54v-6.456l15.1,8.715" transform="translate(27.405 -244.921)" fill="#8585a9"/>
  <path id="Path_3518" data-name="Path 3518" d="M173.748,410.307l-8.715,15.1-8.717-15.1H162.4a57.941,57.941,0,0,0-33.635-51.856l2.109-4.57a62.854,62.854,0,0,1,36.558,56.426h6.312" transform="translate(76.67 -237.523)" fill="#8585a9"/>
  <g id="Group_2756" data-name="Group 2756" transform="translate(160.434 151.159)">
    <path id="Path_3519" data-name="Path 3519" d="M133.494,367.61v18.216h17.518v4.649H133.494v18.373h-4.961V390.475H111.015v-4.649h17.518V367.61Z" transform="translate(-111.015 -367.61)" fill="#8585a9"/>
  </g>
</svg>
