<svg xmlns="http://www.w3.org/2000/svg" width="363.173" height="363.173" viewBox="0 0 363.173 363.173">
  <g id="Group_3528" data-name="Group 3528" transform="translate(-426.281 -335.704)" opacity="0.15">
    <path id="Path_3504" data-name="Path 3504" d="M378.589,617.864a27.573,27.573,0,0,1-19.653-8.078L257.827,509.125a27.793,27.793,0,0,1-.086-39.263l100.665-101.1a27.759,27.759,0,0,1,39.258-.089L498.774,469.333a27.781,27.781,0,0,1,.086,39.263L398.2,609.7a27.587,27.587,0,0,1-19.607,8.165M548.833,517.24a39.225,39.225,0,0,0-.119-55.422L405.99,319.723a39.215,39.215,0,0,0-55.425.119L208.471,462.557a39.218,39.218,0,0,0,.124,55.428L351.311,660.079a39.218,39.218,0,0,0,55.427-.124Z" transform="translate(229.217 27.391)" fill="#bebcd0"/>
    <path id="Path_3505" data-name="Path 3505" d="M492.166,488.617a30.852,30.852,0,0,0,9.024-22.1,31.283,31.283,0,0,0-9.275-22.122L377.641,330.616a31.277,31.277,0,0,0-22.162-9.179,30.835,30.835,0,0,0-22.061,9.123L220.431,444.041a30.863,30.863,0,0,0-9.027,22.1,31.268,31.268,0,0,0,9.28,22.124L334.954,602.044a31.289,31.289,0,0,0,22.167,9.181A30.828,30.828,0,0,0,379.18,602.1Z" transform="translate(251.227 47.534)" fill="#fff"/>
    <g id="Group_2749" data-name="Group 2749" transform="translate(544.238 435.487)">
      <path id="Path_3506" data-name="Path 3506" d="M282.538,427.6a7.087,7.087,0,0,1-2.114-.231,3.216,3.216,0,0,1-2.025-3.437c.033-.342.2-1.463,1.016-1.549a.392.392,0,0,1,.063,0c.259,0,1.141.114,1.716,1.468.418.989.875,2.266,1.343,3.752m26.92.2c.492-1.473.968-2.74,1.4-3.731.667-1.513,1.686-1.447,1.8-1.442.824.1.971,1.224,1,1.567a3.213,3.213,0,0,1-2.073,3.407,6.952,6.952,0,0,1-2.124.2m25.562-8.639.555,16.335a3.906,3.906,0,0,1-3.927,4.038l-.35-.013-14.036-.041-.208,19.739-14.375-.109c.793-4.981,3.093-18.682,5.764-28.023a11.364,11.364,0,0,0,4.015-.256,6.526,6.526,0,0,0,4.535-6.882c-.188-2.555-1.731-4.38-3.934-4.644a5.239,5.239,0,0,0-5.26,3.412c-.525,1.2-1.1,2.738-1.678,4.52a23.587,23.587,0,0,1-7.392-3.559c1.485-1.273,3.359-3.371,3.615-6,.312-3.2-1.217-7-5.308-7.759l-1.513-.035-.294.023c-4.1.7-5.688,4.469-5.425,7.678.215,2.631,2.061,4.758,3.526,6.051a23.592,23.592,0,0,1-7.445,3.45c-.558-1.8-1.105-3.351-1.61-4.545a5.223,5.223,0,0,0-5.207-3.491c-2.205.231-3.777,2.033-4.005,4.586a6.524,6.524,0,0,0,4.431,6.948,11.228,11.228,0,0,0,4.013.317c2.53,9.379,4.621,23.11,5.338,28.107l-13.686-.1.025-3.5c.086-11.465-5.326-20.517-10.1-28.5-2.477-4.137-4.811-8.043-6.16-11.883-4.051-11.529-4.1-22.137-.165-31.534a37.917,37.917,0,0,1,6.436-10.251,40.622,40.622,0,0,1,10.393-8.515,41.909,41.909,0,0,1,13.143-4.664,37.344,37.344,0,0,1,7.24-.636,39.107,39.107,0,0,1,24.048,8.487c7.729,6.063,13.311,15.017,13.881,22.134l-.066,8.989,8.629,20Zm-41.879-1.85c-.013-.144-.256-3.5,2.517-4.079l.9.008c2.76.619,2.469,3.97,2.454,4.114-.16,1.665-1.782,3.27-2.966,4.185-1.168-.933-2.765-2.563-2.9-4.228m2.872,8.482a26.778,26.778,0,0,0,9.133,4.652c-2.821,9.975-5.148,24.137-5.853,28.641l-7.059-.053c-.636-4.515-2.748-18.71-5.422-28.725a26.822,26.822,0,0,0,9.2-4.515m41.174-27.435.056-8.431c-.748-9.4-8.152-19.148-15.158-24.646a42.433,42.433,0,0,0-26.089-9.2,40.385,40.385,0,0,0-7.9.7,45.2,45.2,0,0,0-14.175,5.049,43.967,43.967,0,0,0-11.247,9.217,41.147,41.147,0,0,0-7,11.153c-4.271,10.188-4.238,21.6.091,33.939,1.463,4.16,3.886,8.205,6.446,12.489,4.776,7.977,9.709,16.231,9.63,26.758l-.051,6.844,48.581.365.208-19.757,10.606.031a7.259,7.259,0,0,0,7.736-7.485l-.436-12.93,9.034-.152Z" transform="translate(-229.947 -334.777)" fill="#8585a9"/>
      <rect id="Rectangle_863" data-name="Rectangle 863" width="3.349" height="3.349" transform="translate(80.948 110.188)" fill="#8585a9"/>
      <rect id="Rectangle_864" data-name="Rectangle 864" width="3.349" height="3.349" transform="translate(80.948 118.444)" fill="#8585a9"/>
      <rect id="Rectangle_865" data-name="Rectangle 865" width="14.71" height="3.349" transform="translate(115.62 63.491)" fill="#8585a9"/>
      <rect id="Rectangle_866" data-name="Rectangle 866" width="14.709" height="3.346" transform="translate(108.023 38.489) rotate(-30.005)" fill="#8585a9"/>
      <rect id="Rectangle_867" data-name="Rectangle 867" width="14.708" height="3.346" transform="matrix(0.5, -0.866, 0.866, 0.5, 88.944, 20.633)" fill="#8585a9"/>
      <rect id="Rectangle_868" data-name="Rectangle 868" width="3.349" height="14.71" transform="translate(63.491)" fill="#8585a9"/>
      <rect id="Rectangle_869" data-name="Rectangle 869" width="3.346" height="14.708" transform="matrix(0.866, -0.5, 0.5, 0.866, 31.134, 9.568)" fill="#8585a9"/>
      <rect id="Rectangle_870" data-name="Rectangle 870" width="3.346" height="14.71" transform="translate(7.894 34.033) rotate(-60.006)" fill="#8585a9"/>
      <rect id="Rectangle_871" data-name="Rectangle 871" width="14.71" height="3.349" transform="translate(0 63.491)" fill="#8585a9"/>
      <rect id="Rectangle_872" data-name="Rectangle 872" width="14.71" height="3.346" transform="matrix(0.866, -0.5, 0.5, 0.866, 7.894, 96.299)" fill="#8585a9"/>
      <rect id="Rectangle_873" data-name="Rectangle 873" width="40.129" height="3.349" transform="translate(46.644 133.106)" fill="#8585a9"/>
      <rect id="Rectangle_874" data-name="Rectangle 874" width="26.859" height="3.349" transform="translate(53.278 141.159)" fill="#8585a9"/>
    </g>
  </g>
</svg>
