<?xml version="1.0" standalone="yes"?>
<svg xmlns="http://www.w3.org/2000/svg" width="607" height="615">
<path style="fill:#ffffff; stroke:none;" d="M0 0L0 615L607 615L607 0L0 0z"/>
<path style="fill:#d35f41; stroke:none;" d="M295 86.4282C270.808 89.9019 255.279 111.721 239 128C202.492 164.508 166.49 201.51 130 238C111.299 256.702 90.0898 272.794 94.3002 302C96.7814 319.212 111.466 330.466 123 342L194 413L251 470C267.834 486.834 283.104 503.433 309 499.7C331.575 496.445 347.935 473.065 363 458C399.812 421.188 436.166 383.834 473 347C491.331 328.669 511.553 312.449 506.855 284C503.948 266.393 488.887 254.887 477 243L407 173L346 112C331.767 97.767 316.853 83.2905 295 86.4282z"/>
<path style="fill:#ffffff; stroke:none;" d="M293 124.465C274.826 127.735 262.355 145.645 250 158L163 245C148.684 259.316 132.072 272.609 135.3 295C137.348 309.204 148.413 318.413 158 328C176.173 346.173 194.846 363.846 213 382L261 430C275.387 444.387 287.969 458.089 310 453.686C326.96 450.297 340.395 430.605 352 419L437 334C452.216 318.784 468.772 305.574 464.714 282C462.374 268.404 451.242 259.242 442 250C424.174 232.174 405.842 214.842 388 197L337 146C324.514 133.514 312.253 120.999 293 124.465z"/>
<path style="fill:#d35f41; stroke:none;" d="M217 206L217 358L259 357L259 355L221 354L221 210L315 210L315 257L316 281L318 281L319 255L319 206L217 206M233 223C237.142 227.23 243.438 226 249 226L287 226C292.562 226 298.858 227.23 303 223L278 222L233 223M233 239L233 241L258 242L303 241C298.549 236.455 290.964 238 285 238C269.074 238 248.26 234.489 233 239M336 300C341.702 300.842 344.273 295.051 347.424 291C355.367 280.79 372.104 265.985 374 253C368.201 253.974 365.421 259.647 362 264C353.668 274.604 340.263 287.148 336 300M233 257L258 258L303 257C298.858 252.77 292.562 254 287 254L249 254C243.438 254 237.142 252.77 233 257M341.059 256.028C331.561 261.225 340.059 276.059 349.891 270.543C359.34 265.242 350.639 250.786 341.059 256.028z"/>
<path style="fill:#ffffff; stroke:none;" d="M343.321 260.047C339.466 262.455 342.606 268.913 346.867 266.863C351.923 264.431 348.017 257.114 343.321 260.047z"/>
<path style="fill:#d35f41; stroke:none;" d="M233 272C237.142 276.23 243.438 275 249 275L287 275C292.562 275 298.858 276.23 303 272L258 271L233 272M330 324C330 316.033 332.899 300.877 328.258 294.105C319.23 280.932 280.384 281.609 270.434 293.213C264.679 299.924 268 317.578 268 326C268 335.817 264.047 356.979 270.434 364.895C280.266 377.083 299.862 371.392 312.83 372.118C317.552 372.382 322.317 377.164 327 378.56C338.965 382.126 354.311 382.167 366 377.535C369.404 376.187 373.035 374.323 374.821 370.957C378.789 363.477 378.485 335.069 371.891 329.557C360.565 320.09 343.291 323.726 330 324M360.044 286.746C349.958 290.711 356.495 306.498 366.956 302.258C376.995 298.189 369.974 282.843 360.044 286.746M233 288L233 290C240.706 292.278 253.294 292.278 261 290L261 288C253.294 285.722 240.706 285.722 233 288z"/>
<path style="fill:#ffffff; stroke:none;" d="M294 289.425C289.002 290.105 271.16 291.789 272.832 299.972C274.798 309.596 297.839 309.593 305 308.714C309.953 308.105 327.173 306.194 325.11 298.101C322.808 289.074 301.022 288.47 294 289.425M362.224 290.89C357.34 292.278 359.874 300.08 364.775 298.338C369.359 296.709 366.736 289.608 362.224 290.89z"/>
<path style="fill:#d35f41; stroke:none;" d="M233 306L261 307C258.676 299.998 237.476 301.43 233 306z"/>
<path style="fill:#ffffff; stroke:none;" d="M272 307C272.019 330.988 325.981 330.988 326 307C306.102 313.633 291.898 313.633 272 307z"/>
<path style="fill:#d35f41; stroke:none;" d="M233 321C237.476 325.57 258.676 327.002 261 320L233 321z"/>
<path style="fill:#ffffff; stroke:none;" d="M272 322C272.013 338.582 298.304 344.255 311.726 337.436C317.436 334.535 318.943 328.096 326 326L326 322C307.457 329.192 290.51 329.592 272 322M337 327.439C332.069 328.209 311.195 333.066 321.229 341.031C330.292 348.225 346.372 347.504 357 345.536C363.375 344.356 378.372 337.922 366.981 331.417C358.789 326.74 346.135 326.012 337 327.439M272 337C272.012 352.084 286.193 354 299 354C302.668 354 310.418 354.685 312.972 351.4C314.758 349.103 314 344.725 314 342C298.57 342.319 286.679 343.021 272 337M318 345C318.018 368.562 371.932 368.651 372 345C351.669 350.801 338.298 350.803 318 345M272 352C272.012 367.247 286.146 369 299 369C302.794 369 310.329 369.878 312.972 366.411C314.748 364.083 314 359.747 314 357C298.637 357.66 286.552 357.969 272 352M318 360C318.018 383.589 371.932 383.676 372 360C351.558 365.844 338.442 365.844 318 360z"/>
</svg>
