<?xml version="1.0" standalone="no"?>
<!DOCTYPE svg PUBLIC "-//W3C//DTD SVG 20010904//EN"
 "http://www.w3.org/TR/2001/REC-SVG-20010904/DTD/svg10.dtd">
<svg version="1.0" xmlns="http://www.w3.org/2000/svg"
 width="607.000000pt" height="615.000000pt" viewBox="0 0 607.000000 615.000000"
 preserveAspectRatio="xMidYMid meet">

<g transform="translate(0.000000,615.000000) scale(0.100000,-0.100000)"
fill="#000000" stroke="none">
<path d="M2857 5260 c-33 -10 -82 -34 -111 -53 -28 -19 -430 -415 -891 -880
-784 -789 -842 -850 -877 -919 -67 -131 -70 -275 -7 -408 28 -60 94 -128 892
-922 527 -524 881 -868 912 -887 90 -55 226 -75 334 -50 117 27 136 42 524
428 203 201 595 596 871 876 550 558 543 550 567 694 16 94 1 183 -45 276 -33
66 -88 124 -893 925 -900 897 -897 894 -1017 926 -72 19 -189 17 -259 -6z
m288 -393 c54 -25 135 -103 753 -720 573 -573 697 -701 720 -747 24 -49 27
-66 27 -161 0 -98 -2 -109 -30 -162 -24 -44 -175 -202 -710 -741 -781 -787
-726 -741 -900 -741 -170 0 -118 -43 -908 744 -792 789 -752 740 -752 911 0
168 -43 116 738 898 375 376 697 692 715 704 57 35 112 48 202 45 69 -2 97 -8
145 -30z"/>
<path d="M2397 4082 c-49 -54 19 -127 76 -81 31 23 34 45 11 77 -19 27 -64 29
-87 4z m53 -42 c0 -5 -4 -10 -10 -10 -5 0 -10 5 -10 10 0 6 5 10 10 10 6 0 10
-4 10 -10z"/>
<path d="M2946 4084 c-26 -26 -17 -76 16 -92 32 -15 61 -4 78 28 8 15 7 28 -2
48 -16 33 -66 42 -92 16z m54 -44 c0 -5 -4 -10 -10 -10 -5 0 -10 5 -10 10 0 6
5 10 10 10 6 0 10 -4 10 -10z"/>
<path d="M3496 4084 c-20 -20 -21 -68 -1 -84 8 -7 26 -12 40 -12 36 0 55 20
55 58 0 50 -59 74 -94 38z m54 -38 c0 -11 -19 -15 -25 -6 -3 5 1 10 9 10 9 0
16 -2 16 -4z"/>
<path d="M2420 3863 c-63 -23 -45 -113 23 -113 57 0 74 84 22 108 -14 7 -27
12 -28 11 -1 0 -9 -3 -17 -6z m30 -53 c0 -5 -4 -10 -10 -10 -5 0 -10 5 -10 10
0 6 5 10 10 10 6 0 10 -4 10 -10z"/>
<path d="M2960 3857 c-31 -15 -39 -66 -15 -91 19 -19 68 -21 83 -3 24 30 23
56 -2 82 -29 29 -32 29 -66 12z m40 -47 c0 -5 -4 -10 -10 -10 -5 0 -10 5 -10
10 0 6 5 10 10 10 6 0 10 -4 10 -10z"/>
<path d="M3467 3802 c-63 -64 -66 -69 -50 -85 16 -16 19 -15 55 20 l38 37 0
-132 0 -132 25 0 25 0 0 132 0 132 40 -39 c38 -37 41 -38 57 -22 17 16 14 21
-52 87 l-70 70 -68 -68z"/>
<path d="M2397 3612 c-45 -49 8 -118 68 -90 33 15 42 51 21 83 -20 30 -65 34
-89 7z m53 -42 c0 -5 -4 -10 -10 -10 -5 0 -10 5 -10 10 0 6 5 10 10 10 6 0 10
-4 10 -10z"/>
<path d="M2917 3562 c-61 -61 -66 -70 -52 -82 14 -11 22 -7 60 30 l45 44 0
-142 c0 -135 1 -142 20 -142 19 0 20 7 20 137 l0 137 40 -39 c38 -37 41 -38
57 -22 16 16 14 21 -47 82 -35 36 -67 65 -70 65 -3 0 -36 -31 -73 -68z"/>
<path d="M3398 3434 c-26 -8 -56 -26 -67 -40 -20 -26 -21 -38 -21 -396 l0
-369 25 -23 c76 -71 359 -66 410 7 13 18 15 79 15 392 l0 372 -24 22 c-13 12
-45 29 -71 37 -61 18 -205 17 -267 -2z m270 -49 c48 -20 51 -28 18 -50 -62
-41 -255 -38 -308 4 l-22 18 26 17 c58 38 204 43 286 11z m-238 -116 c53 -13
169 -11 228 5 l53 13 -3 -31 c-5 -48 -41 -61 -173 -61 -133 0 -175 16 -175 66
0 26 3 30 18 24 9 -4 33 -11 52 -16z m33 -122 c67 -10 182 -1 230 18 16 7 18
3 15 -26 -3 -31 -8 -36 -53 -51 -28 -10 -80 -17 -120 -17 -40 0 -92 7 -120 17
-45 15 -50 20 -53 51 -3 29 -1 33 15 26 10 -4 49 -12 86 -18z m7 -118 c62 -9
154 -2 218 17 19 6 22 3 22 -24 0 -24 -7 -33 -37 -48 -53 -26 -200 -26 -265
-1 -43 17 -48 22 -48 49 0 27 3 30 23 24 12 -4 51 -11 87 -17z m74 -119 c50 1
108 7 129 14 l37 14 0 -29 c0 -38 -31 -57 -111 -70 -45 -7 -83 -7 -129 1 -82
14 -110 32 -110 69 l0 29 47 -14 c25 -8 87 -14 137 -14z m-9 -120 c39 0 94 6
123 14 l53 13 -3 -31 c-5 -48 -41 -61 -173 -61 -131 0 -175 16 -175 64 l0 28
52 -13 c29 -8 84 -14 123 -14z m-91 -111 c83 -16 163 -11 244 15 19 7 22 4 22
-23 0 -45 -42 -63 -155 -68 -68 -3 -102 1 -140 14 -45 16 -50 21 -53 52 -3 29
-1 33 15 27 10 -4 40 -12 67 -17z"/>
<path d="M2372 3337 c-65 -65 -70 -75 -50 -95 9 -9 22 -3 55 30 l43 42 0 -137
c0 -130 1 -137 20 -137 19 0 20 7 20 137 l0 137 43 -42 c39 -39 45 -41 57 -27
12 14 5 25 -56 86 l-69 69 -63 -63z"/>
<path d="M2895 3210 c-56 -12 -89 -26 -108 -45 -15 -14 -17 -48 -17 -280 0
-254 1 -265 21 -284 31 -29 105 -46 199 -45 101 1 164 17 196 49 l24 24 0 259
c0 289 3 275 -72 307 -45 18 -188 27 -243 15z m233 -63 c17 -10 32 -22 32 -27
0 -42 -205 -65 -295 -33 -62 22 -64 42 -5 65 59 24 219 20 268 -5z m-205 -118
c63 -10 172 -2 221 17 13 5 16 -1 16 -25 0 -47 -47 -65 -170 -66 -117 0 -173
22 -178 69 -3 26 -1 28 20 22 13 -3 53 -11 91 -17z m71 -119 c50 1 108 7 129
14 l37 14 0 -33 c0 -29 -5 -35 -37 -48 -59 -23 -134 -29 -204 -17 -82 15 -109
32 -109 69 l0 29 47 -14 c25 -8 87 -14 137 -14z m-114 -111 c53 -13 169 -11
228 5 l53 13 -3 -31 c-5 -48 -41 -61 -173 -61 -133 0 -175 16 -175 66 0 26 3
30 18 24 9 -4 33 -11 52 -16z m14 -120 c83 -16 163 -11 244 15 19 7 22 4 22
-23 0 -45 -43 -64 -155 -68 -67 -2 -103 1 -140 14 -45 16 -50 21 -53 52 -3 29
-1 33 15 27 10 -4 40 -12 67 -17z"/>
<path d="M2323 2970 c-17 -4 -46 -16 -65 -27 l-33 -19 -3 -148 c-3 -167 -3
-168 68 -199 35 -16 66 -21 140 -21 105 0 164 13 204 45 26 20 26 21 26 165 0
167 -3 172 -91 198 -55 17 -189 20 -246 6z m245 -55 c23 -10 42 -23 42 -30 0
-41 -186 -64 -282 -36 -63 18 -77 35 -45 56 57 37 204 42 285 10z m-254 -110
c27 -8 84 -15 126 -15 42 0 99 7 126 15 27 8 50 15 52 15 2 0 2 -12 0 -27 -2
-14 -15 -35 -31 -47 -25 -19 -42 -21 -145 -21 -140 0 -182 15 -182 65 0 17 1
30 3 30 1 0 24 -7 51 -15z m30 -126 c70 -13 144 -11 209 6 73 19 69 20 65 -12
-5 -42 -55 -66 -149 -71 -127 -7 -209 22 -209 76 0 19 4 23 18 17 9 -3 39 -11
66 -16z"/>
</g>
</svg>
