<?xml version="1.0" standalone="no"?>
<!DOCTYPE svg PUBLIC "-//W3C//DTD SVG 20010904//EN"
 "http://www.w3.org/TR/2001/REC-SVG-20010904/DTD/svg10.dtd">
<svg version="1.0" xmlns="http://www.w3.org/2000/svg"
 width="606.000000pt" height="615.000000pt" viewBox="0 0 606.000000 615.000000"
 preserveAspectRatio="xMidYMid meet">

<g transform="translate(0.000000,615.000000) scale(0.100000,-0.100000)"
fill="#000000" stroke="none">
<path d="M2871 5254 c-30 -8 -75 -26 -101 -40 -32 -18 -313 -292 -897 -877
-782 -783 -853 -857 -882 -918 -64 -132 -64 -277 0 -409 37 -75 -4 -33 1059
-1087 797 -790 740 -744 925 -751 114 -5 195 16 269 68 23 16 420 408 882 872
772 773 844 848 872 908 61 128 62 267 2 400 -28 61 -81 116 -885 916 -593
590 -870 859 -903 877 -101 55 -232 71 -341 41z m246 -386 c54 -20 100 -64
740 -696 375 -371 696 -695 712 -721 44 -69 65 -152 58 -230 -12 -132 -3 -121
-742 -865 -768 -774 -716 -731 -885 -731 -167 0 -110 -47 -897 738 -757 756
-735 730 -749 863 -8 72 14 165 52 225 14 23 330 347 702 719 629 630 681 680
732 699 78 28 200 28 277 -1z"/>
<path d="M2495 3968 c-3 -13 -4 -372 -3 -798 l3 -775 535 0 535 0 3 775 c1
426 0 785 -3 798 l-5 22 -530 0 -530 0 -5 -22z m1023 -778 l4 -750 -491 0
-491 0 0 750 0 750 488 0 487 0 3 -750z"/>
<path d="M2666 3811 c-4 -5 -3 -16 0 -25 5 -14 46 -16 364 -16 318 0 359 2
364 16 3 9 4 20 0 25 -3 5 -159 9 -364 9 -205 0 -361 -4 -364 -9z"/>
<path d="M2853 3693 c-7 -2 -13 -13 -13 -24 0 -18 9 -19 190 -19 180 0 190 1
190 19 0 10 -7 22 -16 25 -19 7 -333 7 -351 -1z"/>
<path d="M2666 3454 c-3 -8 -6 -78 -6 -154 0 -105 3 -140 14 -149 9 -8 54 -11
132 -9 l119 3 0 160 0 160 -126 3 c-109 2 -128 0 -133 -14z m214 -149 l0 -115
-85 0 -85 0 0 115 0 115 85 0 85 0 0 -115z"/>
<path d="M3046 3454 c-3 -9 -4 -20 0 -25 3 -5 81 -9 174 -9 93 0 171 4 174 9
4 5 3 16 0 25 -5 14 -30 16 -174 16 -144 0 -169 -2 -174 -16z"/>
<path d="M3046 3321 c-4 -5 -3 -16 0 -25 5 -14 30 -16 174 -16 144 0 169 2
174 16 3 9 4 20 0 25 -3 5 -81 9 -174 9 -93 0 -171 -4 -174 -9z"/>
<path d="M3045 3180 c-4 -6 -1 -17 5 -25 10 -12 44 -15 170 -15 126 0 160 3
170 15 25 30 0 35 -170 35 -106 0 -171 -4 -175 -10z"/>
<path d="M2668 3008 c-14 -37 -5 -38 362 -38 205 0 361 4 364 9 4 5 3 16 0 25
-5 14 -46 16 -364 16 -277 0 -359 -3 -362 -12z"/>
<path d="M2666 2864 c-3 -9 -4 -20 0 -25 3 -5 159 -9 364 -9 205 0 361 4 364
9 4 5 3 16 0 25 -5 14 -46 16 -364 16 -318 0 -359 -2 -364 -16z"/>
<path d="M2670 2725 c-6 -8 -9 -19 -5 -25 4 -6 127 -10 365 -10 238 0 361 4
365 10 4 6 1 17 -5 25 -11 13 -68 15 -360 15 -292 0 -349 -2 -360 -15z"/>
<path d="M2670 2585 c-6 -8 -9 -19 -5 -25 9 -14 721 -14 730 0 4 6 1 17 -5 25
-11 13 -68 15 -360 15 -292 0 -349 -2 -360 -15z"/>
<path d="M2230 3735 c-96 -36 -194 -72 -217 -81 -27 -10 -43 -22 -43 -32 0 -9
95 -279 211 -600 209 -575 212 -583 238 -580 29 3 40 31 19 51 -14 15 -414
1105 -407 1110 2 2 96 37 209 78 177 64 205 77 208 97 5 34 -23 28 -218 -43z"/>
<path d="M3612 3778 c3 -20 31 -33 208 -97 113 -41 207 -76 209 -78 8 -6 -392
-1098 -406 -1110 -23 -18 -12 -48 18 -51 21 -2 29 2 37 25 5 15 100 277 211
581 110 304 201 561 201 571 0 10 -8 22 -17 26 -118 46 -430 155 -445 155 -14
0 -19 -6 -16 -22z"/>
<path d="M2300 3572 c-88 -33 -126 -52 -128 -65 -6 -32 26 -29 150 16 108 40
123 48 123 68 0 12 -4 24 -10 25 -5 2 -66 -18 -135 -44z"/>
<path d="M3614 3605 c-11 -28 3 -38 121 -81 140 -51 158 -53 153 -21 -2 18
-23 30 -128 69 -143 54 -139 53 -146 33z"/>
<path d="M2327 3413 c-98 -36 -121 -53 -98 -76 12 -12 28 -8 169 45 43 16 53
24 50 41 -2 11 -7 22 -13 23 -5 2 -54 -13 -108 -33z"/>
<path d="M3617 3443 c-21 -20 -4 -43 46 -61 140 -53 156 -57 168 -45 23 23 -1
40 -101 76 -115 42 -105 39 -113 30z"/>
<path d="M2374 3260 c-76 -27 -94 -38 -94 -62 0 -24 21 -22 113 12 48 18 58
26 55 43 -4 28 -14 29 -74 7z"/>
<path d="M3617 3274 c-4 -4 -7 -15 -7 -25 0 -17 76 -53 142 -66 25 -5 28 -2
28 19 0 21 -9 27 -67 48 -38 13 -73 25 -79 27 -5 2 -13 0 -17 -3z"/>
<path d="M2380 3092 c-46 -18 -64 -47 -35 -58 9 -4 36 1 61 11 36 14 44 21 42
38 -4 27 -15 29 -68 9z"/>
<path d="M3617 3103 c-19 -19 -4 -41 38 -58 49 -18 75 -15 75 10 0 21 -99 63
-113 48z"/>
<path d="M2408 2933 c-11 -3 -18 -14 -18 -29 0 -16 6 -24 18 -24 27 0 44 16
40 35 -3 20 -14 25 -40 18z"/>
<path d="M3617 2933 c-13 -12 -7 -41 9 -47 30 -12 44 -6 44 18 0 28 -35 47
-53 29z"/>
</g>
</svg>
