<?xml version="1.0" standalone="no"?>
<!DOCTYPE svg PUBLIC "-//W3C//DTD SVG 20010904//EN"
 "http://www.w3.org/TR/2001/REC-SVG-20010904/DTD/svg10.dtd">
<svg version="1.0" xmlns="http://www.w3.org/2000/svg"
 width="606.000000pt" height="615.000000pt" viewBox="0 0 606.000000 615.000000"
 preserveAspectRatio="xMidYMid meet">

<g transform="translate(0.000000,615.000000) scale(0.100000,-0.100000)"
fill="#000000" stroke="none">
<path d="M2885 5256 c-126 -31 -106 -13 -1010 -923 -467 -471 -860 -871 -872
-889 -61 -88 -86 -222 -63 -336 28 -144 -7 -105 928 -1035 521 -518 877 -863
907 -882 73 -44 163 -65 260 -58 90 5 145 24 223 75 51 33 1687 1674 1737
1743 50 66 69 135 69 249 1 118 -13 168 -71 257 -45 69 -1714 1721 -1773 1756
-91 53 -225 70 -335 43z m261 -400 c51 -25 148 -117 747 -715 789 -787 752
-742 752 -906 0 -161 34 -120 -743 -902 -549 -552 -687 -687 -732 -710 -50
-25 -65 -28 -160 -28 -180 0 -119 -50 -921 753 -666 666 -698 700 -719 757
-35 91 -33 200 5 285 27 61 69 106 704 743 372 374 692 689 712 702 66 43 118
55 210 52 69 -2 97 -8 145 -31z"/>
<path d="M2370 3967 c-52 -17 -123 -93 -138 -147 -10 -34 -12 -180 -10 -600
l3 -555 28 -48 c15 -26 47 -60 69 -75 l42 -27 660 0 661 0 3 654 c2 517 0 656
-10 663 -7 4 -279 8 -605 8 l-592 0 -3 68 -3 67 -35 2 c-19 1 -51 -4 -70 -10z
m38 -539 l-3 -471 -30 -10 c-16 -5 -42 -19 -57 -29 l-28 -19 0 428 c0 258 4
442 10 465 10 34 78 108 100 108 7 0 9 -160 8 -472z m1212 -253 l0 -595 -600
0 c-651 0 -645 -1 -688 55 -74 94 -27 218 94 249 l49 12 3 437 2 437 570 0
570 0 0 -595z"/>
<path d="M2808 3472 c-181 -148 -193 -160 -196 -194 -4 -44 24 -78 63 -78 l25
0 0 -175 c0 -186 6 -215 47 -234 15 -7 116 -11 289 -11 l265 0 24 25 c25 24
25 26 25 210 l0 185 25 0 c59 0 85 77 43 123 -25 26 -307 262 -348 290 -13 9
-34 17 -47 17 -14 0 -94 -59 -215 -158z m388 -59 c157 -130 165 -138 136 -141
-17 -2 -35 -9 -41 -16 -6 -7 -12 -90 -13 -207 l-3 -194 -239 -3 c-165 -2 -243
1 -252 9 -10 8 -14 57 -16 208 l-3 196 -39 5 -40 5 169 138 c93 75 171 137
172 137 2 0 78 -62 169 -137z"/>
<path d="M2946 3184 c-11 -11 -16 -35 -16 -79 0 -82 12 -95 90 -95 90 0 90 0
90 95 0 95 0 95 -90 95 -40 0 -64 -5 -74 -16z"/>
</g>
</svg>
