<?xml version="1.0" standalone="no"?>
<!DOCTYPE svg PUBLIC "-//W3C//DTD SVG 20010904//EN"
 "http://www.w3.org/TR/2001/REC-SVG-20010904/DTD/svg10.dtd">
<svg version="1.0" xmlns="http://www.w3.org/2000/svg"
 width="606.000000pt" height="615.000000pt" viewBox="0 0 606.000000 615.000000"
 preserveAspectRatio="xMidYMid meet">

<g transform="translate(0.000000,615.000000) scale(0.100000,-0.100000)"
fill="#000000" stroke="none">
<path d="M2875 5256 c-125 -30 -98 -5 -994 -904 -464 -466 -857 -866 -873
-890 -49 -71 -71 -146 -72 -242 0 -104 21 -178 71 -253 21 -30 418 -432 883
-894 967 -960 888 -894 1077 -901 120 -5 187 12 269 67 29 20 430 416 891 881
778 784 841 850 867 908 60 136 57 265 -9 398 -33 68 -82 119 -884 916 -603
599 -863 851 -898 870 -99 54 -220 70 -328 44z m255 -399 c45 -22 184 -155
743 -710 761 -756 732 -721 744 -865 4 -55 1 -85 -16 -142 l-22 -73 -414 -421
c-701 -714 -953 -960 -1015 -992 -50 -26 -65 -29 -155 -29 -173 0 -112 -50
-902 738 -787 785 -747 737 -747 897 0 154 -36 111 721 877 383 387 686 686
711 700 76 45 111 53 207 51 75 -3 99 -8 145 -31z"/>
<path d="M2430 3285 l0 -845 566 0 565 0 -3 43 c-3 46 -30 61 -36 20 l-3 -23
-525 0 -524 0 0 805 0 805 523 0 522 0 2 -542 c1 -330 6 -545 12 -551 29 -29
31 12 31 569 l0 564 -565 0 -565 0 0 -845z"/>
<path d="M2295 3988 c-3 -7 -4 -389 -3 -848 l3 -835 563 -3 563 -2 -3 47 c-2
35 -7 48 -18 48 -9 0 -16 -11 -18 -27 l-3 -28 -525 0 -524 0 0 810 0 810 23 0
c30 0 40 10 26 27 -14 17 -78 17 -84 1z"/>
<path d="M2605 3969 c-4 -6 -3 -15 2 -20 5 -5 168 -8 394 -7 333 3 384 5 384
18 0 13 -51 15 -387 18 -273 1 -389 -1 -393 -9z"/>
<path d="M2605 3799 c-4 -6 -3 -15 2 -20 5 -5 168 -8 394 -7 333 3 384 5 384
18 0 13 -51 15 -387 18 -273 1 -389 -1 -393 -9z"/>
<path d="M2605 3629 c-4 -6 -3 -15 2 -20 5 -5 168 -8 394 -7 333 3 384 5 384
18 0 13 -51 15 -387 18 -273 1 -389 -1 -393 -9z"/>
<path d="M2605 3459 c-4 -6 -3 -15 2 -20 5 -5 168 -8 394 -7 333 3 384 5 384
18 0 13 -51 15 -387 18 -273 1 -389 -1 -393 -9z"/>
<path d="M3255 3361 c-11 -5 -31 -21 -45 -36 -23 -25 -25 -34 -25 -123 0 -139
53 -298 88 -263 6 6 0 36 -18 88 -16 47 -29 110 -32 160 -6 81 -5 82 25 112
42 43 92 43 134 0 30 -30 31 -31 25 -112 -3 -50 -16 -113 -32 -160 -18 -52
-24 -82 -18 -88 35 -35 88 124 88 263 0 96 0 98 -32 129 -26 27 -41 33 -85 36
-29 1 -62 -1 -73 -6z"/>
<path d="M2602 3283 c3 -16 24 -18 237 -21 227 -2 272 3 255 29 -3 5 -115 9
-250 9 -228 0 -245 -1 -242 -17z"/>
<path d="M2722 3049 c-148 -73 -147 -297 2 -368 50 -25 111 -25 111 -1 0 9
-13 17 -36 20 -55 9 -105 46 -128 94 -36 73 -22 137 42 193 63 55 142 56 209
3 20 -17 42 -30 47 -30 19 0 12 36 -12 58 -57 54 -161 67 -235 31z"/>
<path d="M2952 2798 c3 -88 4 -93 26 -96 19 -3 22 -9 22 -53 l0 -49 315 0 315
0 0 49 c0 44 3 50 23 53 21 3 22 8 25 96 l3 92 -366 0 -366 0 3 -92z m688 -3
l0 -55 -325 0 -325 0 0 55 0 55 325 0 325 0 0 -55z m-50 -125 l0 -30 -275 0
-275 0 0 30 0 30 275 0 275 0 0 -30z"/>
</g>
</svg>
