<?xml version="1.0" standalone="no"?>
<!DOCTYPE svg PUBLIC "-//W3C//DTD SVG 20010904//EN"
 "http://www.w3.org/TR/2001/REC-SVG-20010904/DTD/svg10.dtd">
<svg version="1.0" xmlns="http://www.w3.org/2000/svg"
 width="606.000000pt" height="615.000000pt" viewBox="0 0 606.000000 615.000000"
 preserveAspectRatio="xMidYMid meet">

<g transform="translate(0.000000,615.000000) scale(0.100000,-0.100000)"
fill="#000000" stroke="none">
<path d="M2920 5269 c-30 -5 -87 -25 -126 -44 -67 -32 -119 -83 -925 -892
-775 -778 -857 -864 -886 -923 -65 -132 -66 -272 -4 -408 29 -64 76 -112 893
-925 818 -813 867 -860 937 -895 67 -33 83 -37 171 -40 108 -5 183 11 257 55
49 29 1710 1689 1760 1760 98 138 98 359 -1 505 -17 26 -416 429 -886 896
-941 932 -889 887 -1040 911 -73 12 -74 12 -150 0z m228 -409 c60 -28 118 -83
749 -713 787 -785 748 -737 748 -907 0 -168 43 -116 -742 -902 -751 -752 -727
-730 -859 -744 -74 -8 -171 15 -234 56 -25 16 -354 339 -731 717 -659 660
-688 690 -709 748 -30 81 -25 215 10 290 19 40 156 184 709 738 699 701 722
722 818 747 67 17 168 4 241 -30z"/>
<path d="M3582 4128 c-10 -10 2 -27 55 -80 l67 -68 -399 0 c-423 -1 -493 -6
-606 -49 -174 -66 -327 -227 -390 -411 -30 -88 -38 -276 -15 -373 22 -94 78
-204 136 -268 45 -51 49 -53 66 -37 16 16 15 19 -23 62 -96 109 -147 251 -147
406 0 90 5 117 30 190 17 47 47 111 68 142 56 85 160 178 248 221 127 63 162
67 623 67 l409 0 -67 -68 c-53 -53 -65 -70 -55 -80 7 -7 17 -12 22 -12 14 0
186 172 186 185 0 13 -172 185 -186 185 -5 0 -15 -5 -22 -12z"/>
<path d="M2940 4085 l0 -25 145 0 145 0 0 25 0 25 -145 0 -145 0 0 -25z"/>
<path d="M2575 4018 c-164 -84 -302 -236 -372 -408 -25 -63 -24 -80 5 -80 12
0 25 19 40 59 63 164 205 314 373 396 44 22 55 32 52 46 -7 26 -28 23 -98 -13z"/>
<path d="M2803 3845 c-178 -50 -325 -188 -385 -363 -33 -96 -33 -258 0 -355
56 -162 187 -293 351 -349 94 -33 258 -32 353 0 182 63 331 228 369 411 17 82
7 233 -21 306 -60 159 -176 274 -335 335 -77 29 -253 38 -332 15z m262 -47
c172 -37 334 -200 375 -377 73 -315 -171 -621 -495 -621 -138 0 -255 50 -355
150 -298 298 -127 799 294 860 55 8 103 5 181 -12z"/>
<path d="M2920 3725 c0 -20 5 -25 25 -25 20 0 25 5 25 25 0 20 -5 25 -25 25
-20 0 -25 -5 -25 -25z"/>
<path d="M2801 3721 c-11 -7 -12 -15 -5 -29 13 -28 55 -12 47 17 -6 23 -19 26
-42 12z"/>
<path d="M3047 3708 c-7 -26 -8 -24 20 -32 16 -5 23 -2 28 15 5 14 2 25 -6 30
-23 14 -36 10 -42 -13z"/>
<path d="M2681 3657 c-8 -10 -7 -19 4 -33 13 -18 15 -18 31 -2 14 14 15 20 4
32 -15 19 -24 20 -39 3z"/>
<path d="M3166 3653 c-4 -9 0 -23 8 -31 12 -13 18 -13 30 -2 20 16 20 36 0 44
-24 9 -31 7 -38 -11z"/>
<path d="M2594 3568 c-9 -15 27 -41 40 -28 6 6 5 15 -4 25 -15 18 -26 19 -36
3z"/>
<path d="M2920 3448 l0 -133 -102 -102 c-97 -98 -102 -104 -85 -120 16 -17 23
-12 127 92 l110 110 0 142 0 143 -25 0 -25 0 0 -132z"/>
<path d="M3261 3567 c-8 -10 -7 -19 4 -33 12 -17 15 -18 30 -3 17 17 11 49
-10 49 -7 0 -18 -6 -24 -13z"/>
<path d="M2530 3446 c0 -16 37 -28 46 -15 8 14 -5 29 -27 29 -10 0 -19 -6 -19
-14z"/>
<path d="M3318 3454 c-12 -11 5 -44 23 -44 22 0 31 13 23 34 -6 15 -35 22 -46
10z"/>
<path d="M2510 3305 c0 -18 5 -25 20 -25 15 0 20 7 20 25 0 18 -5 25 -20 25
-15 0 -20 -7 -20 -25z"/>
<path d="M3340 3305 c0 -20 5 -25 25 -25 20 0 25 5 25 25 0 20 -5 25 -25 25
-20 0 -25 -5 -25 -25z"/>
<path d="M2542 3202 c-16 -3 -22 -8 -18 -19 3 -8 6 -19 6 -24 0 -11 21 -12 38
-1 21 14 1 48 -26 44z"/>
<path d="M3317 3176 c-5 -13 12 -26 34 -26 15 0 10 27 -7 34 -21 8 -21 8 -27
-8z"/>
<path d="M2593 3083 c-18 -7 -16 -28 3 -43 12 -11 18 -11 30 2 27 26 3 56 -33
41z"/>
<path d="M3254 3068 c-9 -15 27 -41 40 -28 6 6 5 15 -4 25 -15 18 -26 19 -36
3z"/>
<path d="M2680 2985 c-10 -12 -10 -18 0 -30 16 -20 36 -19 44 1 6 16 -9 44
-24 44 -4 0 -13 -7 -20 -15z"/>
<path d="M3170 2984 c-11 -12 -10 -18 3 -32 16 -15 18 -15 34 0 13 14 14 20 3
32 -7 9 -16 16 -20 16 -4 0 -13 -7 -20 -16z"/>
<path d="M2795 2920 c-8 -25 -7 -25 21 -34 17 -5 23 -2 27 16 7 26 8 24 -20
32 -16 5 -23 2 -28 -14z"/>
<path d="M3063 2933 c-15 -5 -17 -39 -4 -47 17 -11 42 6 39 27 -3 22 -15 29
-35 20z"/>
<path d="M2920 2890 c0 -15 7 -20 25 -20 18 0 25 5 25 20 0 15 -7 20 -25 20
-18 0 -25 -5 -25 -20z"/>
<path d="M3399 3775 c-16 -16 -13 -22 34 -83 153 -203 178 -440 70 -661 -51
-103 -170 -224 -268 -274 -144 -72 -133 -71 -615 -75 l-435 -3 68 69 c65 65
67 69 49 85 -17 16 -23 12 -112 -78 l-95 -95 97 -97 c93 -93 99 -97 115 -80
16 16 14 21 -52 87 l-69 70 429 0 c478 0 503 3 630 65 173 86 302 246 352 435
20 79 23 242 4 320 -19 80 -94 227 -143 283 -40 45 -44 47 -59 32z"/>
<path d="M3684 3464 c4 -10 9 -50 13 -90 6 -71 7 -74 31 -74 l25 0 -7 75 c-9
96 -13 105 -43 105 -19 0 -24 -4 -19 -16z"/>
<path d="M2144 3258 c16 -127 16 -129 39 -126 12 2 22 8 22 13 -1 6 -5 45 -9
88 -8 73 -10 77 -33 77 -24 0 -25 -2 -19 -52z"/>
<path d="M3663 3072 c-35 -106 -119 -238 -201 -314 -58 -54 -159 -122 -208
-140 -22 -8 -34 -19 -34 -30 0 -30 25 -31 81 -2 166 83 291 212 373 384 20 41
36 82 36 91 0 23 -40 32 -47 11z"/>
<path d="M2660 2525 l0 -25 145 0 145 0 0 25 0 25 -145 0 -145 0 0 -25z"/>
</g>
</svg>
