<?xml version="1.0" standalone="no"?>
<!DOCTYPE svg PUBLIC "-//W3C//DTD SVG 20010904//EN"
 "http://www.w3.org/TR/2001/REC-SVG-20010904/DTD/svg10.dtd">
<svg version="1.0" xmlns="http://www.w3.org/2000/svg"
 width="606.000000pt" height="615.000000pt" viewBox="0 0 606.000000 615.000000"
 preserveAspectRatio="xMidYMid meet">

<g transform="translate(0.000000,615.000000) scale(0.100000,-0.100000)"
fill="#000000" stroke="none">
<path d="M2893 5265 c-61 -17 -124 -47 -170 -82 -17 -13 -407 -403 -865 -866
-914 -922 -874 -877 -900 -1026 -9 -56 -9 -86 0 -142 26 -153 -21 -99 920
-1040 839 -837 859 -856 936 -895 79 -39 81 -39 195 -39 113 0 118 1 193 37
76 36 92 52 920 883 464 466 855 866 871 889 48 72 70 164 65 272 -5 83 -10
104 -41 167 -34 68 -83 119 -889 923 -642 639 -866 857 -904 877 -104 55 -226
70 -331 42z m259 -398 c48 -23 168 -139 746 -715 559 -557 694 -696 713 -737
20 -42 24 -66 24 -155 0 -95 -3 -110 -28 -160 -22 -45 -156 -185 -705 -737
-773 -779 -723 -738 -887 -738 -162 0 -118 -35 -886 725 -370 365 -687 687
-705 715 -45 68 -68 160 -59 242 14 129 0 114 747 861 783 782 726 735 894
729 74 -2 100 -8 146 -30z"/>
<path d="M2904 4070 c-96 -19 -188 -89 -233 -177 -10 -21 -25 -68 -32 -103 -7
-36 -21 -78 -31 -95 -22 -37 -23 -84 -3 -133 17 -40 52 -82 69 -82 6 0 19 -18
29 -39 10 -22 33 -59 52 -84 34 -44 34 -44 16 -73 -27 -45 -53 -57 -221 -103
-239 -67 -240 -68 -240 -323 0 -122 4 -178 12 -186 9 -9 111 -12 399 -12 323
0 388 2 398 14 10 12 8 46 -8 156 -24 160 -24 172 -10 148 5 -10 21 -18 34
-18 l25 0 0 -133 c0 -117 2 -136 18 -150 16 -15 50 -17 270 -17 l251 0 20 26
c19 24 21 40 21 150 0 113 2 124 18 124 26 0 42 20 42 54 0 25 -25 55 -162
193 -142 143 -166 163 -194 163 -29 0 -51 -19 -189 -162 -86 -90 -161 -172
-166 -183 -6 -13 -7 -2 -3 35 4 30 7 75 8 100 l1 45 -106 3 c-134 3 -139 -1
-117 -92 12 -52 13 -78 4 -142 l-12 -79 -32 152 -33 152 23 33 c13 18 23 34
24 36 0 1 23 -7 49 -19 55 -25 140 -23 192 4 29 15 30 15 46 -13 22 -36 54
-47 75 -26 15 15 15 20 -7 59 l-24 43 38 50 c21 27 44 63 53 81 8 17 26 36 39
42 54 25 83 163 45 212 -11 13 -22 48 -25 77 -24 204 -212 334 -423 292z m196
-91 c65 -28 125 -95 145 -162 26 -87 26 -87 -57 -71 -91 17 -200 70 -256 123
-24 22 -50 41 -58 41 -7 0 -25 -17 -38 -39 -24 -37 -102 -111 -118 -111 -11 0
-10 21 4 61 53 156 220 226 378 158z m-22 -279 c37 -12 102 -26 145 -32 l77
-11 0 -32 c0 -35 -33 -85 -56 -85 -7 0 -26 -24 -40 -52 -74 -148 -177 -212
-279 -174 -54 21 -125 96 -162 170 -18 37 -34 57 -50 61 -24 6 -53 56 -53 89
0 8 32 32 73 53 39 21 90 56 112 78 l40 40 63 -42 c34 -23 93 -52 130 -63z
m607 -676 c-12 -9 -15 -39 -15 -153 l0 -141 -220 0 -220 0 0 135 c0 121 -2
137 -19 152 -19 16 -15 21 107 150 l127 134 127 -133 c106 -110 125 -135 113
-144z m-904 -84 l45 -210 -223 0 -223 0 0 144 c0 189 -4 184 180 236 74 21
144 38 155 39 19 1 25 -17 66 -209z m237 178 c-2 -18 -11 -24 -35 -26 -18 -2
-33 1 -33 7 0 5 -3 16 -6 25 -5 13 2 16 36 16 37 0 41 -2 38 -22z m-3 -130
c16 -95 35 -225 35 -240 0 -16 -10 -18 -71 -18 -62 0 -70 2 -65 18 2 9 12 74
22 145 l17 127 28 0 c24 0 29 -5 34 -32z"/>
<path d="M3364 2977 c-3 -8 -4 -45 -2 -83 l3 -69 80 0 80 0 3 83 3 82 -81 0
c-58 0 -82 -4 -86 -13z"/>
</g>
</svg>
