<?xml version="1.0" standalone="no"?>
<!DOCTYPE svg PUBLIC "-//W3C//DTD SVG 20010904//EN"
 "http://www.w3.org/TR/2001/REC-SVG-20010904/DTD/svg10.dtd">
<svg version="1.0" xmlns="http://www.w3.org/2000/svg"
 width="606.000000pt" height="615.000000pt" viewBox="0 0 606.000000 615.000000"
 preserveAspectRatio="xMidYMid meet">

<g transform="translate(0.000000,615.000000) scale(0.100000,-0.100000)"
fill="#000000" stroke="none">
<path d="M2890 5274 c-30 -8 -79 -29 -109 -47 -36 -22 -318 -298 -897 -880
-813 -817 -844 -850 -881 -924 -38 -76 -38 -78 -38 -198 0 -120 0 -122 37
-196 35 -71 75 -112 885 -920 466 -466 867 -858 890 -873 144 -89 344 -88 486
1 49 31 31 13 999 988 691 696 746 755 772 813 40 91 52 179 37 266 -26 151
14 107 -929 1047 -730 729 -866 860 -917 886 -104 53 -225 67 -335 37z m271
-396 c44 -22 177 -149 730 -697 372 -369 691 -692 708 -718 43 -64 56 -114 55
-208 -1 -149 35 -106 -717 -865 -368 -371 -689 -689 -715 -707 -62 -43 -159
-67 -236 -59 -131 14 -114 -2 -859 737 -792 785 -752 736 -752 909 0 91 3 112
24 155 19 39 174 201 691 722 367 370 679 683 695 694 15 12 52 33 84 46 48
20 69 23 147 20 73 -2 100 -8 145 -29z"/>
<path d="M2567 4003 c-13 -13 -7 -59 13 -90 l19 -32 -104 -63 c-121 -72 -123
-76 -72 -162 45 -79 58 -80 171 -12 52 31 98 56 103 56 5 0 19 -18 32 -40 16
-29 29 -40 46 -40 21 0 35 21 104 153 79 149 98 212 69 221 -24 8 -375 16
-381 9z m302 -80 c0 -5 -21 -50 -47 -101 l-47 -92 -18 30 c-26 43 -52 39 -157
-25 -50 -30 -95 -55 -99 -55 -11 0 -23 29 -16 40 2 4 47 33 99 64 52 31 98 61
101 66 3 5 -1 25 -9 45 l-15 35 105 0 c57 0 104 -3 103 -7z"/>
<path d="M3327 4004 c-4 -4 -7 -296 -7 -649 0 -692 -1 -682 49 -655 21 11 21
15 21 625 l0 615 100 0 100 0 0 -614 c0 -548 2 -615 16 -627 11 -9 20 -10 32
-2 16 9 17 64 17 659 l0 649 -161 3 c-88 1 -163 -1 -167 -4z"/>
<path d="M2837 3583 c-4 -3 -7 -203 -7 -444 0 -388 2 -438 16 -443 8 -3 24 -1
35 4 18 10 19 26 19 415 l0 405 100 0 100 0 2 -406 c3 -367 5 -408 20 -417 12
-8 21 -7 32 2 14 12 16 63 16 440 0 319 -3 430 -12 439 -13 13 -309 18 -321 5z"/>
<path d="M2347 3294 c-4 -4 -7 -139 -7 -300 0 -256 2 -293 16 -298 8 -3 24 -1
35 4 18 10 19 24 19 270 l0 260 100 0 100 0 0 -264 c0 -231 2 -265 16 -270 8
-3 24 -1 35 4 19 10 19 23 17 303 l-3 292 -161 3 c-88 1 -163 -1 -167 -4z"/>
<path d="M2280 2615 c-6 -8 -10 -22 -8 -32 3 -17 39 -18 725 -21 720 -2 722
-2 728 18 16 51 36 50 -725 50 -606 0 -709 -2 -720 -15z"/>
</g>
</svg>
