<svg xmlns="http://www.w3.org/2000/svg" width="211.01" height="149.377" viewBox="0 0 211.01 149.377">
  <g id="Group_3518" data-name="Group 3518" transform="translate(-265.519 -3879.608)">
    <g id="Group_3516" data-name="Group 3516">
      <g id="Group_2838" data-name="Group 2838" transform="translate(423.496 3940.786)">
        <path id="Path_3577" data-name="Path 3577" d="M11.292,6.723a2.45,2.45,0,0,0,.717-1.756,2.486,2.486,0,0,0-.737-1.758L2.191-5.83a2.474,2.474,0,0,0-1.76-.729,2.447,2.447,0,0,0-1.754.723L-10.3,3.181a2.45,2.45,0,0,0-.717,1.756,2.482,2.482,0,0,0,.737,1.758l9.08,9.042a2.491,2.491,0,0,0,1.76.729,2.454,2.454,0,0,0,1.754-.725Z" transform="translate(11.016 6.559)" fill="#053972"/>
      </g>
      <g id="Group_2839" data-name="Group 2839" transform="translate(453.465 3947.556)">
        <path id="Path_3578" data-name="Path 3578" d="M3.953,2.354A.852.852,0,0,0,4.2,1.74a.876.876,0,0,0-.257-.616L.767-2.041A.865.865,0,0,0,.152-2.3a.864.864,0,0,0-.614.253L-3.6,1.114a.869.869,0,0,0-.251.614.869.869,0,0,0,.259.616L-.419,5.509A.873.873,0,0,0,.2,5.764.857.857,0,0,0,.81,5.509Z" transform="translate(3.856 2.296)" fill="#9a9b9f"/>
      </g>
      <g id="Group_2840" data-name="Group 2840" transform="translate(468.469 3947.556)">
        <path id="Path_3579" data-name="Path 3579" d="M3.953,2.354A.852.852,0,0,0,4.2,1.74a.876.876,0,0,0-.257-.616L.767-2.041A.865.865,0,0,0,.152-2.3a.864.864,0,0,0-.614.253L-3.6,1.114a.869.869,0,0,0-.251.614.869.869,0,0,0,.259.616L-.419,5.509A.873.873,0,0,0,.2,5.764.857.857,0,0,0,.81,5.509Z" transform="translate(3.856 2.296)" fill="#9a9b9f"/>
      </g>
      <g id="Group_2841" data-name="Group 2841" transform="translate(267.019 3881.108)">
        <path id="Path_3580" data-name="Path 3580" d="M71.767,42.625a15.808,15.808,0,0,0-.049-22.338L14.195-36.984a15.683,15.683,0,0,0-11.178-4.6,15.68,15.68,0,0,0-11.16,4.647L-65.416,20.584a15.681,15.681,0,0,0-4.6,11.182,15.682,15.682,0,0,0,4.647,11.158L-7.844,100.2a15.689,15.689,0,0,0,11.18,4.6,15.683,15.683,0,0,0,11.16-4.647ZM3.15,83.18a11.105,11.105,0,0,1-7.922-3.256l-40.75-40.57a11.12,11.12,0,0,1-3.291-7.906,11.109,11.109,0,0,1,3.256-7.92L-4.985-17.22a11.113,11.113,0,0,1,7.908-3.295,11.106,11.106,0,0,1,7.914,3.258L51.591,23.316a11.2,11.2,0,0,1,.034,15.824L11.054,79.89a11.119,11.119,0,0,1-7.9,3.291" transform="translate(70.013 41.583)" fill="none" stroke="#e06043" stroke-width="3"/>
      </g>
      <g id="Group_2842" data-name="Group 2842" transform="translate(281.668 3894.516)">
        <path id="Path_3581" data-name="Path 3581" d="M57.281,34.107A12.434,12.434,0,0,0,60.918,25.2a12.6,12.6,0,0,0-3.738-8.916L11.122-29.574a12.608,12.608,0,0,0-8.932-3.7A12.419,12.419,0,0,0-6.7-29.6L-52.242,16.141a12.441,12.441,0,0,0-3.639,8.91,12.6,12.6,0,0,0,3.74,8.916L-6.083,79.825a12.612,12.612,0,0,0,8.935,3.7,12.423,12.423,0,0,0,8.89-3.68Z" transform="translate(55.881 33.274)" fill="#fff"/>
      </g>
    </g>
    <g id="Group_2843" data-name="Group 2843" transform="translate(315.523 3923.991)">
      <path id="Path_3582" data-name="Path 3582" d="M18.28,6.423V6.366C18.28-.952,13.1-6.266,5.965-6.266S-6.351-.952-6.351,6.366v.057c-1.361.763-1.831,2.795-1.108,5.067a4.639,4.639,0,0,0,2.991,3.378A17.794,17.794,0,0,0-.731,20.531,5.483,5.483,0,0,1-4.755,24.49c-.028.006-.057.012-.085.02l-9.167,2.519a5.22,5.22,0,0,0-3.825,5.02V42.894a1.068,1.068,0,0,0,1.069,1.067H1.968s0,0,0,0h0l0,0H9.957a1.067,1.067,0,0,0,1.057-1.221L9.169,30.061l.964-3.993A1.067,1.067,0,0,0,9.094,24.75H2.833a1.069,1.069,0,0,0-1.039,1.318l.964,3.993-.992,6.83L-.867,24.748a7.875,7.875,0,0,0,1.9-2.762,8.814,8.814,0,0,0,4.929,1.608A8.793,8.793,0,0,0,10.87,22a7.777,7.777,0,0,0,1.413,2.292,1.068,1.068,0,1,0,1.6-1.416,5.407,5.407,0,0,1-1.227-2.343,17.755,17.755,0,0,0,3.74-5.666,4.643,4.643,0,0,0,2.991-3.378c.723-2.272.253-4.3-1.108-5.067M5.965-4.128c5.79,0,10.01,4.257,10.162,10.166C6.48,5.163,3.175.332,3.144.285A1.059,1.059,0,0,0,2.158-.2a1.067,1.067,0,0,0-.9.644C.17,2.993-2.5,4.683-4.178,5.534A9.931,9.931,0,0,1,5.965-4.128M3.207,41.825,4.771,31.08H7.158L8.721,41.825Zm4.53-14.939-.5,2.055H4.688l-.5-2.055ZM.648,41.825H-15.7V32.05a3.076,3.076,0,0,1,2.256-2.959l9.127-2.509a6.457,6.457,0,0,0,1.545-.518Zm16.7-30.981c-.421,1.328-1.195,1.991-1.549,1.944a1.07,1.07,0,0,0-1.136.668c-1.942,4.935-5.277,8-8.7,8s-6.76-3.064-8.7-8a1.066,1.066,0,0,0-.994-.676,1.13,1.13,0,0,0-.142.008c-.369.047-1.128-.616-1.551-1.946-.437-1.377-.186-2.462.172-2.578a.457.457,0,0,1,.075-.01c.014,0,.026-.006.041-.006.041-.006.081-.012.122-.022s.053-.012.079-.02.024-.006.034-.01c.223-.079,4.9-1.782,7.345-5.464C4.295,4.574,8.683,7.78,17.1,8.254h0a.4.4,0,0,1,.073.01l0-.01h0l0,.01c.358.115.61,1.2.17,2.58" transform="translate(17.833 6.266)" fill="#e06043"/>
    </g>
    <g id="Group_2844" data-name="Group 2844" transform="translate(343.349 3949.144)">
      <path id="Path_3583" data-name="Path 3583" d="M10.4,12.693H-5.611a2.146,2.146,0,0,1-2.143-2.143V2.1h-.618A1.766,1.766,0,0,1-10,1.017,1.77,1.77,0,0,1-9.645-.905L.79-11.7h0a2.217,2.217,0,0,1,1.6-.68h0A2.211,2.211,0,0,1,4-11.7L14.432-.905a1.77,1.77,0,0,1,.356,1.922A1.768,1.768,0,0,1,13.159,2.1h-.62v8.455A2.145,2.145,0,0,1,10.4,12.693M-7.507-.042h.822A1.07,1.07,0,0,1-5.615,1.027v9.524l16.012.006.006-9.53A1.07,1.07,0,0,1,11.472-.042h.822L2.46-10.216a.089.089,0,0,0-.067-.028.1.1,0,0,0-.069.028Z" transform="translate(10.143 12.383)" fill="#e06043"/>
    </g>
  </g>
</svg>
