<svg xmlns="http://www.w3.org/2000/svg" width="223.834" height="153.598" viewBox="0 0 223.834 153.598">
  <g id="Group_3521" data-name="Group 3521" transform="translate(-976.846 -3879.607)">
    <g id="Group_2917" data-name="Group 2917" transform="translate(978.346 3881.107)">
      <path id="Path_3660" data-name="Path 3660" d="M75.856,45.053a16.264,16.264,0,0,0-.05-22.983L16.623-36.851a16.135,16.135,0,0,0-11.5-4.732A16.132,16.132,0,0,0-6.359-36.8L-65.284,22.377a16.133,16.133,0,0,0-4.729,11.5,16.134,16.134,0,0,0,4.782,11.48l59.18,58.924a16.142,16.142,0,0,0,11.5,4.729,16.135,16.135,0,0,0,11.482-4.782ZM5.26,86.778a11.425,11.425,0,0,1-8.15-3.35l-41.925-41.74A11.441,11.441,0,0,1-48.2,33.555a11.429,11.429,0,0,1,3.35-8.148L-3.109-16.517a11.434,11.434,0,0,1,8.136-3.39,11.427,11.427,0,0,1,8.142,3.352L55.1,25.187a11.521,11.521,0,0,1,.035,16.28L13.392,83.393A11.44,11.44,0,0,1,5.26,86.778" transform="translate(70.013 41.583)" fill="none" stroke="#e06043" stroke-width="3"/>
    </g>
    <g id="Group_2918" data-name="Group 2918" transform="translate(993.418 3894.903)">
      <path id="Path_3661" data-name="Path 3661" d="M60.544,36.051a12.793,12.793,0,0,0,3.742-9.165,12.965,12.965,0,0,0-3.846-9.173L13.054-29.468a12.971,12.971,0,0,0-9.19-3.806A12.778,12.778,0,0,0-5.284-29.49L-52.137,17.566a12.8,12.8,0,0,0-3.744,9.167,12.967,12.967,0,0,0,3.848,9.173l47.386,47.18a12.976,12.976,0,0,0,9.192,3.806,12.782,12.782,0,0,0,9.146-3.786Z" transform="translate(55.881 33.274)" fill="#fff"/>
    </g>
    <g id="Group_2926" data-name="Group 2926" transform="translate(1016.781 3928.9)">
      <path id="Path_3669" data-name="Path 3669" d="M29.642,14.892V43.437H-7.952V-13.745H29.642V14.892ZM32.965-6.843,49.051-.992,42.418,17.248v.01l-1.129,3.094L33.551,41.614l-.585-.213m-44.238,0-.588.213-7.734-21.262-1.133-3.094v-.01L-27.359-.992l16.086-5.854m9.567-.7H23.4m-25.1,29.533H23.4m-25.1,5.194H23.4m-25.1,5.192H23.4m-25.1,5.192H23.4M4.787-2.894H16.906M6.3,15.6H-1.705V5.435H6.3ZM12.254,5.435H23.4M12.254,10.519H23.4M12.254,15.6H23.4M41.626,3.2,32.965.05m-44.238,0L-19.934,3.2m59.56,5.5L32.965,6.279m-44.238,0L-17.938,8.7m55.551,5.519-4.648-1.688m-44.238,0-4.65,1.688m51.526,5.5-2.638-.96m-44.238,0-2.638.96M33.6,25.247l-.638-.233m-44.238,0-.638.233" transform="translate(27.359 13.745)" fill="none" stroke="#e06043" stroke-linecap="round" stroke-linejoin="round" stroke-width="1.8"/>
    </g>
    <g id="Group_2948" data-name="Group 2948" transform="translate(1148.775 3945.648)">
      <path id="Path_3693" data-name="Path 3693" d="M11.935,7.106A2.52,2.52,0,0,0,12.673,5.3a2.557,2.557,0,0,0-.758-1.808l-9.342-9.3a2.545,2.545,0,0,0-1.811-.75,2.518,2.518,0,0,0-1.8.744l-9.236,9.278a2.52,2.52,0,0,0-.738,1.806,2.554,2.554,0,0,0,.758,1.808l9.342,9.3A2.563,2.563,0,0,0,.9,17.13a2.525,2.525,0,0,0,1.8-.746Z" transform="translate(11.016 6.559)" fill="#053972"/>
    </g>
    <g id="Group_2952" data-name="Group 2952" transform="translate(1179.608 3952.612)">
      <path id="Path_3697" data-name="Path 3697" d="M4.178,2.488a.877.877,0,0,0,.258-.631.9.9,0,0,0-.265-.633L.9-2.033A.89.89,0,0,0,.267-2.3a.889.889,0,0,0-.631.26L-3.6,1.213a.894.894,0,0,0-.258.631.894.894,0,0,0,.267.633L-.32,5.734A.9.9,0,0,0,.313,6a.882.882,0,0,0,.631-.263Z" transform="translate(3.856 2.296)" fill="#9a9b9f"/>
    </g>
    <g id="Group_2955" data-name="Group 2955" transform="translate(1192.388 3952.612)">
      <path id="Path_3699" data-name="Path 3699" d="M4.178,2.488a.877.877,0,0,0,.258-.631.9.9,0,0,0-.265-.633L.9-2.033A.89.89,0,0,0,.267-2.3a.889.889,0,0,0-.631.26L-3.6,1.213a.894.894,0,0,0-.258.631.894.894,0,0,0,.267.633L-.32,5.734A.9.9,0,0,0,.313,6a.882.882,0,0,0,.631-.263Z" transform="translate(3.856 2.296)" fill="#9a9b9f"/>
    </g>
  </g>
</svg>
