<svg xmlns="http://www.w3.org/2000/svg" width="222.48" height="153.598" viewBox="0 0 222.48 153.598">
  <g id="Group_3522" data-name="Group 3522" transform="translate(-976.712 -4094.953)">
    <g id="Group_2919" data-name="Group 2919" transform="translate(978.212 4096.453)">
      <path id="Path_3662" data-name="Path 3662" d="M75.856,45.053a16.264,16.264,0,0,0-.05-22.983L16.623-36.851a16.135,16.135,0,0,0-11.5-4.732A16.132,16.132,0,0,0-6.359-36.8L-65.284,22.377a16.133,16.133,0,0,0-4.729,11.5,16.134,16.134,0,0,0,4.782,11.48l59.18,58.924a16.142,16.142,0,0,0,11.5,4.729,16.135,16.135,0,0,0,11.482-4.782ZM5.26,86.778a11.425,11.425,0,0,1-8.15-3.35l-41.925-41.74A11.441,11.441,0,0,1-48.2,33.555a11.429,11.429,0,0,1,3.35-8.148L-3.109-16.517a11.434,11.434,0,0,1,8.136-3.39,11.427,11.427,0,0,1,8.142,3.352L55.1,25.187a11.521,11.521,0,0,1,.035,16.28L13.392,83.393A11.44,11.44,0,0,1,5.26,86.778" transform="translate(70.013 41.583)" fill="none" stroke="#e06043" stroke-width="3"/>
    </g>
    <g id="Group_2920" data-name="Group 2920" transform="translate(993.284 4110.249)">
      <path id="Path_3663" data-name="Path 3663" d="M60.544,36.051a12.793,12.793,0,0,0,3.742-9.165,12.965,12.965,0,0,0-3.846-9.173L13.054-29.468a12.971,12.971,0,0,0-9.19-3.806A12.778,12.778,0,0,0-5.284-29.49L-52.137,17.566a12.8,12.8,0,0,0-3.744,9.167,12.967,12.967,0,0,0,3.848,9.173l47.386,47.18a12.976,12.976,0,0,0,9.192,3.806,12.782,12.782,0,0,0,9.146-3.786Z" transform="translate(55.881 33.274)" fill="#fff"/>
    </g>
    <g id="Group_2921" data-name="Group 2921" transform="translate(1023.784 4140.567)">
      <path id="Path_3664" data-name="Path 3664" d="M7.221,28.178H-6.665V-26.008H28.949V-.032M-.748-20.137H23.037M-.748-14.18H23.037M-.748-8.222H23.037M-.748-2.265H23.037M-.748,3.694h8.73M-.748,9.65h8.73m-8.73,5.877h8.73m3.859-8.2V29.285M33.077,7.327c0-2.375-4.754-4.3-10.619-4.3S11.84,4.952,11.84,7.327s4.752,4.3,10.617,4.3S33.077,9.7,33.077,7.327Zm0,10.238V7.327M11.84,12.817c0,2.375,4.752,4.3,10.617,4.3s10.619-1.925,10.619-4.3M11.84,18.307c0,2.377,4.752,4.3,10.615,4.3a22.728,22.728,0,0,0,6.14-.783M11.84,23.791c0,2.377,4.752,4.3,10.615,4.3a22.806,22.806,0,0,0,6.14-.785M11.84,29.287c0,2.375,4.752,4.3,10.615,4.3a22.664,22.664,0,0,0,6.28-.827m21.1-11.678c0-2.375-4.754-4.3-10.617-4.3S28.6,18.707,28.6,21.082s4.754,4.3,10.619,4.3S49.834,23.457,49.834,21.082ZM28.6,32.062V21.082m21.239,10.98V21.082M28.6,26.572c0,2.375,4.754,4.3,10.619,4.3s10.617-1.925,10.617-4.3M28.6,32.06c0,2.377,4.754,4.3,10.619,4.3s10.617-1.925,10.617-4.3M41.815-5.757A2.419,2.419,0,0,0,39.4-8.176a2.42,2.42,0,0,0-2.421,2.419A2.42,2.42,0,0,0,39.4-3.336,2.42,2.42,0,0,0,41.815-5.757ZM48.357,5.725a2.42,2.42,0,1,0-2.421,2.419A2.42,2.42,0,0,0,48.357,5.725Zm.9-14.657L36.706,7.327" transform="translate(6.665 26.008)" fill="none" stroke="#e06043" stroke-linecap="round" stroke-linejoin="round" stroke-width="1.68"/>
    </g>
    <g id="Group_2947" data-name="Group 2947" transform="translate(1144.63 4158.094)">
      <path id="Path_3692" data-name="Path 3692" d="M11.935,7.106A2.52,2.52,0,0,0,12.673,5.3a2.557,2.557,0,0,0-.758-1.808l-9.342-9.3a2.545,2.545,0,0,0-1.811-.75,2.518,2.518,0,0,0-1.8.744l-9.236,9.278a2.52,2.52,0,0,0-.738,1.806,2.554,2.554,0,0,0,.758,1.808l9.342,9.3A2.556,2.556,0,0,0,.9,17.13a2.525,2.525,0,0,0,1.8-.746Z" transform="translate(11.016 6.559)" fill="#053972"/>
    </g>
    <g id="Group_2951" data-name="Group 2951" transform="translate(1175.463 4165.059)">
      <path id="Path_3696" data-name="Path 3696" d="M4.178,2.488a.877.877,0,0,0,.258-.631.9.9,0,0,0-.265-.633L.9-2.033A.89.89,0,0,0,.267-2.3a.889.889,0,0,0-.631.26L-3.6,1.213a.894.894,0,0,0-.258.631.894.894,0,0,0,.267.633L-.32,5.734A.9.9,0,0,0,.313,6a.882.882,0,0,0,.631-.263Z" transform="translate(3.856 2.296)" fill="#9a9b9f"/>
    </g>
    <g id="Group_2954" data-name="Group 2954" transform="translate(1190.899 4165.059)">
      <path id="Path_3699" data-name="Path 3699" d="M4.178,2.488a.877.877,0,0,0,.258-.631.9.9,0,0,0-.265-.633L.9-2.033A.89.89,0,0,0,.267-2.3a.889.889,0,0,0-.631.26L-3.6,1.213a.894.894,0,0,0-.258.631.894.894,0,0,0,.267.633L-.32,5.734A.9.9,0,0,0,.313,6a.882.882,0,0,0,.631-.263Z" transform="translate(3.856 2.296)" fill="#9a9b9f"/>
    </g>
  </g>
</svg>
