<svg xmlns="http://www.w3.org/2000/svg" width="213.551" height="149.376" viewBox="0 0 213.551 149.376">
  <g id="Group_3518" data-name="Group 3518" transform="translate(-263.18 -4295.035)">
    <path id="Path_3641" data-name="Path 3641" d="M71.767,42.625a15.808,15.808,0,0,0-.049-22.338L14.195-36.984a15.683,15.683,0,0,0-11.178-4.6,15.68,15.68,0,0,0-11.16,4.647L-65.416,20.584a15.681,15.681,0,0,0-4.6,11.182,15.682,15.682,0,0,0,4.647,11.158L-7.844,100.2a15.689,15.689,0,0,0,11.18,4.6,15.683,15.683,0,0,0,11.16-4.647ZM3.15,83.18a11.105,11.105,0,0,1-7.922-3.256l-40.75-40.57a11.12,11.12,0,0,1-3.291-7.906,11.109,11.109,0,0,1,3.256-7.92L-4.985-17.22a11.113,11.113,0,0,1,7.908-3.295,11.106,11.106,0,0,1,7.914,3.258L51.591,23.316a11.2,11.2,0,0,1,.034,15.824L11.054,79.89a11.119,11.119,0,0,1-7.9,3.291" transform="translate(334.693 4338.118)" fill="none" stroke="#e06043" stroke-width="3"/>
    <path id="Path_3642" data-name="Path 3642" d="M57.281,34.107A12.434,12.434,0,0,0,60.918,25.2a12.6,12.6,0,0,0-3.738-8.916L11.122-29.574a12.608,12.608,0,0,0-8.932-3.7A12.419,12.419,0,0,0-6.7-29.6L-52.242,16.141a12.441,12.441,0,0,0-3.639,8.91,12.6,12.6,0,0,0,3.74,8.916L-6.083,79.825a12.612,12.612,0,0,0,8.935,3.7,12.423,12.423,0,0,0,8.89-3.68Z" transform="translate(335.211 4343.219)" fill="#fff"/>
    <path id="Path_3643" data-name="Path 3643" d="M25.676,26.235H-17.218A7.839,7.839,0,0,1-25.049,18.4V-17.761a7.84,7.84,0,0,1,7.831-7.833,1.1,1.1,0,0,1,1.1,1.1v3.9H25.676a1.1,1.1,0,0,1,1.1,1.1V25.131a1.1,1.1,0,0,1-1.1,1.1M-22.844,18.4a5.631,5.631,0,0,0,5.626,5.626H24.573V-18.385H-16.117v30.06a1.1,1.1,0,0,1-1.1,1.1A5.633,5.633,0,0,0-22.844,18.4m4.522-41.684a5.635,5.635,0,0,0-4.522,5.518V12.961a7.826,7.826,0,0,1,4.522-2.313Z" transform="translate(335.485 4367.885)" fill="#e06043"/>
    <path id="Path_3646" data-name="Path 3646" d="M11.73,15.045H-5.315a2.824,2.824,0,0,1-2.821-2.821V.3h-.816a2.461,2.461,0,0,1-2.343-1.654,2.459,2.459,0,0,1,.77-2.762L1.767-14.146a2.222,2.222,0,0,1,2.9.018L16.689-4.141A2.44,2.44,0,0,1,17.5-1.395,2.456,2.456,0,0,1,15.146.3h-.6V12.224a2.824,2.824,0,0,1-2.821,2.821M3.247-12.443c-.006.006-.079,0-.087.006L-9.13-2.407a.259.259,0,0,0-.087.314.262.262,0,0,0,.265.188h1.918A1.1,1.1,0,0,1-5.93-.8V12.224a.617.617,0,0,0,.616.616H11.73a.615.615,0,0,0,.616-.616V-.8a1.1,1.1,0,0,1,1.1-1.1h1.7a.262.262,0,0,0,.267-.192.261.261,0,0,0-.1-.316Z" transform="translate(335.608 4369.367)" fill="#e06043"/>
    <path id="Path_3648" data-name="Path 3648" d="M2.582,3.07H-1.555a.964.964,0,0,1-.964-.964V-2.031a.964.964,0,0,1,.964-.964H2.582a.964.964,0,0,1,.964.964V2.106a.964.964,0,0,1-.964.964" transform="translate(338.191 4373.06)" fill="#e06043"/>
    <path id="Path_3649" data-name="Path 3649" d="M11.292,6.723a2.45,2.45,0,0,0,.717-1.756,2.486,2.486,0,0,0-.737-1.758L2.191-5.83a2.474,2.474,0,0,0-1.76-.729,2.447,2.447,0,0,0-1.754.723L-10.3,3.181a2.45,2.45,0,0,0-.717,1.756,2.482,2.482,0,0,0,.737,1.758l9.08,9.04a2.484,2.484,0,0,0,1.76.731,2.454,2.454,0,0,0,1.754-.725Z" transform="translate(434.713 4359.716)" fill="#053972"/>
    <path id="Path_3650" data-name="Path 3650" d="M3.953,2.354A.852.852,0,0,0,4.2,1.74a.876.876,0,0,0-.257-.616L.767-2.041A.865.865,0,0,0,.152-2.3a.864.864,0,0,0-.614.253L-3.6,1.114a.869.869,0,0,0-.251.614.869.869,0,0,0,.259.616L-.419,5.509A.873.873,0,0,0,.2,5.764.857.857,0,0,0,.81,5.509Z" transform="translate(457.523 4362.222)" fill="#9a9b9f"/>
    <path id="Path_3651" data-name="Path 3651" d="M3.953,2.354A.852.852,0,0,0,4.2,1.74a.876.876,0,0,0-.257-.616L.767-2.041A.865.865,0,0,0,.152-2.3a.864.864,0,0,0-.614.253L-3.6,1.114a.869.869,0,0,0-.251.614.869.869,0,0,0,.259.616L-.419,5.509A.873.873,0,0,0,.2,5.764.857.857,0,0,0,.81,5.509Z" transform="translate(472.527 4362.222)" fill="#9a9b9f"/>
  </g>
</svg>
