<svg xmlns="http://www.w3.org/2000/svg" width="210.119" height="149.376" viewBox="0 0 210.119 149.376">
  <g id="Group_3517" data-name="Group 3517" transform="translate(-264.071 -4083.668)">
    <g id="Group_2887" data-name="Group 2887" transform="translate(265.571 4085.168)">
      <path id="Path_3629" data-name="Path 3629" d="M71.767,42.625a15.808,15.808,0,0,0-.049-22.338L14.195-36.984a15.683,15.683,0,0,0-11.178-4.6,15.68,15.68,0,0,0-11.16,4.647L-65.416,20.584a15.681,15.681,0,0,0-4.6,11.182,15.682,15.682,0,0,0,4.647,11.158L-7.844,100.2a15.689,15.689,0,0,0,11.18,4.6,15.683,15.683,0,0,0,11.16-4.647ZM3.15,83.18a11.105,11.105,0,0,1-7.922-3.256l-40.75-40.57a11.12,11.12,0,0,1-3.291-7.906,11.109,11.109,0,0,1,3.256-7.92L-4.985-17.22a11.113,11.113,0,0,1,7.908-3.295,11.106,11.106,0,0,1,7.914,3.258L51.591,23.316a11.2,11.2,0,0,1,.034,15.824L11.054,79.89a11.119,11.119,0,0,1-7.9,3.291" transform="translate(70.013 41.583)" fill="none" stroke="#e06043" stroke-width="3"/>
    </g>
    <g id="Group_2888" data-name="Group 2888" transform="translate(280.221 4098.577)">
      <path id="Path_3630" data-name="Path 3630" d="M57.281,34.107A12.434,12.434,0,0,0,60.918,25.2a12.6,12.6,0,0,0-3.738-8.916L11.122-29.574a12.608,12.608,0,0,0-8.932-3.7A12.419,12.419,0,0,0-6.7-29.6L-52.242,16.141a12.441,12.441,0,0,0-3.639,8.91,12.6,12.6,0,0,0,3.74,8.916L-6.083,79.825a12.612,12.612,0,0,0,8.935,3.7,12.423,12.423,0,0,0,8.89-3.68Z" transform="translate(55.881 33.274)" fill="#fff"/>
    </g>
    <g id="Group_2889" data-name="Group 2889" transform="translate(316.519 4130.795)">
      <path id="Path_3631" data-name="Path 3631" d="M1.714,7.4a1.024,1.024,0,0,1-.269-.034,1.088,1.088,0,0,1-.672-.5l-2.29-3.844a1.1,1.1,0,0,1,.381-1.5L6.03-2.758l-1.669-2.8a1.1,1.1,0,0,1,0-1.12,1.118,1.118,0,0,1,.978-.539l12.252.377A1.094,1.094,0,0,1,18.5-6.3a1.1,1.1,0,0,1,.036,1.053L13.034,5.7a1.1,1.1,0,0,1-.942.6,1.075,1.075,0,0,1-.982-.535l-1.667-2.8L2.275,7.242a1.1,1.1,0,0,1-.561.154M.929,2.835,2.095,4.794,9.262.525a1.1,1.1,0,0,1,1.5.381l1.2,2.023L15.8-4.7,7.271-4.961l1.2,2.023a1.086,1.086,0,0,1,.122.83,1.092,1.092,0,0,1-.5.674Z" transform="translate(1.672 7.215)" fill="#e06043"/>
    </g>
    <g id="Group_2890" data-name="Group 2890" transform="translate(349.648 4130.553)">
      <path id="Path_3632" data-name="Path 3632" d="M5.44,23.634a1.1,1.1,0,0,1-1.1-1.1v-43.4H-3.112v43.4a1.1,1.1,0,0,1-1.1,1.1,1.1,1.1,0,0,1-1.1-1.1V-21.958a1.1,1.1,0,0,1,1.1-1.1H5.44a1.1,1.1,0,0,1,1.1,1.1V22.536a1.1,1.1,0,0,1-1.1,1.1" transform="translate(5.307 23.056)" fill="#e06043"/>
    </g>
    <g id="Group_2892" data-name="Group 2892" transform="translate(332.183 4145.725)">
      <path id="Path_3634" data-name="Path 3634" d="M5.44,15.954a1.1,1.1,0,0,1-1.1-1.1V-13.369H-3.112V14.856a1.1,1.1,0,0,1-1.1,1.1,1.1,1.1,0,0,1-1.1-1.1V-14.466a1.1,1.1,0,0,1,1.1-1.1H5.44a1.1,1.1,0,0,1,1.1,1.1V14.856a1.1,1.1,0,0,1-1.1,1.1" transform="translate(5.307 15.564)" fill="#e06043"/>
    </g>
    <g id="Group_2894" data-name="Group 2894" transform="translate(314.718 4155.838)">
      <path id="Path_3636" data-name="Path 3636" d="M5.439,10.835a1.1,1.1,0,0,1-1.1-1.1V-8.375H-3.113V9.737a1.1,1.1,0,0,1-1.1,1.1,1.1,1.1,0,0,1-1.1-1.1V-9.472a1.1,1.1,0,0,1,1.1-1.1H5.439a1.1,1.1,0,0,1,1.1,1.1V9.737a1.1,1.1,0,0,1-1.1,1.1" transform="translate(5.306 10.57)" fill="#e06043"/>
    </g>
    <g id="Group_2895" data-name="Group 2895" transform="translate(312.322 4179.924)">
      <path id="Path_3637" data-name="Path 3637" d="M25.546,1.111H-23.826a1.1,1.1,0,0,1-1.1-1.1,1.1,1.1,0,0,1,1.1-1.1H25.546a1.1,1.1,0,0,1,1.1,1.1,1.1,1.1,0,0,1-1.1,1.1" transform="translate(24.922 1.084)" fill="#e06043"/>
    </g>
    <g id="Group_2896" data-name="Group 2896" transform="translate(421.158 4146.846)">
      <path id="Path_3638" data-name="Path 3638" d="M11.292,6.723a2.45,2.45,0,0,0,.717-1.756,2.486,2.486,0,0,0-.737-1.758L2.191-5.83a2.474,2.474,0,0,0-1.76-.729,2.447,2.447,0,0,0-1.754.723L-10.3,3.181a2.45,2.45,0,0,0-.717,1.756,2.482,2.482,0,0,0,.737,1.758l9.08,9.042a2.491,2.491,0,0,0,1.76.729,2.454,2.454,0,0,0,1.754-.725Z" transform="translate(11.016 6.559)" fill="#053972"/>
    </g>
    <g id="Group_2897" data-name="Group 2897" transform="translate(451.128 4153.614)">
      <path id="Path_3639" data-name="Path 3639" d="M3.953,2.354A.852.852,0,0,0,4.2,1.74a.876.876,0,0,0-.257-.616L.767-2.041A.865.865,0,0,0,.152-2.3a.864.864,0,0,0-.614.253L-3.6,1.114a.869.869,0,0,0-.251.614.869.869,0,0,0,.259.616L-.419,5.509A.873.873,0,0,0,.2,5.764.857.857,0,0,0,.81,5.509Z" transform="translate(3.856 2.296)" fill="#9a9b9f"/>
    </g>
    <g id="Group_2898" data-name="Group 2898" transform="translate(466.131 4153.614)">
      <path id="Path_3640" data-name="Path 3640" d="M3.953,2.354A.852.852,0,0,0,4.2,1.74a.876.876,0,0,0-.257-.616L.767-2.041A.865.865,0,0,0,.152-2.3a.864.864,0,0,0-.614.253L-3.6,1.114a.869.869,0,0,0-.251.614.869.869,0,0,0,.259.616L-.419,5.509A.873.873,0,0,0,.2,5.764.857.857,0,0,0,.81,5.509Z" transform="translate(3.856 2.296)" fill="#9a9b9f"/>
    </g>
  </g>
</svg>
