<svg xmlns="http://www.w3.org/2000/svg" width="216.824" height="149.376" viewBox="0 0 216.824 149.376">
  <g id="Group_3520" data-name="Group 3520" transform="translate(-264.083 -4716.536)">
    <g id="Group_2911" data-name="Group 2911" transform="translate(265.583 4718.036)">
      <path id="Path_3653" data-name="Path 3653" d="M71.767,42.625a15.808,15.808,0,0,0-.049-22.338L14.195-36.984a15.683,15.683,0,0,0-11.178-4.6,15.68,15.68,0,0,0-11.16,4.647L-65.416,20.584a15.681,15.681,0,0,0-4.6,11.182,15.682,15.682,0,0,0,4.647,11.158L-7.844,100.2a15.689,15.689,0,0,0,11.18,4.6,15.683,15.683,0,0,0,11.16-4.647ZM3.15,83.18a11.105,11.105,0,0,1-7.922-3.256l-40.75-40.57a11.12,11.12,0,0,1-3.291-7.906,11.109,11.109,0,0,1,3.256-7.92L-4.985-17.22a11.113,11.113,0,0,1,7.908-3.295,11.106,11.106,0,0,1,7.914,3.258L51.591,23.316a11.2,11.2,0,0,1,.034,15.824L11.054,79.89a11.119,11.119,0,0,1-7.9,3.291" transform="translate(70.013 41.583)" fill="none" stroke="#e06043" stroke-width="3"/>
    </g>
    <g id="Group_2912" data-name="Group 2912" transform="translate(280.232 4731.445)">
      <path id="Path_3654" data-name="Path 3654" d="M57.281,34.107A12.434,12.434,0,0,0,60.918,25.2a12.6,12.6,0,0,0-3.738-8.916L11.122-29.574a12.608,12.608,0,0,0-8.932-3.7A12.419,12.419,0,0,0-6.7-29.6L-52.242,16.141a12.441,12.441,0,0,0-3.639,8.91,12.6,12.6,0,0,0,3.74,8.916L-6.083,79.825a12.612,12.612,0,0,0,8.935,3.7,12.423,12.423,0,0,0,8.89-3.68Z" transform="translate(55.881 33.274)" fill="#fff"/>
    </g>
    <g id="Group_2913" data-name="Group 2913" transform="translate(314.67 4759.138)">
      <path id="Path_3655" data-name="Path 3655" d="M22.216,28.976v1.983H-16.712V-28.268H22.216V11.273M-19.63-23.309h-2.043V35.908H17.265V33.875M-10.693-22.776H16.2m-26.9,6.049H16.2m-26.9,6.049H16.2m-26.9,6.049H16.2M5.657,1.425H-10.691m7.14,21.7a6.688,6.688,0,0,1-6.7-6.7,6.687,6.687,0,0,1,6.7-6.685A6.659,6.659,0,0,1,1.7,12.292m24.833,9.143H1.909V16.2H26.529Zm-1.693.008v3.839H3.6V21.443m8.649-8.157S6.011-.936,14.219-.936s1.968,14.222,1.968,14.222" transform="translate(21.673 28.268)" fill="none" stroke="#e06043" stroke-linecap="round" stroke-linejoin="round" stroke-width="1.72"/>
    </g>
    <g id="Group_2914" data-name="Group 2914" transform="translate(427.874 4778.333)">
      <path id="Path_3656" data-name="Path 3656" d="M11.292,6.723a2.45,2.45,0,0,0,.717-1.756,2.486,2.486,0,0,0-.737-1.758L2.191-5.83a2.474,2.474,0,0,0-1.76-.729,2.447,2.447,0,0,0-1.754.723L-10.3,3.181a2.45,2.45,0,0,0-.717,1.756,2.482,2.482,0,0,0,.737,1.758l9.08,9.04a2.484,2.484,0,0,0,1.76.731,2.454,2.454,0,0,0,1.754-.725Z" transform="translate(11.016 6.559)" fill="#053972"/>
    </g>
    <g id="Group_2915" data-name="Group 2915" transform="translate(457.844 4785.102)">
      <path id="Path_3657" data-name="Path 3657" d="M3.953,2.354A.852.852,0,0,0,4.2,1.74a.876.876,0,0,0-.257-.616L.767-2.041A.865.865,0,0,0,.152-2.3a.864.864,0,0,0-.614.253L-3.6,1.114a.869.869,0,0,0-.251.614.869.869,0,0,0,.259.616L-.419,5.509A.873.873,0,0,0,.2,5.764.857.857,0,0,0,.81,5.509Z" transform="translate(3.856 2.296)" fill="#9a9b9f"/>
    </g>
    <g id="Group_2916" data-name="Group 2916" transform="translate(472.848 4785.102)">
      <path id="Path_3658" data-name="Path 3658" d="M3.953,2.354A.852.852,0,0,0,4.2,1.74a.876.876,0,0,0-.257-.616L.767-2.041A.865.865,0,0,0,.152-2.3a.864.864,0,0,0-.614.253L-3.6,1.114a.869.869,0,0,0-.251.614.869.869,0,0,0,.259.616L-.419,5.509A.873.873,0,0,0,.2,5.764.857.857,0,0,0,.81,5.509Z" transform="translate(3.856 2.296)" fill="#9a9b9f"/>
    </g>
  </g>
</svg>
