<?xml version="1.0" encoding="utf-8"?>
<!-- Generator: Adobe Illustrator 26.0.1, SVG Export Plug-In . SVG Version: 6.00 Build 0)  -->
<svg version="1.1" id="Layer_1" xmlns="http://www.w3.org/2000/svg" xmlns:xlink="http://www.w3.org/1999/xlink" x="0px" y="0px"
	 viewBox="0 0 841.9 595.3" style="enable-background:new 0 0 841.9 595.3;" xml:space="preserve">
<style type="text/css">
	.st0{clip-path:url(#SVGID_00000122714001733952233210000011946629997696710044_);}
	.st1{fill:none;stroke:#E06043;stroke-width:3;}
	.st2{fill:#FFFFFF;}
	.st3{fill:#E06043;}
	.st4{clip-path:url(#SVGID_00000119803857036456008020000005876381870366608008_);}
	.st5{clip-path:url(#SVGID_00000054258584631561871510000000477927768095642041_);}
	.st6{clip-path:url(#SVGID_00000066490255338472518700000009697200587981555644_);}
	.st7{clip-path:url(#SVGID_00000026134857059181906040000011626873496816224387_);}
	.st8{clip-path:url(#SVGID_00000093171149465189117030000001620170671311672759_);}
	.st9{fill:#1C3B6C;}
	.st10{fill:#9A9B9F;}
</style>
<g id="Group_2979" transform="translate(0 72.283)">
	<g>
		<defs>
			<rect id="SVGID_1_" x="309.7" y="149.1" width="223.8" height="150.7"/>
		</defs>
		<clipPath id="SVGID_00000170270414757550360980000010344401716807069859_">
			<use xlink:href="#SVGID_1_"  style="overflow:visible;"/>
		</clipPath>
		
			<g id="Group_2960" transform="translate(0 -72.283)" style="clip-path:url(#SVGID_00000170270414757550360980000010344401716807069859_);">
			<g id="Group_2957" transform="translate(0.001 -0.001)">
				<path id="Path_3700" class="st1" d="M455.7,308c6.3-6.4,6.3-16.7-0.1-23l-59.2-59c-3-3.1-7.2-4.8-11.5-4.7
					c-4.3,0-8.5,1.7-11.5,4.8l-59,59.2c-3.1,3.1-4.8,7.2-4.7,11.5c0,4.3,1.7,8.5,4.8,11.5l59.2,59c3.1,3.1,7.2,4.8,11.5,4.7
					c4.3,0,8.5-1.7,11.5-4.8L455.7,308z M385,349.8c-3.1,0-6-1.2-8.2-3.4l-42-41.8c-2.2-2.2-3.4-5.1-3.4-8.1c0-3.1,1.2-6,3.4-8.2
					l41.8-42c2.2-2.2,5.1-3.4,8.1-3.4c3.1,0,6,1.2,8.1,3.4l42,41.8c4.5,4.5,4.5,11.8,0,16.3l-41.8,42
					C391,348.6,388.1,349.8,385,349.8"/>
			</g>
			<g id="Group_2958" transform="translate(15.084 13.805)">
				<path id="Path_3701" class="st2" d="M426.2,290.7c2.4-2.4,3.8-5.7,3.7-9.2c0-3.5-1.4-6.8-3.8-9.2l-47.4-47.2
					c-2.4-2.4-5.7-3.8-9.2-3.8c-3.4,0-6.7,1.3-9.2,3.8l-46.9,47.1c-2.4,2.4-3.8,5.7-3.7,9.2c0,3.5,1.4,6.8,3.9,9.2l47.4,47.2
					c2.4,2.4,5.7,3.8,9.2,3.8c3.4,0,6.7-1.3,9.2-3.8L426.2,290.7z"/>
			</g>
			<g id="Group_2959" transform="translate(53.182 51.582)">
				<path id="Path_3702" class="st3" d="M329.8,261.5c-11.1,0-20.1-9-20.1-20.1c0-11.1,9-20.1,20.1-20.1c11.1,0,20.1,9,20.1,20.1
					C349.9,252.5,340.9,261.5,329.8,261.5 M329.8,222.7c-10.4,0-18.8,8.4-18.8,18.8c0,10.4,8.4,18.8,18.8,18.8s18.8-8.4,18.8-18.8
					C348.6,231.1,340.2,222.7,329.8,222.7"/>
			</g>
		</g>
	</g>
	<g id="Group_2961" transform="translate(57.453 -16.43)">
		<path id="Path_3704" class="st3" d="M326.2,253h-1.4v-1.3h1.3L326.2,253z M329.8,252.5l-0.5-1.3l0.7-0.3l0.6-0.2l0.4,1.3l-0.6,0.2
			l-0.2-0.6l0.2,0.6L329.8,252.5z M321.3,252.4l-0.7-0.2l-0.6-0.3l0.5-1.2l0.6,0.3l0.6,0.2L321.3,252.4z M316.8,250.4l-0.6-0.4
			l-0.5-0.4l0.8-1l1,0.8L316.8,250.4z M334.3,250.3l-0.8-1l0.6-0.4l0.6-0.4l0.7,1.1l-0.6,0.4l-0.4-0.6l0.4,0.6L334.3,250.3z
			 M313.1,247l-0.8-1.1l1.1-0.7l0.7,1.1L313.1,247z M338,247l-1.1-0.7l0.4-0.5l0.6,0.4l0.5,0.4L338,247z M310.7,242.7l-0.4-1.3
			l1.3-0.4l0.4,1.3L310.7,242.7z M340.4,242.7l-1.3-0.4l0.2-0.6l1.3,0.4L340.4,242.7z M309.7,237.9v-1.4h1.3v1.3L309.7,237.9z
			 M341.4,237.9H340v-1.4l1.3,0L341.4,237.9z M339.5,233.3l-0.4-1.3l1.3-0.4l0.4,1.3L339.5,233.3z M311.8,232.7l-1.3-0.4l0.2-0.6
			l1.3,0.4L311.8,232.7z M337.6,229.2l-0.8-1.1l1.1-0.8l0.8,1.1L337.6,229.2z M313.8,228.6l-0.6-0.4l-0.5-0.4l0.4-0.5l1.1,0.7
			L313.8,228.6z M316.4,225.9l-0.7-1.1l0.5-0.3l0.5-0.4l0.9,1l-0.6,0.5L316.4,225.9z M334.5,225.8l-1-0.8l0.7-1l0.6,0.4l0.5,0.4
			L334.5,225.8z M330.6,223.6l-0.6-0.3l-0.6-0.2l0.4-1.3l0.7,0.2l0.6,0.3L330.6,223.6z M320.4,223.6l-0.4-1.3l0.6-0.2l0.2,0.6
			l-0.2-0.6l0.6-0.3l0.5,1.3l-0.7,0.3L320.4,223.6z M326.2,222.7h-1.3l0-1.3h1.3L326.2,222.7z"/>
	</g>
	<g id="Group_2962" transform="translate(65.109 -10.315)">
		<path id="Path_3705" class="st3" d="M310.7,239.2l-0.9-0.9l7.5-7.5v-9.4h1.3v10L310.7,239.2z"/>
	</g>
	<g>
		<defs>
			<rect id="SVGID_00000104689039590330266000000008690562140079769486_" x="309.7" y="149.1" width="223.8" height="150.7"/>
		</defs>
		<clipPath id="SVGID_00000008844386943704562820000013829227360021085870_">
			<use xlink:href="#SVGID_00000104689039590330266000000008690562140079769486_"  style="overflow:visible;"/>
		</clipPath>
		
			<g id="Group_2964" transform="translate(0 -72.283)" style="clip-path:url(#SVGID_00000008844386943704562820000013829227360021085870_);">
			<g id="Group_2963" transform="translate(44.135 54.396)">
				<path id="Path_3706" class="st3" d="M338.9,262.9h-29.2v-1.3h29.2c12.7,0,22.9-10.3,22.9-23c0-6.1-2.4-12-6.8-16.3l0.9-1
					c4.6,4.6,7.2,10.8,7.2,17.3C363.1,252,352.3,262.9,338.9,262.9"/>
			</g>
		</g>
	</g>
	<path id="Path_3708" class="st3" d="M372.7,249.8H383v-1.3h-10.3V249.8z"/>
	<g>
		<defs>
			<rect id="SVGID_00000021824460620710008480000015032234646584190103_" x="309.7" y="149.1" width="223.8" height="150.7"/>
		</defs>
		<clipPath id="SVGID_00000183928437407229952350000013977280881913922447_">
			<use xlink:href="#SVGID_00000021824460620710008480000015032234646584190103_"  style="overflow:visible;"/>
		</clipPath>
		
			<g id="Group_2967" transform="translate(0 -72.283)" style="clip-path:url(#SVGID_00000183928437407229952350000013977280881913922447_);">
			<g id="Group_2965" transform="translate(83.322 79.938)">
				<path id="Path_3709" class="st3" d="M310.2,240.2l-0.5-1.2c7.9-3.1,13.9-9.6,16.5-17.6l1.3,0.4
					C324.8,230.2,318.5,237,310.2,240.2"/>
			</g>
			<g id="Group_2966" transform="translate(100.385 65.379)">
				<path id="Path_3710" class="st3" d="M311.7,227.6h-1.3c0-2-0.2-4-0.7-6l1.3-0.3C311.5,223.4,311.7,225.5,311.7,227.6"/>
			</g>
		</g>
	</g>
	<g id="Group_2968" transform="translate(42.552 16.33)">
		<path id="Path_3712" class="st3" d="M316.4,234.7l-6.7-6.7l6.7-6.7l0.9,0.9l-5.7,5.7l5.7,5.7L316.4,234.7z"/>
	</g>
	<g>
		<defs>
			<rect id="SVGID_00000100376317626904016570000017133590320129132209_" x="309.7" y="149.1" width="223.8" height="150.7"/>
		</defs>
		<clipPath id="SVGID_00000085217156606328823430000017077969648569485956_">
			<use xlink:href="#SVGID_00000100376317626904016570000017133590320129132209_"  style="overflow:visible;"/>
		</clipPath>
		
			<g id="Group_2970" transform="translate(0 -72.283)" style="clip-path:url(#SVGID_00000085217156606328823430000017077969648569485956_);">
			<g id="Group_2969" transform="translate(48.992 47.393)">
				<path id="Path_3713" class="st3" d="M316.9,262.9c-4.6-4.6-7.2-10.8-7.2-17.3c0-13.4,10.9-24.3,24.3-24.3h29.1v1.3H334
					c-12.7,0-23,10.3-23,22.9c0,6.1,2.5,12,6.8,16.3L316.9,262.9z"/>
			</g>
		</g>
	</g>
	<path id="Path_3715" class="st3" d="M383,193h10.3v-1.3H383V193z"/>
	<g>
		<defs>
			<rect id="SVGID_00000171679766904439905850000006579243323367387792_" x="309.7" y="149.1" width="223.8" height="150.7"/>
		</defs>
		<clipPath id="SVGID_00000137129395267623311530000006136391141049840310_">
			<use xlink:href="#SVGID_00000171679766904439905850000006579243323367387792_"  style="overflow:visible;"/>
		</clipPath>
		
			<g id="Group_2973" transform="translate(0 -72.283)" style="clip-path:url(#SVGID_00000137129395267623311530000006136391141049840310_);">
			<g id="Group_2971" transform="translate(45.498 44.552)">
				<path id="Path_3716" class="st3" d="M311,240.2l-1.3-0.4c2.7-8.5,9-15.2,17.3-18.5l0.5,1.2C319.6,225.7,313.5,232.2,311,240.2"
					/>
			</g>
			<g id="Group_2972" transform="translate(44.19 71.684)">
				<path id="Path_3717" class="st3" d="M310.4,227.6c-0.5-2.1-0.7-4.2-0.7-6.3h1.3c0,2,0.2,4,0.7,6L310.4,227.6z"/>
			</g>
		</g>
	</g>
	<g id="Group_2974" transform="translate(96.377 -30.913)">
		<path id="Path_3719" class="st3" d="M310.7,234.7l-0.9-0.9l5.7-5.7l-5.7-5.7l0.9-0.9l6.7,6.7L310.7,234.7z"/>
	</g>
	<g>
		<defs>
			<rect id="SVGID_00000111902224007377245860000016113348196341179554_" x="309.7" y="149.1" width="223.8" height="150.7"/>
		</defs>
		<clipPath id="SVGID_00000029748620457704679910000005366637802766353798_">
			<use xlink:href="#SVGID_00000111902224007377245860000016113348196341179554_"  style="overflow:visible;"/>
		</clipPath>
		
			<g id="Group_2978" transform="translate(0 -72.283)" style="clip-path:url(#SVGID_00000029748620457704679910000005366637802766353798_);">
			<g id="Group_2975" transform="translate(169.209 60.085)">
				<path id="Path_3720" class="st9" d="M332.7,235c0.5-0.5,0.7-1.1,0.7-1.8c0-0.7-0.3-1.3-0.8-1.8l-9.3-9.3
					c-0.5-0.5-1.1-0.8-1.8-0.8c-0.7,0-1.3,0.3-1.8,0.7l-9.2,9.3c-0.5,0.5-0.7,1.1-0.7,1.8c0,0.7,0.3,1.3,0.8,1.8l9.3,9.3
					c0.5,0.5,1.1,0.8,1.8,0.8c0.7,0,1.3-0.3,1.8-0.7L332.7,235z"/>
			</g>
			<g id="Group_2976" transform="translate(200.065 67.055)">
				<path id="Path_3721" class="st10" d="M317.8,226.1c0.2-0.2,0.3-0.4,0.3-0.6c0-0.2-0.1-0.5-0.3-0.6l-3.3-3.3
					c-0.2-0.2-0.4-0.3-0.6-0.3c-0.2,0-0.5,0.1-0.6,0.3l-3.2,3.3c-0.2,0.2-0.3,0.4-0.3,0.6c0,0.2,0.1,0.5,0.3,0.6l3.3,3.3
					c0.2,0.2,0.4,0.3,0.6,0.3c0.2,0,0.5-0.1,0.6-0.3L317.8,226.1z"/>
			</g>
			<g id="Group_2977" transform="translate(215.512 67.055)">
				<path id="Path_3722" class="st10" d="M317.8,226.1c0.2-0.2,0.3-0.4,0.3-0.6c0-0.2-0.1-0.5-0.3-0.6l-3.3-3.3
					c-0.2-0.2-0.4-0.3-0.6-0.3c-0.2,0-0.5,0.1-0.6,0.3l-3.2,3.3c-0.2,0.2-0.3,0.4-0.3,0.6c0,0.2,0.1,0.5,0.3,0.6l3.3,3.3
					c0.2,0.2,0.4,0.3,0.6,0.3c0.2,0,0.5-0.1,0.6-0.3L317.8,226.1z"/>
			</g>
		</g>
	</g>
</g>
</svg>
