<svg xmlns="http://www.w3.org/2000/svg" width="211.784" height="149.376" viewBox="0 0 211.784 149.376">
  <g id="Group_3519" data-name="Group 3519" transform="translate(-263.628 -4507.23)">
    <g id="Group_2849" data-name="Group 2849" transform="translate(265.128 4508.73)">
      <path id="Path_3588" data-name="Path 3588" d="M71.767,42.625a15.808,15.808,0,0,0-.049-22.338L14.195-36.984a15.683,15.683,0,0,0-11.178-4.6,15.68,15.68,0,0,0-11.16,4.647L-65.416,20.584a15.681,15.681,0,0,0-4.6,11.182,15.682,15.682,0,0,0,4.647,11.158L-7.844,100.2a15.689,15.689,0,0,0,11.18,4.6,15.683,15.683,0,0,0,11.16-4.647ZM3.15,83.18a11.105,11.105,0,0,1-7.922-3.256l-40.75-40.57a11.12,11.12,0,0,1-3.291-7.906,11.109,11.109,0,0,1,3.256-7.92L-4.985-17.22a11.113,11.113,0,0,1,7.908-3.295,11.106,11.106,0,0,1,7.914,3.258L51.591,23.316a11.2,11.2,0,0,1,.034,15.824L11.054,79.89a11.119,11.119,0,0,1-7.9,3.291" transform="translate(70.013 41.583)" fill="none" stroke="#e06043" stroke-width="3"/>
    </g>
    <g id="Group_2850" data-name="Group 2850" transform="translate(279.778 4522.14)">
      <path id="Path_3589" data-name="Path 3589" d="M57.281,34.107A12.434,12.434,0,0,0,60.918,25.2a12.6,12.6,0,0,0-3.738-8.916L11.122-29.574a12.608,12.608,0,0,0-8.932-3.7A12.419,12.419,0,0,0-6.7-29.6L-52.242,16.141a12.441,12.441,0,0,0-3.639,8.91,12.6,12.6,0,0,0,3.74,8.916L-6.083,79.825a12.612,12.612,0,0,0,8.935,3.7,12.423,12.423,0,0,0,8.89-3.68Z" transform="translate(55.881 33.274)" fill="#fff"/>
    </g>
    <g id="Group_2852" data-name="Group 2852" transform="translate(330.164 4597.392)">
      <path id="Path_3591" data-name="Path 3591" d="M3.884,3.743C.071,3.743-3.789,2.63-3.789.5V-3.652h1.217c0,.826,2.515,2.023,6.456,2.023s6.456-1.2,6.456-2.023h1.215V.5c0,2.126-3.858,3.24-7.671,3.24M-2.572-1.817V.5c0,.824,2.515,2.023,6.456,2.023S10.34,1.328,10.34.5V-1.817C7.46.04.308.038-2.572-1.817" transform="translate(3.789 3.652)" fill="#e06043"/>
    </g>
    <g id="Group_2854" data-name="Group 2854" transform="translate(330.164 4593.236)">
      <path id="Path_3593" data-name="Path 3593" d="M3.884,3.743C.071,3.743-3.789,2.63-3.789.5V-3.652h1.217c0,.824,2.515,2.023,6.456,2.023s6.456-1.2,6.456-2.023h1.215V.5c0,2.126-3.858,3.24-7.671,3.24M-2.572-1.817V.5c0,.824,2.515,2.023,6.456,2.023S10.34,1.328,10.34.5V-1.817C7.46.038.308.038-2.572-1.817" transform="translate(3.789 3.652)" fill="#e06043"/>
    </g>
    <g id="Group_2856" data-name="Group 2856" transform="translate(330.164 4589.081)">
      <path id="Path_3595" data-name="Path 3595" d="M3.884,3.743C.071,3.743-3.789,2.63-3.789.5V-3.652h1.217c0,.826,2.515,2.023,6.456,2.023s6.456-1.2,6.456-2.023h1.215V.5c0,2.126-3.858,3.24-7.671,3.24M-2.572-1.817V.5c0,.824,2.515,2.023,6.456,2.023S10.34,1.328,10.34.5V-1.817C7.46.038.308.04-2.572-1.817" transform="translate(3.789 3.652)" fill="#e06043"/>
    </g>
    <g id="Group_2857" data-name="Group 2857" transform="translate(330.164 4581.687)">
      <path id="Path_3596" data-name="Path 3596" d="M3.884,3.28C.071,3.28-3.789,2.166-3.789.04S.071-3.2,3.884-3.2,11.555-2.086,11.555.04,7.7,3.28,3.884,3.28m0-5.263c-3.941,0-6.456,1.2-6.456,2.023S-.057,2.063,3.884,2.063,10.34.864,10.34.04,7.825-1.983,3.884-1.983" transform="translate(3.789 3.2)" fill="#e06043"/>
    </g>
    <g id="Group_2858" data-name="Group 2858" transform="translate(330.164 4584.927)">
      <path id="Path_3597" data-name="Path 3597" d="M3.884,3.743C.071,3.743-3.789,2.63-3.789.5V-3.652h1.217c0,.826,2.515,2.023,6.456,2.023s6.456-1.2,6.456-2.023h1.215V.5c0,2.126-3.858,3.24-7.671,3.24M-2.572-1.817V.5c0,.824,2.515,2.023,6.456,2.023S10.34,1.328,10.34.5V-1.817C7.46.038.308.04-2.572-1.817" transform="translate(3.789 3.652)" fill="#e06043"/>
    </g>
    <g id="Group_2860" data-name="Group 2860" transform="translate(310.775 4597.392)">
      <path id="Path_3599" data-name="Path 3599" d="M3.883,3.743C.07,3.743-3.788,2.63-3.788.5V-3.652h1.215c0,.826,2.515,2.023,6.456,2.023s6.456-1.2,6.456-2.023h1.217V.5c0,2.126-3.86,3.24-7.673,3.24M-2.573-1.817V.5c0,.824,2.515,2.023,6.456,2.023S10.339,1.328,10.339.5V-1.817C7.459.038.307.04-2.573-1.817" transform="translate(3.788 3.652)" fill="#e06043"/>
    </g>
    <g id="Group_2861" data-name="Group 2861" transform="translate(310.775 4589.996)">
      <path id="Path_3600" data-name="Path 3600" d="M3.883,3.28C.07,3.28-3.788,2.166-3.788.04S.07-3.2,3.883-3.2,11.556-2.086,11.556.04,7.7,3.28,3.883,3.28m0-5.263c-3.941,0-6.456,1.2-6.456,2.023S-.058,2.063,3.883,2.063,10.339.864,10.339.04,7.824-1.983,3.883-1.983" transform="translate(3.788 3.2)" fill="#e06043"/>
    </g>
    <g id="Group_2862" data-name="Group 2862" transform="translate(310.775 4593.236)">
      <path id="Path_3601" data-name="Path 3601" d="M3.883,3.743C.07,3.743-3.788,2.63-3.788.5V-3.652h1.215c0,.824,2.515,2.023,6.456,2.023s6.456-1.2,6.456-2.023h1.217V.5c0,2.126-3.86,3.24-7.673,3.24M-2.573-1.817V.5c0,.824,2.515,2.023,6.456,2.023S10.339,1.328,10.339.5V-1.817C7.459.038.307.038-2.573-1.817" transform="translate(3.788 3.652)" fill="#e06043"/>
    </g>
    <g id="Group_2864" data-name="Group 2864" transform="translate(349.554 4597.392)">
      <path id="Path_3603" data-name="Path 3603" d="M3.884,3.743C.071,3.743-3.789,2.63-3.789.5V-3.652h1.217c0,.826,2.515,2.023,6.456,2.023s6.456-1.2,6.456-2.023h1.215V.5c0,2.126-3.858,3.24-7.671,3.24M-2.572-1.817V.5c0,.824,2.515,2.023,6.456,2.023S10.34,1.328,10.34.5V-1.817C7.458.04.308.038-2.572-1.817" transform="translate(3.789 3.652)" fill="#e06043"/>
    </g>
    <g id="Group_2866" data-name="Group 2866" transform="translate(349.554 4593.236)">
      <path id="Path_3605" data-name="Path 3605" d="M3.884,3.743C.071,3.743-3.789,2.63-3.789.5V-3.652h1.217c0,.824,2.515,2.023,6.456,2.023s6.456-1.2,6.456-2.023h1.215V.5c0,2.126-3.858,3.24-7.671,3.24M-2.572-1.817V.5c0,.824,2.515,2.023,6.456,2.023S10.34,1.328,10.34.5V-1.817C7.458.038.308.038-2.572-1.817" transform="translate(3.789 3.652)" fill="#e06043"/>
    </g>
    <g id="Group_2868" data-name="Group 2868" transform="translate(349.554 4589.081)">
      <path id="Path_3607" data-name="Path 3607" d="M3.884,3.743C.071,3.743-3.789,2.63-3.789.5V-3.652h1.217c0,.826,2.515,2.023,6.456,2.023s6.456-1.2,6.456-2.023h1.215V.5c0,2.126-3.858,3.24-7.671,3.24M-2.572-1.817V.5c0,.824,2.515,2.023,6.456,2.023S10.34,1.328,10.34.5V-1.817C7.458.038.308.04-2.572-1.817" transform="translate(3.789 3.652)" fill="#e06043"/>
    </g>
    <g id="Group_2870" data-name="Group 2870" transform="translate(349.554 4584.927)">
      <path id="Path_3609" data-name="Path 3609" d="M3.884,3.743C.071,3.743-3.789,2.63-3.789.5V-3.652h1.217c0,.826,2.515,2.023,6.456,2.023s6.456-1.2,6.456-2.023h1.215V.5c0,2.126-3.858,3.24-7.671,3.24M-2.572-1.817V.5c0,.824,2.515,2.023,6.456,2.023S10.34,1.328,10.34.5V-1.817C7.458.038.308.04-2.572-1.817" transform="translate(3.789 3.652)" fill="#e06043"/>
    </g>
    <g id="Group_2872" data-name="Group 2872" transform="translate(349.554 4580.771)">
      <path id="Path_3611" data-name="Path 3611" d="M3.884,3.743C.071,3.743-3.789,2.63-3.789.5V-3.652h1.217c0,.824,2.515,2.023,6.456,2.023s6.456-1.2,6.456-2.023h1.215V.5c0,2.126-3.858,3.24-7.671,3.24M-2.572-1.817V.5c0,.824,2.515,2.023,6.456,2.023S10.34,1.328,10.34.5V-1.817C7.458.038.308.04-2.572-1.817" transform="translate(3.789 3.652)" fill="#e06043"/>
    </g>
    <g id="Group_2873" data-name="Group 2873" transform="translate(349.554 4573.377)">
      <path id="Path_3612" data-name="Path 3612" d="M3.884,3.28C.071,3.28-3.789,2.166-3.789.04S.071-3.2,3.884-3.2,11.555-2.086,11.555.04,7.7,3.28,3.884,3.28m0-5.263c-3.941,0-6.456,1.2-6.456,2.023S-.057,2.063,3.884,2.063,10.34.864,10.34.04,7.825-1.983,3.884-1.983" transform="translate(3.789 3.2)" fill="#e06043"/>
    </g>
    <g id="Group_2874" data-name="Group 2874" transform="translate(349.554 4576.616)">
      <path id="Path_3613" data-name="Path 3613" d="M3.884,3.743C.071,3.743-3.789,2.63-3.789.5V-3.652h1.217c0,.824,2.515,2.023,6.456,2.023s6.456-1.2,6.456-2.023h1.215V.5c0,2.126-3.858,3.24-7.671,3.24M-2.572-1.817V.5c0,.824,2.515,2.023,6.456,2.023S10.34,1.328,10.34.5V-1.817C7.458.038.308.038-2.572-1.817" transform="translate(3.789 3.652)" fill="#e06043"/>
    </g>
    <path id="Path_3615" data-name="Path 3615" d="M26.25-130.811h1.217V-142.34H26.25Z" transform="translate(291.587 4718.508)" fill="#e06043"/>
    <g id="Group_2876" data-name="Group 2876" transform="translate(313.903 4575.361)">
      <path id="Path_3616" data-name="Path 3616" d="M4.164,2.736.48-.948-3.2,2.736l-.859-.861L.48-2.669,5.024,1.875Z" transform="translate(4.062 2.669)" fill="#e06043"/>
    </g>
    <path id="Path_3617" data-name="Path 3617" d="M35.825-134.914h1.217v-11.529H35.825Z" transform="translate(301.402 4714.302)" fill="#e06043"/>
    <g id="Group_2877" data-name="Group 2877" transform="translate(333.293 4567.053)">
      <path id="Path_3618" data-name="Path 3618" d="M.436,2.735l-.861-.861L4.119-2.668,8.661,1.874,7.8,2.735,4.119-.949Z" transform="translate(0.425 2.668)" fill="#e06043"/>
    </g>
    <path id="Path_3619" data-name="Path 3619" d="M45.4-139.018h1.217v-11.529H45.4Z" transform="translate(311.217 4710.096)" fill="#e06043"/>
    <g id="Group_2878" data-name="Group 2878" transform="translate(352.683 4558.741)">
      <path id="Path_3620" data-name="Path 3620" d="M.436,2.736l-.861-.861L4.119-2.669,8.661,1.875,7.8,2.736,4.119-.948Z" transform="translate(0.425 2.669)" fill="#e06043"/>
    </g>
    <g id="Group_2879" data-name="Group 2879" transform="translate(335.957 4558.776)">
      <path id="Path_3621" data-name="Path 3621" d="M.951,1.9A1.881,1.881,0,0,1-.928.024,1.882,1.882,0,0,1,.951-1.855,1.88,1.88,0,0,1,2.828.024,1.88,1.88,0,0,1,.951,1.9m0-2.539A.664.664,0,0,0,.289.024a.662.662,0,0,0,.662.66.661.661,0,0,0,0-1.322" transform="translate(0.928 1.855)" fill="#e06043"/>
    </g>
    <g id="Group_2880" data-name="Group 2880" transform="translate(316.566 4558.776)">
      <path id="Path_3622" data-name="Path 3622" d="M.951,1.9A1.881,1.881,0,0,1-.928.024a1.879,1.879,0,1,1,3.758,0A1.881,1.881,0,0,1,.951,1.9m0-2.539A.664.664,0,0,0,.289.024a.662.662,0,0,0,1.324,0A.664.664,0,0,0,.951-.638" transform="translate(0.928 1.855)" fill="#e06043"/>
    </g>
    <g id="Group_2881" data-name="Group 2881" transform="translate(335.957 4550.467)">
      <path id="Path_3623" data-name="Path 3623" d="M.951,1.9A1.881,1.881,0,0,1-.928.024,1.882,1.882,0,0,1,.951-1.855,1.88,1.88,0,0,1,2.828.024,1.88,1.88,0,0,1,.951,1.9m0-2.539A.664.664,0,0,0,.289.024a.662.662,0,0,0,.662.66.661.661,0,0,0,0-1.322" transform="translate(0.928 1.855)" fill="#e06043"/>
    </g>
    <g id="Group_2882" data-name="Group 2882" transform="translate(355.348 4550.467)">
      <path id="Path_3624" data-name="Path 3624" d="M.951,1.9A1.881,1.881,0,0,1-.928.024,1.882,1.882,0,0,1,.951-1.855,1.88,1.88,0,0,1,2.828.024,1.88,1.88,0,0,1,.951,1.9m0-2.539A.664.664,0,0,0,.289.024a.662.662,0,0,0,.662.66.661.661,0,0,0,0-1.322" transform="translate(0.928 1.855)" fill="#e06043"/>
    </g>
    <g id="Group_2883" data-name="Group 2883" transform="translate(316.566 4550.467)">
      <path id="Path_3625" data-name="Path 3625" d="M.951,1.9A1.881,1.881,0,0,1-.928.024a1.879,1.879,0,1,1,3.758,0A1.881,1.881,0,0,1,.951,1.9m0-2.539A.664.664,0,0,0,.289.024a.662.662,0,0,0,1.324,0A.664.664,0,0,0,.951-.638" transform="translate(0.928 1.855)" fill="#e06043"/>
    </g>
    <g id="Group_2884" data-name="Group 2884" transform="translate(316.566 4567.087)">
      <path id="Path_3626" data-name="Path 3626" d="M.951,1.9A1.881,1.881,0,0,1-.928.024a1.879,1.879,0,1,1,3.758,0A1.881,1.881,0,0,1,.951,1.9m0-2.539A.664.664,0,0,0,.289.024a.662.662,0,0,0,1.324,0A.664.664,0,0,0,.951-.638" transform="translate(0.928 1.855)" fill="#e06043"/>
    </g>
    <g id="Group_2885" data-name="Group 2885" transform="translate(422.379 4568.837)">
      <path id="Path_3627" data-name="Path 3627" d="M11.292,6.723a2.45,2.45,0,0,0,.717-1.756,2.486,2.486,0,0,0-.737-1.758L2.191-5.83a2.474,2.474,0,0,0-1.76-.729,2.447,2.447,0,0,0-1.754.723L-10.3,3.181a2.45,2.45,0,0,0-.717,1.756,2.482,2.482,0,0,0,.737,1.758l9.08,9.04a2.484,2.484,0,0,0,1.76.731,2.454,2.454,0,0,0,1.754-.725Z" transform="translate(11.016 6.559)" fill="#053972"/>
    </g>
    <g id="Group_2886" data-name="Group 2886" transform="translate(452.349 4575.606)">
      <path id="Path_3628" data-name="Path 3628" d="M3.953,2.354A.852.852,0,0,0,4.2,1.74a.876.876,0,0,0-.257-.616L.767-2.041A.865.865,0,0,0,.152-2.3a.864.864,0,0,0-.614.253L-3.6,1.114a.869.869,0,0,0-.251.614.869.869,0,0,0,.259.616L-.419,5.509A.873.873,0,0,0,.2,5.764.857.857,0,0,0,.81,5.509Z" transform="translate(3.856 2.296)" fill="#9a9b9f"/>
    </g>
    <g id="Group_2910" data-name="Group 2910" transform="translate(467.353 4575.606)">
      <path id="Path_3652" data-name="Path 3652" d="M3.953,2.354A.852.852,0,0,0,4.2,1.74a.876.876,0,0,0-.257-.616L.767-2.041A.865.865,0,0,0,.152-2.3a.864.864,0,0,0-.614.253L-3.6,1.114a.869.869,0,0,0-.251.614.869.869,0,0,0,.259.616L-.419,5.509A.873.873,0,0,0,.2,5.764.857.857,0,0,0,.81,5.509Z" transform="translate(3.856 2.296)" fill="#9a9b9f"/>
    </g>
  </g>
</svg>
